<svg xmlns="http://www.w3.org/2000/svg" width="32.235" height="29.732" viewBox="0 0 32.235 29.732">
  <g id="book" transform="translate(0 -18.463)">
    <path id="Caminho_405" data-name="Caminho 405" d="M31.735,25.238a2.555,2.555,0,0,0-1.143-.832,3.118,3.118,0,0,1-.1,1.1l-5.807,19.1a1.392,1.392,0,0,1-.677.8,2.148,2.148,0,0,1-1.084.3H5.061q-2.323,0-2.787-1.355a.882.882,0,0,1,.02-.832.853.853,0,0,1,.736-.291H19.85a3.567,3.567,0,0,0,2.487-.668A7.559,7.559,0,0,0,23.722,39.6l5.3-17.537a2.761,2.761,0,0,0-.349-2.516,2.55,2.55,0,0,0-2.207-1.084H11.74a5.382,5.382,0,0,0-.987.174l.019-.058a4.04,4.04,0,0,0-.919-.107,1.294,1.294,0,0,0-.7.223,2.241,2.241,0,0,0-.513.455,3.332,3.332,0,0,0-.378.619q-.184.378-.31.7t-.29.678a4.362,4.362,0,0,1-.319.59q-.116.155-.329.407t-.348.445a1.09,1.09,0,0,0-.174.348,1.261,1.261,0,0,0,.039.513,1.6,1.6,0,0,1,.058.493,7.34,7.34,0,0,1-.532,1.868,7.979,7.979,0,0,1-.823,1.636q-.077.1-.426.436a1.549,1.549,0,0,0-.426.59q-.077.1-.01.542a2.8,2.8,0,0,1,.048.619,7.93,7.93,0,0,1-.484,1.742,11.842,11.842,0,0,1-.813,1.781A3.174,3.174,0,0,1,2.8,33.6a1.628,1.628,0,0,0-.329.542,1.706,1.706,0,0,0,.01.542,1.514,1.514,0,0,1-.01.58,10.506,10.506,0,0,1-.581,1.771,12.923,12.923,0,0,1-.871,1.771,4.659,4.659,0,0,1-.319.455,4.723,4.723,0,0,0-.319.455,1.2,1.2,0,0,0-.155.407.962.962,0,0,0,.058.378,1.074,1.074,0,0,1,.058.416q-.02.271-.077.716T.2,42.155a3.512,3.512,0,0,0,.039,2.459A5.439,5.439,0,0,0,2.168,47.16a4.737,4.737,0,0,0,2.875,1.035H22.909a3.864,3.864,0,0,0,2.371-.842,4,4,0,0,0,1.481-2.081l5.323-17.537A2.737,2.737,0,0,0,31.735,25.238Zm-20.6.039.407-1.239a.863.863,0,0,1,.319-.435.811.811,0,0,1,.494-.184H24.128a.422.422,0,0,1,.387.184.5.5,0,0,1,.039.435l-.407,1.239a.865.865,0,0,1-.32.436.811.811,0,0,1-.493.184H11.566a.422.422,0,0,1-.387-.184A.5.5,0,0,1,11.14,25.276ZM9.533,30.232l.407-1.239a.864.864,0,0,1,.319-.435.809.809,0,0,1,.494-.184H22.521a.422.422,0,0,1,.387.184.5.5,0,0,1,.039.435l-.407,1.239a.863.863,0,0,1-.319.435.81.81,0,0,1-.494.184H9.959a.421.421,0,0,1-.387-.184A.5.5,0,0,1,9.533,30.232Z" fill="#f6ffb4"/>
  </g>
</svg>
