<svg xmlns="http://www.w3.org/2000/svg" width="170.299" height="170.151" viewBox="0 0 170.299 170.151">
  <g id="mortarboard" transform="translate(0 0)">
    <path id="Caminho_227" data-name="Caminho 227" d="M398.192,293.263a2.838,2.838,0,0,0,0-5.677h-8.515A5.677,5.677,0,0,0,384,293.263v5.677a5.677,5.677,0,0,0,5.677,5.677h8.515a2.838,2.838,0,0,0,0-5.677h-8.515v-5.677Zm0,0" transform="translate(-247.761 -185.554)" fill="#fff"/>
    <path id="Caminho_228" data-name="Caminho 228" d="M288,402.424V408.1a2.838,2.838,0,0,0,5.677,0v-5.677a2.838,2.838,0,1,0-5.677,0Zm0,0" transform="translate(-185.821 -257.818)" fill="#fff"/>
    <path id="Caminho_229" data-name="Caminho 229" d="M320,386.424v17.03a2.838,2.838,0,0,0,5.677,0v-17.03a2.838,2.838,0,1,0-5.677,0Zm0,0" transform="translate(-206.468 -247.494)" fill="#fff"/>
    <path id="Caminho_230" data-name="Caminho 230" d="M360,386.424v17.03a2.838,2.838,0,0,0,5.677,0v-17.03a2.838,2.838,0,1,0-5.677,0Zm0,0" transform="translate(-232.276 -247.494)" fill="#fff"/>
    <path id="Caminho_231" data-name="Caminho 231" d="M56.515,389.263a2.838,2.838,0,0,0,0-5.677A8.515,8.515,0,0,0,48,392.1v5.677a8.515,8.515,0,0,0,8.515,8.515H79.221a8.515,8.515,0,0,0,8.515-8.515V392.1a8.515,8.515,0,0,0-8.515-8.515,2.838,2.838,0,0,0,0,5.677A2.838,2.838,0,0,1,82.06,392.1v5.677a2.838,2.838,0,0,1-2.838,2.838H56.515a2.838,2.838,0,0,1-2.838-2.838V392.1A2.838,2.838,0,0,1,56.515,389.263Zm0,0" transform="translate(-30.97 -247.494)" fill="#fff"/>
    <path id="Caminho_232" data-name="Caminho 232" d="M256,386.424v17.03a2.838,2.838,0,1,0,5.677,0v-17.03a2.838,2.838,0,1,0-5.677,0Zm0,0" transform="translate(-165.174 -247.494)" fill="#fff"/>
    <path id="Caminho_233" data-name="Caminho 233" d="M158.945,90.68H143.811a14.16,14.16,0,0,0,.942-5v-31.9a2.838,2.838,0,0,0-5.677,0v31.9a8.424,8.424,0,0,1-2.27,5.785l-.108.1a8.453,8.453,0,0,1-2.912,1.955L94.729,109.3a25.478,25.478,0,0,1-19.156,0L36.511,93.518a8.419,8.419,0,0,1-5.29-7.84V44.5L51.09,51.227V73.65a2.838,2.838,0,1,0,5.677,0V53.159L83.2,62.121a6.068,6.068,0,0,0,3.908,0l32.1-10.893V74.163a8.516,8.516,0,1,0,5.677,0V49.311l41.476-14.061a5.633,5.633,0,0,0-.179-10.785L86.929.268a6.051,6.051,0,0,0-3.556,0L4.116,24.453a5.633,5.633,0,0,0-.179,10.785l21.607,7.337v43.1a14.132,14.132,0,0,0,.945,5H25.453A8.432,8.432,0,0,0,17.03,99.1v8.606a2.838,2.838,0,0,0,5.677,0V99.1a2.752,2.752,0,0,1,2.747-2.747h4.988a14.078,14.078,0,0,0,3.946,2.427l39.06,15.778a31.108,31.108,0,0,0,23.408,0l22.354-9.029v10.692a2.838,2.838,0,1,0,5.677,0V104.871a2.741,2.741,0,0,0-.455-1.448l11.481-4.637a14.218,14.218,0,0,0,3.948-2.429h19.085a5.677,5.677,0,0,1,5.677,5.677v17.03a5.677,5.677,0,0,1-5.677,5.677H14.192A14.208,14.208,0,0,0,0,138.931v17.03a14.209,14.209,0,0,0,14.192,14.192H139.077a2.838,2.838,0,1,0,0-5.677H14.192a8.515,8.515,0,0,1-8.515-8.515v-17.03a8.515,8.515,0,0,1,8.515-8.515H158.945A11.354,11.354,0,0,0,170.3,119.063v-17.03A11.353,11.353,0,0,0,158.945,90.68ZM122.047,85a2.838,2.838,0,1,1,2.838-2.838A2.838,2.838,0,0,1,122.047,85ZM85.268,5.7l79.269,24.176L121.363,44.511,86.495,25.735a2.84,2.84,0,0,0-2.691,5L114.012,47,85.274,56.747a.385.385,0,0,1-.249,0L5.774,29.88Zm0,0" transform="translate(0 -0.001)" fill="#fff"/>
    <path id="Caminho_234" data-name="Caminho 234" d="M93.677,306.939v-8.515a2.838,2.838,0,0,0-5.677,0v8.515a2.838,2.838,0,0,0,5.677,0Zm0,0" transform="translate(-56.779 -190.716)" fill="#fff"/>
  </g>
</svg>
