<svg xmlns="http://www.w3.org/2000/svg" width="32.634" height="30.388" viewBox="0 0 32.634 30.388">
  <g id="home-icon-silhouette" transform="translate(-0.001 -17.047)">
    <g id="Grupo_285" data-name="Grupo 285" transform="translate(0.001 17.047)">
      <g id="Grupo_284" data-name="Grupo 284" transform="translate(0 0)">
        <path id="Caminho_403" data-name="Caminho 403" d="M32.087,30.779l-4.946-4.946V20.12a1.871,1.871,0,0,0-3.741,0v1.972L19.717,18.41a4.921,4.921,0,0,0-6.8,0L.548,30.779a1.871,1.871,0,1,0,2.646,2.645L15.56,21.058a1.1,1.1,0,0,1,1.514,0L29.44,33.425a1.871,1.871,0,1,0,2.646-2.645Z" transform="translate(-0.001 -17.047)" fill="#f6ffb4"/>
        <path id="Caminho_404" data-name="Caminho 404" d="M81.073,128.017a.918.918,0,0,0-1.3,0L68.9,138.891a.921.921,0,0,0-.269.651v7.931a3.37,3.37,0,0,0,3.37,3.37h5.385V142.5h6.08v8.34h5.386a3.37,3.37,0,0,0,3.37-3.37v-7.931a.917.917,0,0,0-.269-.651Z" transform="translate(-64.106 -120.455)" fill="#f6ffb4"/>
      </g>
    </g>
  </g>
</svg>
