<svg xmlns="http://www.w3.org/2000/svg" xmlns:xlink="http://www.w3.org/1999/xlink" width="119.877" height="88.004" viewBox="0 0 119.877 88.004">
  <defs>
    <clipPath id="clip-path">
      <rect width="119.878" height="88.004" fill="none"/>
    </clipPath>
  </defs>
  <g id="team_1_" data-name="team (1)" transform="translate(0)" clip-path="url(#clip-path)">
    <g id="team_1_2" data-name="team (1)" transform="translate(0 -68.066)">
      <g id="Grupo_417" data-name="Grupo 417" transform="translate(91.957 105.617)">
        <g id="Grupo_416" data-name="Grupo 416" transform="translate(0 0)">
          <path id="Caminho_693" data-name="Caminho 693" d="M406.558,230.512c-4.079-2.039-11.727-2.063-12.051-2.063a1.756,1.756,0,0,0,0,3.512c1.974,0,7.7.3,10.48,1.692a1.756,1.756,0,0,0,1.571-3.141Z" transform="translate(-392.751 -228.449)" fill="#fff"/>
        </g>
      </g>
      <g id="Grupo_419" data-name="Grupo 419" transform="translate(0 68.066)">
        <g id="Grupo_418" data-name="Grupo 418" transform="translate(0 0)">
          <path id="Caminho_694" data-name="Caminho 694" d="M114.519,132.682l-7.252-2.072a.736.736,0,0,1-.532-.7v-2.421a13.2,13.2,0,0,0,1.679-1.377,12.918,12.918,0,0,0,3.954-9.346v-3.34l.7-1.4a11.2,11.2,0,0,0,1.176-4.984V97.985a1.756,1.756,0,0,0-1.756-1.756h-16.9a11.157,11.157,0,0,0-11.144,11.144v.1a9.314,9.314,0,0,0,.978,4.144l.9,1.8v2.868a13.7,13.7,0,0,0,5.633,11.078V129.9c0,.391,0,.553-1.45.968l-3.539,1.011L76.732,128.16a1.754,1.754,0,0,0-.479-1.344l-3.271-3.437V117.61c.346-.285.687-.578,1.017-.887a20.61,20.61,0,0,0,6.493-14.983V97.133A20.3,20.3,0,0,0,82.37,88.6V69.822a1.756,1.756,0,0,0-1.756-1.756H54.328A16.8,16.8,0,0,0,37.552,84.842V88.6a20.3,20.3,0,0,0,1.878,8.536V101.1a21.457,21.457,0,0,0,7.51,16.377v5.9l-3.271,3.437a1.754,1.754,0,0,0-.479,1.344l-10.8,3.929a9.208,9.208,0,0,0-2.171,1.137l-1.7-.848c5.05-2.2,6.65-5.29,6.727-5.444a1.756,1.756,0,0,0,0-1.571c-1.266-2.532-1.419-7.173-1.542-10.9-.041-1.241-.08-2.414-.154-3.458-.6-8.423-7-14.775-14.895-14.775S4.358,102.581,3.76,111c-.074,1.044-.113,2.217-.154,3.459-.123,3.729-.277,8.369-1.542,10.9a1.756,1.756,0,0,0,0,1.571c.077.154,1.673,3.239,6.734,5.44L4.084,134.73A7.351,7.351,0,0,0,0,141.34v12.973a1.756,1.756,0,0,0,3.512,0V141.34a3.856,3.856,0,0,1,2.143-3.468l5.868-2.934,2.041,1.94a7.385,7.385,0,0,0,10.18,0l2.041-1.94,1.913.957a9.247,9.247,0,0,0-1.412,4.9v13.515a1.756,1.756,0,1,0,3.512,0V140.8a5.772,5.772,0,0,1,3.788-5.408l11.391-4.142,4.742,7.113a3.62,3.62,0,0,0,2.665,1.6q.182.018.362.018a3.619,3.619,0,0,0,2.565-1.064l2.893-2.893v18.292a1.756,1.756,0,0,0,3.512,0V136.022l2.893,2.893a3.618,3.618,0,0,0,2.565,1.065q.18,0,.362-.018a3.62,3.62,0,0,0,2.665-1.6l4.742-7.113,11.391,4.142a5.772,5.772,0,0,1,3.788,5.408v13.516a1.756,1.756,0,0,0,3.512,0V140.8a9.283,9.283,0,0,0-2.6-6.425l.434-.124a9.631,9.631,0,0,0,1.634-.59l4.483,4.483v16.171a1.756,1.756,0,0,0,3.512,0V138.143l4.452-4.452a4.176,4.176,0,0,0,.747.3l7.253,2.072a3.893,3.893,0,0,1,2.812,3.728v14.527a1.756,1.756,0,0,0,3.512,0V139.787A7.421,7.421,0,0,0,114.519,132.682Zm-103.253-3.1a12.624,12.624,0,0,1-5.636-3.618,19.356,19.356,0,0,0,1-4.2,13.094,13.094,0,0,0,4.635,5.718Zm10.06,4.753a3.875,3.875,0,0,1-5.341,0l-1.633-1.552a3.633,3.633,0,0,0,.427-1.715v-1.872a13.058,13.058,0,0,0,7.753,0v1.87a3.633,3.633,0,0,0,.427,1.715Zm-2.67-8.061a9.52,9.52,0,0,1-9.509-9.509,1.745,1.745,0,0,0-2.044-1.73c.005-.151.01-.3.015-.452.039-1.207.077-2.348.146-3.326a13.037,13.037,0,0,1,3.55-8.187,10.911,10.911,0,0,1,15.683,0,13.037,13.037,0,0,1,3.55,8.187c.069.978.107,2.118.147,3.325l.011.313a15.779,15.779,0,0,0-8.674-6.338,22.039,22.039,0,0,0-6.679-1.058,1.756,1.756,0,0,0-1.215.536l-3.168,3.286A1.756,1.756,0,1,0,13,113.756l2.636-2.734c2.27.111,9.575.96,12.416,7.216A9.487,9.487,0,0,1,18.655,126.271Zm7.388,3.315v-2.094a12.989,12.989,0,0,0,4.636-5.724,19.332,19.332,0,0,0,1,4.2A12.684,12.684,0,0,1,26.043,129.586Zm16.9-28.488V96.741a1.756,1.756,0,0,0-.175-.764,16.844,16.844,0,0,1-1.7-7.379V84.843A13.28,13.28,0,0,1,54.328,71.578h24.53V88.6a16.844,16.844,0,0,1-1.7,7.379,1.756,1.756,0,0,0-.175.764v5a16.858,16.858,0,0,1-5.383,12.42A17.476,17.476,0,0,1,70.25,115.3l-.03.022a16.885,16.885,0,0,1-11.395,3.4C49.918,118.147,42.941,110.4,42.941,101.1Zm9.887,35.334a.11.11,0,0,1-.1.035.112.112,0,0,1-.089-.054l-5.461-8.192,1.757-1.847,8.285,5.663Zm7.132-6.777-9.509-6.5v-3.278a19.772,19.772,0,0,0,8.146,2.352q.694.045,1.382.045a20.34,20.34,0,0,0,9.491-2.326v3.208Zm7.32,6.758a.112.112,0,0,1-.089.054.108.108,0,0,1-.1-.035L62.7,132.038l8.285-5.663,1.758,1.847Zm32.065-1.482-3.985-3.985a4.818,4.818,0,0,0,.109-1.043v-.741a12.313,12.313,0,0,0,3.477.614c.135,0,.269.006.4.006a13.044,13.044,0,0,0,3.872-.586v.707a4.2,4.2,0,0,0,.127,1.023Zm6.622-11.345a9.438,9.438,0,0,1-6.916,2.68,9.83,9.83,0,0,1-9.216-9.977v-3.283a1.754,1.754,0,0,0-.185-.785l-1.085-2.17a5.784,5.784,0,0,1-.607-2.573v-.1a7.641,7.641,0,0,1,7.632-7.632h15.142v7.293a7.672,7.672,0,0,1-.806,3.413l-.886,1.773a1.755,1.755,0,0,0-.185.785v3.755A9.434,9.434,0,0,1,105.968,123.587Z" transform="translate(0 -68.066)" fill="#fff"/>
        </g>
      </g>
      <g id="Grupo_421" data-name="Grupo 421" transform="translate(108.855 141.291)">
        <g id="Grupo_420" data-name="Grupo 420">
          <path id="Caminho_695" data-name="Caminho 695" d="M466.679,380.814a1.756,1.756,0,0,0-1.756,1.756v11.265a1.756,1.756,0,1,0,3.512,0V382.57A1.756,1.756,0,0,0,466.679,380.814Z" transform="translate(-464.923 -380.814)" fill="#fff"/>
        </g>
      </g>
      <g id="Grupo_423" data-name="Grupo 423" transform="translate(7.51 143.613)">
        <g id="Grupo_422" data-name="Grupo 422" transform="translate(0 0)">
          <path id="Caminho_696" data-name="Caminho 696" d="M33.833,390.728a1.756,1.756,0,0,0-1.756,1.756v8.944a1.756,1.756,0,1,0,3.512,0v-8.944A1.756,1.756,0,0,0,33.833,390.728Z" transform="translate(-32.077 -390.728)" fill="#fff"/>
        </g>
      </g>
      <g id="Grupo_425" data-name="Grupo 425" transform="translate(45.062 84.019)">
        <g id="Grupo_424" data-name="Grupo 424" transform="translate(0 0)">
          <path id="Caminho_697" data-name="Caminho 697" d="M221.744,141.417c-6.641-6.641-20.537-5.372-26.2-4.518a3.605,3.605,0,0,0-3.08,3.591v4.045a1.756,1.756,0,1,0,3.512,0v-4.046a.116.116,0,0,1,.092-.119,55.477,55.477,0,0,1,11.408-.557c5.476.365,9.442,1.739,11.789,4.086a1.756,1.756,0,0,0,2.483-2.483Z" transform="translate(-192.46 -136.203)" fill="#fff"/>
        </g>
      </g>
      <g id="Grupo_427" data-name="Grupo 427" transform="translate(37.552 145.047)">
        <g id="Grupo_426" data-name="Grupo 426">
          <path id="Caminho_698" data-name="Caminho 698" d="M162.14,396.853a1.756,1.756,0,0,0-1.756,1.756v7.51a1.756,1.756,0,0,0,3.512,0v-7.51A1.756,1.756,0,0,0,162.14,396.853Z" transform="translate(-160.384 -396.853)" fill="#fff"/>
        </g>
      </g>
      <g id="Grupo_429" data-name="Grupo 429" transform="translate(78.858 145.047)">
        <g id="Grupo_428" data-name="Grupo 428">
          <path id="Caminho_699" data-name="Caminho 699" d="M338.562,396.853a1.756,1.756,0,0,0-1.756,1.756v7.51a1.756,1.756,0,0,0,3.512,0v-7.51A1.756,1.756,0,0,0,338.562,396.853Z" transform="translate(-336.806 -396.853)" fill="#fff"/>
        </g>
      </g>
    </g>
  </g>
</svg>
