<svg xmlns="http://www.w3.org/2000/svg" width="79.109" height="79.109" viewBox="0 0 79.109 79.109">
  <g id="newspaper" transform="translate(-1 -1)">
    <path id="Caminho_470" data-name="Caminho 470" d="M78.833,13.76H64.8V2.276A1.275,1.275,0,0,0,63.522,1H2.276A1.275,1.275,0,0,0,1,2.276v68.9a8.943,8.943,0,0,0,8.932,8.932H71.178a8.943,8.943,0,0,0,8.932-8.932V15.036A1.275,1.275,0,0,0,78.833,13.76Zm-68.9,63.8a6.387,6.387,0,0,1-6.38-6.38V3.552H62.246V71.178a8.907,8.907,0,0,0,2.686,6.38Zm67.626-6.38a6.38,6.38,0,0,1-12.76,0V16.311h12.76Z" fill="#fff"/>
    <path id="Caminho_471" data-name="Caminho 471" d="M5,37H30.519v2.552H5Z" transform="translate(1.104 9.934)" fill="#fff"/>
    <path id="Caminho_472" data-name="Caminho 472" d="M5,41H30.519v2.552H5Z" transform="translate(1.104 11.038)" fill="#fff"/>
    <path id="Caminho_473" data-name="Caminho 473" d="M5,45H30.519v2.552H5Z" transform="translate(1.104 12.142)" fill="#fff"/>
    <path id="Caminho_474" data-name="Caminho 474" d="M5,49H30.519v2.552H5Z" transform="translate(1.104 13.246)" fill="#fff"/>
    <path id="Caminho_475" data-name="Caminho 475" d="M29,17H51.967v2.552H29Z" transform="translate(7.727 4.415)" fill="#fff"/>
    <path id="Caminho_476" data-name="Caminho 476" d="M29,21H51.967v2.552H29Z" transform="translate(7.727 5.519)" fill="#fff"/>
    <path id="Caminho_477" data-name="Caminho 477" d="M29,25H51.967v2.552H29Z" transform="translate(7.727 6.623)" fill="#fff"/>
    <path id="Caminho_478" data-name="Caminho 478" d="M29,29H51.967v2.552H29Z" transform="translate(7.727 7.727)" fill="#fff"/>
    <path id="Caminho_479" data-name="Caminho 479" d="M33,41H50.863v2.552H33Z" transform="translate(8.831 11.038)" fill="#fff"/>
    <path id="Caminho_480" data-name="Caminho 480" d="M33,37H50.863v2.552H33Z" transform="translate(8.831 9.934)" fill="#fff"/>
    <path id="Caminho_481" data-name="Caminho 481" d="M33,45H50.863v2.552H33Z" transform="translate(8.831 12.142)" fill="#fff"/>
    <path id="Caminho_482" data-name="Caminho 482" d="M33,49H50.863v2.552H33Z" transform="translate(8.831 13.246)" fill="#fff"/>
    <path id="Caminho_483" data-name="Caminho 483" d="M31.8,5H6.276A1.275,1.275,0,0,0,5,6.276V31.8a1.275,1.275,0,0,0,1.276,1.276H31.8A1.275,1.275,0,0,0,33.071,31.8V6.276A1.275,1.275,0,0,0,31.8,5ZM24.139,30.519H13.932V27.967a5.1,5.1,0,0,1,10.208,0Zm6.38,0H26.691V27.967a7.656,7.656,0,0,0-15.311,0v2.552H7.552V7.552H30.519Z" transform="translate(1.104 1.104)" fill="#fff"/>
    <path id="Caminho_484" data-name="Caminho 484" d="M22.208,14.1a5.1,5.1,0,1,0-5.1,5.1A5.109,5.109,0,0,0,22.208,14.1Zm-5.1,2.552A2.552,2.552,0,1,1,19.656,14.1,2.554,2.554,0,0,1,17.1,16.656Z" transform="translate(3.036 2.208)" fill="#fff"/>
  </g>
</svg>
