<svg xmlns="http://www.w3.org/2000/svg" width="70.765" height="81.821" viewBox="0 0 70.765 81.821">
  <path id="Caminho_469" data-name="Caminho 469" d="M70.5,49.7a1.361,1.361,0,0,0-1.089-.534H59.139a14.793,14.793,0,0,0-11.5-5.443H43.553V38.535a15,15,0,0,0,6.8-12.506V23.852a4.067,4.067,0,0,0,2.722-3.846V13.717l1.361-.433V28.373l-3.888,6.48a1.361,1.361,0,0,0,1.166,2.062h8.165a1.361,1.361,0,0,0,1.166-2.062l-3.888-6.48V12.421L61.653,11a1.361,1.361,0,0,0,.008-2.585L35.866.067a1.349,1.349,0,0,0-.835,0L9.117,8.4a1.361,1.361,0,0,0,0,2.585L17.69,13.7V20a4.063,4.063,0,0,0,2.73,3.851v2.177a15,15,0,0,0,6.8,12.507V43.72H23.141a14.874,14.874,0,0,0-10.583,4.385c-.327.327-.614.7-.909,1.058H1.368A1.36,1.36,0,0,0,.055,50.881L8.22,80.819a1.361,1.361,0,0,0,1.313,1H61.244a1.362,1.362,0,0,0,1.314-1l8.165-29.938A1.365,1.365,0,0,0,70.5,49.7ZM57.48,34.194H54.122l1.679-2.8ZM47.636,46.441a12.106,12.106,0,0,1,7.686,2.722H39.264l3.4-2.722Zm-12.247,2.34-5.443-4.354V39.955a14.738,14.738,0,0,0,10.887,0v4.472Zm.057-46,21.336,6.9-21.336,6.77L14.013,9.687Zm-14.1,18.507A1.362,1.362,0,0,1,20.419,20V14.557l14.618,4.617a1.349,1.349,0,0,0,.817,0l14.5-4.594V20a1.361,1.361,0,0,1-.935,1.294l-1.551.517a39.588,39.588,0,0,1-24.967,0Zm1.793,4.736V24.71a42.154,42.154,0,0,0,12.247,1.843A42.154,42.154,0,0,0,47.636,24.71v1.319a12.3,12.3,0,0,1-6.124,10.606,12.453,12.453,0,0,1-12.247,0A12.3,12.3,0,0,1,23.141,26.029Zm0,20.412h4.966l3.4,2.722H15.451A12.153,12.153,0,0,1,23.141,46.441ZM60.2,79.1H10.573L3.149,51.885H67.627Zm0,0" transform="translate(-0.007 -0.001)" fill="#fff"/>
</svg>
