<svg xmlns="http://www.w3.org/2000/svg" width="82.213" height="82.277" viewBox="0 0 82.213 82.277">
  <g id="contract" transform="translate(0)">
    <g id="Grupo_43" data-name="Grupo 43" transform="translate(0)">
      <g id="Grupo_42" data-name="Grupo 42">
        <path id="Caminho_163" data-name="Caminho 163" d="M78.856,17.7l-1.995-.623a6.316,6.316,0,0,0-1.621-.249,5.361,5.361,0,0,0-4.987,3.615L69.132,23.81V21.193a1.539,1.539,0,0,0-.5-1L48.189.374A1.347,1.347,0,0,0,47.316,0H7.3A1.178,1.178,0,0,0,6.053,1.247V5.111H1.441A1.178,1.178,0,0,0,.194,6.358V81.03a1.178,1.178,0,0,0,1.247,1.247H62.026a1.178,1.178,0,0,0,1.247-1.247V77.166h4.613a1.178,1.178,0,0,0,1.247-1.247V59.09l3.49-4.737.125-.374L82.1,24.184A4.971,4.971,0,0,0,78.856,17.7ZM48.563,4.239,64.893,19.946H48.563ZM60.78,79.784H2.687V7.6H6.053V75.919A1.178,1.178,0,0,0,7.3,77.166H60.78v2.618Zm5.984-5.111H8.546V2.493H46.069v18.7a1.178,1.178,0,0,0,1.247,1.247H66.763v9.35L60.9,50.239v.374l.249,15.832a1.2,1.2,0,0,0,.873,1.122,1.183,1.183,0,0,0,1.371-.5l3.366-4.488V74.673ZM63.522,62.58l-.249-10.347,6.233,1.995ZM79.853,23.436,70.877,51.984l-7.23-2.369,8.976-28.423a2.71,2.71,0,0,1,3.366-1.745l1.995.623A2.635,2.635,0,0,1,79.853,23.436Z" transform="translate(-0.194)" fill="#fff"/>
        <path id="Caminho_164" data-name="Caminho 164" d="M95.558,58.88h17.951a1.178,1.178,0,0,0,1.247-1.247V44.918a1.178,1.178,0,0,0-1.247-1.247H95.558a1.178,1.178,0,0,0-1.247,1.247V57.633A1.341,1.341,0,0,0,95.558,58.88ZM96.8,46.164h15.458V56.386H96.8Z" transform="translate(-78.728 -36.441)" fill="#fff"/>
        <path id="Caminho_165" data-name="Caminho 165" d="M80.5,193.741h37.9a1.247,1.247,0,0,0,0-2.493H80.5a1.247,1.247,0,0,0,0,2.493Z" transform="translate(-66.163 -159.584)" fill="#fff"/>
        <path id="Caminho_166" data-name="Caminho 166" d="M80.5,248.706h37.9a1.247,1.247,0,1,0,0-2.493H80.5a1.247,1.247,0,1,0,0,2.493Z" transform="translate(-66.163 -205.448)" fill="#fff"/>
        <path id="Caminho_167" data-name="Caminho 167" d="M80.5,303.67h37.9a1.247,1.247,0,1,0,0-2.493H80.5a1.247,1.247,0,1,0,0,2.493Z" transform="translate(-66.163 -251.312)" fill="#fff"/>
        <path id="Caminho_168" data-name="Caminho 168" d="M119.519,357.389a1.178,1.178,0,0,0-1.247-1.247H80.5a1.247,1.247,0,1,0,0,2.493h37.9A1.23,1.23,0,0,0,119.519,357.389Z" transform="translate(-66.163 -297.177)" fill="#fff"/>
        <path id="Caminho_169" data-name="Caminho 169" d="M246.147,411.106H227.323a1.247,1.247,0,0,0,0,2.493h18.7a1.178,1.178,0,0,0,1.247-1.247A1.151,1.151,0,0,0,246.147,411.106Z" transform="translate(-188.677 -343.041)" fill="#fff"/>
      </g>
    </g>
  </g>
</svg>
