<svg xmlns="http://www.w3.org/2000/svg" width="536" height="44.152" viewBox="0 0 536 44.152">
  <g id="Grupo_351" data-name="Grupo 351" transform="translate(-654.619 -8229.871)">
    <g id="Grupo_349" data-name="Grupo 349" transform="translate(654.619 8229.871)">
      <path id="Caminho_417" data-name="Caminho 417" d="M14.246,42.306A19.409,19.409,0,0,1,6.7,41.052a9.829,9.829,0,0,1-4.5-3.617A13.205,13.205,0,0,1,.22,31.71a36.121,36.121,0,0,1-.048-7.576L2.21.838Q3.882.613,5.085.525T7.371.44Q8.34.44,9.5.525t2.792.313l-1.934,22.1a43.714,43.714,0,0,0-.2,4.841,9.808,9.808,0,0,0,.542,3.247,3.266,3.266,0,0,0,1.524,1.8,6.092,6.092,0,0,0,2.8.54,6.926,6.926,0,0,0,2.924-.54,4.167,4.167,0,0,0,1.866-1.8A10.632,10.632,0,0,0,20.9,27.78q.374-1.993.624-4.841L23.455.838q1.73-.225,2.9-.313T28.5.44q1.026,0,2.213.085t2.821.313L31.5,24.134a37.99,37.99,0,0,1-1.375,7.576,15.957,15.957,0,0,1-2.978,5.724,12.58,12.58,0,0,1-5.129,3.617,21.147,21.147,0,0,1-7.771,1.254Z" transform="translate(0.002 -0.383)" fill="#fff"/>
      <path id="Caminho_418" data-name="Caminho 418" d="M262.118.455q1.272-.225,2.308-.342a18.711,18.711,0,0,1,2-.114,16.683,16.683,0,0,1,2.123.142q1.1.143,1.882.313L281.7,22.784,283.649.455q1.5-.225,2.708-.342C287.16.039,287.884,0,288.53,0a19.774,19.774,0,0,1,2.041.114q1.071.115,2.248.342L289.2,41.126a14.231,14.231,0,0,1-1.682.341,15.177,15.177,0,0,1-2.35.171,14.747,14.747,0,0,1-2.546-.2c-.749-.133-1.289-.236-1.625-.312L269.675,18.91l-1.944,22.215a23.659,23.659,0,0,1-4.6.512,23.2,23.2,0,0,1-4.57-.512L262.118.455Z" transform="translate(-224.821 0)" fill="#fff"/>
      <path id="Caminho_419" data-name="Caminho 419" d="M547.738,22.214a22.778,22.778,0,0,1-.9,4.443H535.843l-.707,8.088h14.3a20.511,20.511,0,0,1,.134,4.33,22.463,22.463,0,0,1-.907,4.5H524.28L527.863,2.62H551.9q.115,1.253.136,2.336a19.625,19.625,0,0,1-.065,2.05,27.943,27.943,0,0,1-.848,4.5H537.168l-.548,6.266h10.994A22.212,22.212,0,0,1,547.738,22.214Z" transform="translate(-455.868 -2.279)" fill="#fff"/>
      <path id="Caminho_420" data-name="Caminho 420" d="M731.711.555q1.209-.168,2.619-.313t2.6-.142A23.47,23.47,0,0,1,739.4.242q1.325.143,2.451.313l6.233,21.189L758.31.555q1.153-.168,2.334-.313A19.533,19.533,0,0,1,762.964.1,21.624,21.624,0,0,1,765.4.242q1.239.143,2.421.313L766.2,41.226q-.928.168-2.051.341a20.289,20.289,0,0,1-2.949.172,25.571,25.571,0,0,1-4.683-.513l1.266-23.582-7.626,15.55q-1.041.17-2.076.284a17.1,17.1,0,0,1-1.889.114q-.853,0-1.758-.086a13.244,13.244,0,0,1-1.853-.312l-4.241-15.323-2.67,23.355a22.482,22.482,0,0,1-4.6.513,23.815,23.815,0,0,1-4.568-.513l5.21-40.67Z" transform="translate(-631.701 -0.087)" fill="#fff"/>
      <path id="Caminho_421" data-name="Caminho 421" d="M1330.167,11.614h-9.513a21.692,21.692,0,0,1-.12-4.5,23.24,23.24,0,0,1,.9-4.386h29.108q.116,1.253.137,2.334a19.645,19.645,0,0,1-.067,2.051,27.8,27.8,0,0,1-.848,4.5h-9.513l-2.791,31.9a31.932,31.932,0,0,1-5.058.513,29.772,29.772,0,0,1-5.024-.513l2.791-31.9Z" transform="translate(-1148.163 -2.374)" fill="#fff"/>
      <path id="Exclusão_1" data-name="Exclusão 1" d="M0,39.95H0L15.87.4c.981-.112,1.919-.208,2.786-.286S20.4,0,21.256,0c.711,0,1.481.037,2.355.114S25.461.289,26.52.4l8.741,39.446-8.669-1.275-3.3-12.743a5.465,5.465,0,0,0-2.645-1.3h-.015a7.059,7.059,0,0,0-3.3,1.341,33.743,33.743,0,0,0-3.775,2.884L9.62,38.571,0,39.95H0ZM13.084,13.04l4.071,4.587-3.16,8.143,6.671-5.2L23.7,23.171l-1.127-4.563,3.278-3.94-4.027-.488-.9-6.078-1.635,5.617Z" transform="translate(137.043 0.013)" fill="#fff"/>
    </g>
    <g id="Grupo_350" data-name="Grupo 350" transform="translate(882.062 8233.587)">
      <path id="Caminho_422" data-name="Caminho 422" d="M4.95,382.688c.173-.026.347-.045.528-.059s.353-.02.526-.02.343.006.508.02.328.033.486.059L5.566,390.8a13.964,13.964,0,0,0-.237,2.328,2.462,2.462,0,0,0,.506,1.74A2.393,2.393,0,0,0,7.6,395.4a3.382,3.382,0,0,0,1.461-.288,2.656,2.656,0,0,0,1.024-.865,5.1,5.1,0,0,0,.7-1.443,15.09,15.09,0,0,0,.479-2l1.412-8.115c.184-.026.361-.045.528-.059s.339-.02.526-.02c.159,0,.329.006.508.02s.341.033.486.059L13.2,391.3a14.2,14.2,0,0,1-.686,2.546,5.79,5.79,0,0,1-1.114,1.859,4.457,4.457,0,0,1-1.691,1.134,6.711,6.711,0,0,1-2.416.388,4.233,4.233,0,0,1-3.054-.975,4.041,4.041,0,0,1-1-3.024,8.6,8.6,0,0,1,.059-.973c.041-.345.092-.71.159-1.094Z" transform="translate(-0.192 -382.331)" fill="#fff"/>
      <path id="Caminho_423" data-name="Caminho 423" d="M62.7,407.224c.147-.794.263-1.479.349-2.047a10.164,10.164,0,0,0,.129-1.492c0-.173,0-.308-.01-.408a3.5,3.5,0,0,0-.051-.367,4.621,4.621,0,0,1,.479-.061c.173-.014.331-.02.477-.02s.282.006.447.02a3.792,3.792,0,0,1,.449.061,2.712,2.712,0,0,1,.059.367c.014.139.02.322.02.547a4.907,4.907,0,0,1-.049.716c-.033.226-.071.443-.11.657a4.5,4.5,0,0,1,.557-.865,4.59,4.59,0,0,1,.835-.806,4.7,4.7,0,0,1,1.063-.6,3.279,3.279,0,0,1,1.243-.239,2.574,2.574,0,0,1,1.859.637,2.6,2.6,0,0,1,.667,1.967,5.993,5.993,0,0,1-.039.667c-.027.245-.059.481-.1.706l-1.134,6.464c-.159.027-.331.047-.518.061s-.351.02-.5.02-.308-.008-.486-.02a3.77,3.77,0,0,1-.469-.061l1.075-6.125q.059-.321.088-.618c.02-.2.031-.371.031-.516a1.482,1.482,0,0,0-.369-1.134,1.4,1.4,0,0,0-.985-.339,1.957,1.957,0,0,0-1.055.327,3.648,3.648,0,0,0-.973.965,7.238,7.238,0,0,0-.826,1.571,11.385,11.385,0,0,0-.586,2.147l-.657,3.72c-.159.027-.331.047-.518.061s-.351.02-.5.02-.308-.008-.488-.02a3.784,3.784,0,0,1-.467-.061l1.053-5.907Z" transform="translate(-47.147 -398.473)" fill="#fff"/>
      <path id="Caminho_424" data-name="Caminho 424" d="M117.9,384.028a5.762,5.762,0,0,1,.1-1.094,10.7,10.7,0,0,1,.257-1.055c.186-.026.384-.045.6-.059s.4-.02.557-.02.339.008.547.02.394.033.567.059a7.341,7.341,0,0,1-.122,1.106,9.415,9.415,0,0,1-.257,1.043,5.5,5.5,0,0,1-.6.049c-.214.006-.4.01-.557.01s-.326,0-.537-.01A4.286,4.286,0,0,1,117.9,384.028Zm.02,3.679h-1.234a5.567,5.567,0,0,1,.051-.775,3.445,3.445,0,0,1,.208-.8h3.183l-1.791,10.2a3.322,3.322,0,0,1-.508.049q-.288.012-.506.012c-.147,0-.3,0-.459-.012a3.067,3.067,0,0,1-.457-.049Z" transform="translate(-91.167 -381.681)" fill="#fff"/>
      <path id="Caminho_425" data-name="Caminho 425" d="M139.73,403.58c.161-.027.329-.047.508-.061s.355-.02.528-.02c.2,0,.388.006.567.02s.349.033.508.061l1.153,8.194,2.565-5.152a17.429,17.429,0,0,0,.735-1.7,4.306,4.306,0,0,0,.3-1.2v-.139c.173-.027.351-.047.537-.061s.371-.02.557-.02.394.006.586.02.369.033.528.061v.1a2.413,2.413,0,0,1-.1.667,5.792,5.792,0,0,1-.377.906q-1.136,2.168-2.318,4.285t-2.357,4.246a9.485,9.485,0,0,1-1.034.061c-.145,0-.322,0-.528-.012a3.405,3.405,0,0,1-.526-.049Z" transform="translate(-109.914 -399.124)" fill="#fff"/>
      <path id="Caminho_426" data-name="Caminho 426" d="M187.372,407.4a11.34,11.34,0,0,0,1.681-.406,4.523,4.523,0,0,0,1.065-.5,1.667,1.667,0,0,0,.557-.567,1.379,1.379,0,0,0,.159-.657.961.961,0,0,0-.318-.745,1.319,1.319,0,0,0-.916-.288,2.437,2.437,0,0,0-1.173.288,3.635,3.635,0,0,0-.965.755,4.637,4.637,0,0,0-.726,1.075,6.242,6.242,0,0,0-.457,1.243Zm-1.253,1.671a3.127,3.127,0,0,0,.677,2.01,2.47,2.47,0,0,0,1.91.677,5.851,5.851,0,0,0,1.512-.19,12.643,12.643,0,0,0,1.292-.408,2.172,2.172,0,0,1,.259.716,4.465,4.465,0,0,1,.078.835,4.908,4.908,0,0,1-.726.259c-.284.08-.582.149-.894.208s-.628.106-.945.139a8.448,8.448,0,0,1-.875.051,5.6,5.6,0,0,1-1.979-.308,3.419,3.419,0,0,1-1.312-.857,3.267,3.267,0,0,1-.737-1.292,5.481,5.481,0,0,1-.229-1.62,7.335,7.335,0,0,1,.408-2.4,6.817,6.817,0,0,1,1.175-2.118,6.11,6.11,0,0,1,1.83-1.512,4.905,4.905,0,0,1,2.377-.577,3.131,3.131,0,0,1,2.079.645,2.143,2.143,0,0,1,.765,1.722,2.7,2.7,0,0,1-.427,1.522,3.688,3.688,0,0,1-1.183,1.1,7.511,7.511,0,0,1-1.781.757,16.959,16.959,0,0,1-2.238.477Z" transform="translate(-145.622 -398.473)" fill="#fff"/>
      <path id="Caminho_427" data-name="Caminho 427" d="M228.98,413.783q.218-1.253.486-2.646t.5-2.695c.151-.869.282-1.665.388-2.387a12.529,12.529,0,0,0,.159-1.72c0-.173,0-.308-.01-.408a3.505,3.505,0,0,0-.051-.367,3.48,3.48,0,0,1,.479-.051c.171-.006.331-.01.477-.01s.282,0,.447.01a2.928,2.928,0,0,1,.449.051,2.772,2.772,0,0,1,.059.347c.012.125.02.3.02.527a6.714,6.714,0,0,1-.059.894,5.838,5.838,0,0,1,.567-.675,4.271,4.271,0,0,1,.686-.579,3.262,3.262,0,0,1,.834-.408,3.309,3.309,0,0,1,1.016-.149c.106,0,.222.008.347.02a1.485,1.485,0,0,1,.31.061,5.171,5.171,0,0,1-.092.9,2.46,2.46,0,0,1-.306.865c-.055-.012-.137-.026-.249-.039a2.757,2.757,0,0,0-.329-.02,2.711,2.711,0,0,0-2.157.955,6.128,6.128,0,0,0-1.183,2.942l-.816,4.576a5.863,5.863,0,0,1-.816.061h-.5l-.657-.061Z" transform="translate(-181.66 -399.124)" fill="#fff"/>
      <path id="Caminho_428" data-name="Caminho 428" d="M260.632,408.338a6.882,6.882,0,0,1-.635-.3,2.537,2.537,0,0,1-.618-.457,2.293,2.293,0,0,1-.467-.706,2.5,2.5,0,0,1-.188-1.024,2.9,2.9,0,0,1,.3-1.324,2.865,2.865,0,0,1,.835-.994,3.913,3.913,0,0,1,1.283-.626,5.829,5.829,0,0,1,1.659-.22,6.543,6.543,0,0,1,1.553.178,5.262,5.262,0,0,1,1.153.4,4.955,4.955,0,0,1-.577,1.492,6.277,6.277,0,0,0-.935-.327,4.611,4.611,0,0,0-1.273-.171,3.042,3.042,0,0,0-1.422.3,1.072,1.072,0,0,0-.567,1.035,1.127,1.127,0,0,0,.269.765,2.514,2.514,0,0,0,.965.586l.437.2c.251.118.514.245.785.377a3.405,3.405,0,0,1,.737.486,2.366,2.366,0,0,1,.535.7,2.18,2.18,0,0,1,.21,1,3.494,3.494,0,0,1-.359,1.64,3.138,3.138,0,0,1-.985,1.134,4.379,4.379,0,0,1-1.451.667,6.966,6.966,0,0,1-1.781.22,8.772,8.772,0,0,1-1.561-.139,5.746,5.746,0,0,1-1.263-.357,4.946,4.946,0,0,1,.149-.837,2.869,2.869,0,0,1,.329-.755,5.912,5.912,0,0,0,1.212.347,7.129,7.129,0,0,0,1.294.131,4.726,4.726,0,0,0,.934-.09,2.481,2.481,0,0,0,.757-.279,1.443,1.443,0,0,0,.506-.508,1.536,1.536,0,0,0,.188-.794,1.159,1.159,0,0,0-.357-.926,3.564,3.564,0,0,0-1.014-.567Z" transform="translate(-204.402 -398.473)" fill="#fff"/>
      <path id="Caminho_429" data-name="Caminho 429" d="M303.691,384.028a5.763,5.763,0,0,1,.1-1.094q.1-.518.259-1.055c.184-.026.384-.045.6-.059s.4-.02.557-.02.341.008.547.02.394.033.567.059a7.346,7.346,0,0,1-.12,1.106,9.869,9.869,0,0,1-.259,1.043,5.461,5.461,0,0,1-.6.049c-.212.006-.4.01-.557.01s-.326,0-.537-.01A4.321,4.321,0,0,1,303.691,384.028Zm.02,3.679h-1.232a5.891,5.891,0,0,1,.049-.775,3.548,3.548,0,0,1,.208-.8h3.183l-1.791,10.2a3.294,3.294,0,0,1-.506.049c-.192.008-.361.012-.508.012s-.3,0-.457-.012a3.066,3.066,0,0,1-.457-.049Z" transform="translate(-240.52 -381.681)" fill="#fff"/>
      <path id="Caminho_430" data-name="Caminho 430" d="M331.319,387.156a3.137,3.137,0,0,0-.5-.078c-.173-.014-.365-.02-.577-.02a3.464,3.464,0,0,0-1.781.457,4.479,4.479,0,0,0-1.351,1.224,5.731,5.731,0,0,0-.867,1.73,6.685,6.685,0,0,0-.3,1.979,2.735,2.735,0,0,0,.339,1.481,1.121,1.121,0,0,0,1.014.528,2.064,2.064,0,0,0,1.192-.4,4.068,4.068,0,0,0,1.055-1.1,8.07,8.07,0,0,0,.836-1.651,11.877,11.877,0,0,0,.557-2.018Zm1.153,4.356q-.221,1.194-.339,2.049a11.133,11.133,0,0,0-.118,1.491v.408a2.019,2.019,0,0,0,.039.369,4.145,4.145,0,0,1-.467.059c-.167.014-.324.022-.469.022s-.3-.008-.457-.022a3.379,3.379,0,0,1-.437-.059q-.041-.159-.071-.347a3.649,3.649,0,0,1-.029-.528,6.645,6.645,0,0,1,.049-.667,5.448,5.448,0,0,1,.149-.786,6.512,6.512,0,0,1-.6.9,4.878,4.878,0,0,1-.835.835,4.353,4.353,0,0,1-1.063.616,3.328,3.328,0,0,1-1.263.239,2.369,2.369,0,0,1-1.989-.865,3.731,3.731,0,0,1-.677-2.357,8.832,8.832,0,0,1,.437-2.755,7.267,7.267,0,0,1,1.292-2.387,6.411,6.411,0,0,1,2.138-1.679,6.545,6.545,0,0,1,2.954-.637c.147,0,.3.006.457.02s.292.028.4.039q.221-1.153.339-1.989a10.709,10.709,0,0,0,.118-1.471v-.4c0-.092-.006-.206-.018-.337a4.49,4.49,0,0,1,.526-.061c.206-.014.38-.02.528-.02.131,0,.282,0,.447.01a3.139,3.139,0,0,1,.447.049,5.1,5.1,0,0,1,.061.737,10.032,10.032,0,0,1-.09,1.173c-.059.477-.129.935-.208,1.373l-1.253,6.98Z" transform="translate(-257.964 -381.19)" fill="#fff"/>
      <path id="Caminho_431" data-name="Caminho 431" d="M382.119,404.439a3.127,3.127,0,0,0-.5-.078c-.175-.014-.367-.02-.579-.02a3.458,3.458,0,0,0-1.779.457,4.51,4.51,0,0,0-1.353,1.224,5.678,5.678,0,0,0-.865,1.73,6.684,6.684,0,0,0-.3,1.979,2.736,2.736,0,0,0,.337,1.481,1.125,1.125,0,0,0,1.016.528,2.064,2.064,0,0,0,1.192-.4,4.127,4.127,0,0,0,1.055-1.1,7.678,7.678,0,0,0,.824-1.651,12.066,12.066,0,0,0,.547-2.018Zm1.134,4.356c-.145.8-.263,1.479-.347,2.049a10.139,10.139,0,0,0-.129,1.491c0,.173,0,.31.01.408a3.391,3.391,0,0,0,.049.369,4.051,4.051,0,0,1-.477.059c-.173.014-.331.022-.479.022-.131,0-.278-.008-.437-.022a4.1,4.1,0,0,1-.457-.059,4.055,4.055,0,0,1-.059-.447c-.014-.153-.022-.341-.022-.567a4.849,4.849,0,0,1,.051-.6c.033-.253.069-.479.11-.677a5.116,5.116,0,0,1-.579.885,5.006,5.006,0,0,1-.826.816,4.305,4.305,0,0,1-1.053.606,3.32,3.32,0,0,1-1.263.239,2.345,2.345,0,0,1-1.979-.865,3.766,3.766,0,0,1-.667-2.357,8.888,8.888,0,0,1,.437-2.755,7.307,7.307,0,0,1,1.294-2.387,6.412,6.412,0,0,1,2.128-1.679,6.524,6.524,0,0,1,2.963-.637,9.724,9.724,0,0,1,1.441.11,6.764,6.764,0,0,1,1.283.308l-.994,5.688Z" transform="translate(-298.801 -398.473)" fill="#fff"/>
      <path id="Caminho_432" data-name="Caminho 432" d="M433.337,387.156a3.113,3.113,0,0,0-.5-.078c-.173-.014-.365-.02-.577-.02a3.464,3.464,0,0,0-1.781.457,4.51,4.51,0,0,0-1.353,1.224,5.772,5.772,0,0,0-.865,1.73,6.684,6.684,0,0,0-.3,1.979,2.735,2.735,0,0,0,.337,1.481,1.124,1.124,0,0,0,1.016.528,2.065,2.065,0,0,0,1.192-.4,4.128,4.128,0,0,0,1.055-1.1,8.07,8.07,0,0,0,.835-1.651,11.877,11.877,0,0,0,.557-2.018Zm1.153,4.356q-.218,1.194-.337,2.049a10.847,10.847,0,0,0-.12,1.491v.408a2.208,2.208,0,0,0,.039.369,4.033,4.033,0,0,1-.467.059c-.165.014-.322.022-.467.022s-.3-.008-.457-.022a3.458,3.458,0,0,1-.439-.059c-.026-.106-.049-.222-.069-.347a3.654,3.654,0,0,1-.029-.528,6.1,6.1,0,0,1,.049-.667,5.194,5.194,0,0,1,.149-.786,6.514,6.514,0,0,1-.6.9,4.949,4.949,0,0,1-.836.835,4.353,4.353,0,0,1-1.063.616,3.339,3.339,0,0,1-1.265.239,2.371,2.371,0,0,1-1.989-.865,3.731,3.731,0,0,1-.675-2.357,8.832,8.832,0,0,1,.437-2.755,7.266,7.266,0,0,1,1.293-2.387,6.391,6.391,0,0,1,2.138-1.679,6.545,6.545,0,0,1,2.954-.637c.145,0,.3.006.457.02s.292.028.4.039q.218-1.153.339-1.989a10.7,10.7,0,0,0,.118-1.471v-.4a3.314,3.314,0,0,0-.02-.337,4.529,4.529,0,0,1,.528-.061c.206-.014.38-.02.528-.02.131,0,.28,0,.447.01a3.206,3.206,0,0,1,.447.049,5.085,5.085,0,0,1,.059.737,9.97,9.97,0,0,1-.088,1.173c-.061.477-.13.935-.21,1.373l-1.253,6.98Z" transform="translate(-339.976 -381.19)" fill="#fff"/>
      <path id="Caminho_433" data-name="Caminho 433" d="M480.452,407.4a11.4,11.4,0,0,0,1.681-.406,4.542,4.542,0,0,0,1.063-.5,1.668,1.668,0,0,0,.557-.567,1.379,1.379,0,0,0,.159-.657.961.961,0,0,0-.318-.745,1.317,1.317,0,0,0-.914-.288,2.445,2.445,0,0,0-1.175.288,3.7,3.7,0,0,0-.965.755,4.637,4.637,0,0,0-.726,1.075,6.244,6.244,0,0,0-.457,1.243Zm-1.253,1.671a3.105,3.105,0,0,0,.677,2.01,2.465,2.465,0,0,0,1.908.677,5.829,5.829,0,0,0,1.512-.19,12.648,12.648,0,0,0,1.292-.408,2.172,2.172,0,0,1,.259.716,4.471,4.471,0,0,1,.08.835,4.941,4.941,0,0,1-.728.259c-.284.08-.582.149-.894.208s-.626.106-.945.139a8.449,8.449,0,0,1-.875.051,5.6,5.6,0,0,1-1.979-.308,3.418,3.418,0,0,1-1.312-.857,3.266,3.266,0,0,1-.737-1.292,5.481,5.481,0,0,1-.228-1.62,7.283,7.283,0,0,1,.408-2.4,6.812,6.812,0,0,1,1.173-2.118,6.111,6.111,0,0,1,1.83-1.512,4.911,4.911,0,0,1,2.377-.577,3.131,3.131,0,0,1,2.079.645,2.143,2.143,0,0,1,.765,1.722,2.7,2.7,0,0,1-.428,1.522,3.647,3.647,0,0,1-1.183,1.1,7.474,7.474,0,0,1-1.781.757,16.957,16.957,0,0,1-2.238.477Z" transform="translate(-381.223 -398.473)" fill="#fff"/>
      <path id="Caminho_434" data-name="Caminho 434" d="M547.419,387.156a3.1,3.1,0,0,0-.5-.078c-.173-.014-.365-.02-.577-.02a3.452,3.452,0,0,0-1.779.457,4.486,4.486,0,0,0-1.353,1.224,5.68,5.68,0,0,0-.865,1.73,6.62,6.62,0,0,0-.3,1.979,2.736,2.736,0,0,0,.337,1.481,1.121,1.121,0,0,0,1.014.528,2.066,2.066,0,0,0,1.194-.4,4.094,4.094,0,0,0,1.053-1.1,8.068,8.068,0,0,0,.835-1.651,11.713,11.713,0,0,0,.557-2.018Zm1.153,4.356q-.218,1.194-.337,2.049a10.834,10.834,0,0,0-.12,1.491v.408a2.024,2.024,0,0,0,.039.369,4.087,4.087,0,0,1-.467.059c-.167.014-.322.022-.469.022s-.3-.008-.457-.022a3.426,3.426,0,0,1-.437-.059c-.027-.106-.049-.222-.07-.347a3.645,3.645,0,0,1-.029-.528,6.208,6.208,0,0,1,.051-.667,4.953,4.953,0,0,1,.149-.786,6.537,6.537,0,0,1-.6.9,4.865,4.865,0,0,1-.833.835,4.406,4.406,0,0,1-1.065.616,3.329,3.329,0,0,1-1.263.239,2.372,2.372,0,0,1-1.989-.865,3.731,3.731,0,0,1-.677-2.357,8.83,8.83,0,0,1,.437-2.755,7.3,7.3,0,0,1,1.294-2.387,6.389,6.389,0,0,1,2.138-1.679,6.544,6.544,0,0,1,2.953-.637c.145,0,.3.006.457.02s.292.028.4.039q.218-1.153.337-1.989a10.435,10.435,0,0,0,.12-1.471v-.4c0-.092-.008-.206-.02-.337a4.531,4.531,0,0,1,.528-.061c.2-.014.38-.02.526-.02s.282,0,.447.01a3.2,3.2,0,0,1,.449.049,5.085,5.085,0,0,1,.059.737,9.632,9.632,0,0,1-.09,1.173c-.059.477-.129.935-.208,1.373Z" transform="translate(-431.682 -381.19)" fill="#fff"/>
      <path id="Caminho_435" data-name="Caminho 435" d="M595.438,411.8a2.574,2.574,0,0,0,1.6-.508,3.918,3.918,0,0,0,1.083-1.283,6.4,6.4,0,0,0,.618-1.681,7.9,7.9,0,0,0,.2-1.7,2.6,2.6,0,0,0-.506-1.73,1.791,1.791,0,0,0-1.441-.6,2.493,2.493,0,0,0-1.593.518,4.112,4.112,0,0,0-1.073,1.292,6.265,6.265,0,0,0-.608,1.681,8.29,8.29,0,0,0-.188,1.681,2.681,2.681,0,0,0,.486,1.73A1.733,1.733,0,0,0,595.438,411.8Zm-.2,1.571a3.579,3.579,0,0,1-2.785-1.026,4.132,4.132,0,0,1-.934-2.893,8.477,8.477,0,0,1,.337-2.3,7.006,7.006,0,0,1,1.043-2.189,5.98,5.98,0,0,1,1.771-1.632,4.765,4.765,0,0,1,2.516-.645,3.591,3.591,0,0,1,2.8,1.036,4.169,4.169,0,0,1,.936,2.9,8.43,8.43,0,0,1-.339,2.306,7.121,7.121,0,0,1-1.034,2.179,5.706,5.706,0,0,1-1.771,1.62A4.891,4.891,0,0,1,595.238,413.371Z" transform="translate(-473.098 -398.473)" fill="#fff"/>
      <path id="Caminho_436" data-name="Caminho 436" d="M663.486,383.01h7.578a5.317,5.317,0,0,1-.318,1.791h-5.531l-.716,4.077h4.417a5.163,5.163,0,0,1-.32,1.791h-4.415q-.221,1.233-.427,2.436c-.139.8-.282,1.614-.428,2.438h5.688c-.039.343-.073.643-.1.894a3.867,3.867,0,0,1-.22.875H660.98l2.506-14.3Z" transform="translate(-528.936 -382.653)" fill="#fff"/>
      <path id="Caminho_437" data-name="Caminho 437" d="M707.649,408.338a6.864,6.864,0,0,1-.635-.3,2.526,2.526,0,0,1-.616-.457,2.3,2.3,0,0,1-.469-.706,2.532,2.532,0,0,1-.188-1.024,2.894,2.894,0,0,1,.3-1.324,2.863,2.863,0,0,1,.835-.994,3.93,3.93,0,0,1,1.283-.626,5.851,5.851,0,0,1,1.661-.22,6.525,6.525,0,0,1,1.551.178,5.262,5.262,0,0,1,1.153.4,4.9,4.9,0,0,1-.577,1.492,6.275,6.275,0,0,0-.935-.327,4.6,4.6,0,0,0-1.273-.171,3.047,3.047,0,0,0-1.422.3,1.075,1.075,0,0,0-.567,1.035,1.127,1.127,0,0,0,.269.765,2.515,2.515,0,0,0,.965.586l.437.2c.251.118.514.245.786.377a3.44,3.44,0,0,1,.735.486,2.369,2.369,0,0,1,.537.7,2.181,2.181,0,0,1,.208,1,3.493,3.493,0,0,1-.359,1.64,3.118,3.118,0,0,1-.984,1.134,4.341,4.341,0,0,1-1.451.667,6.949,6.949,0,0,1-1.779.22,8.793,8.793,0,0,1-1.563-.139,5.693,5.693,0,0,1-1.261-.357,4.773,4.773,0,0,1,.149-.837,2.866,2.866,0,0,1,.328-.755,5.95,5.95,0,0,0,1.212.347,7.132,7.132,0,0,0,1.294.131,4.7,4.7,0,0,0,.934-.09,2.463,2.463,0,0,0,.757-.279,1.426,1.426,0,0,0,.506-.508,1.518,1.518,0,0,0,.19-.794,1.154,1.154,0,0,0-.359-.926,3.563,3.563,0,0,0-1.014-.567Z" transform="translate(-563.752 -398.473)" fill="#fff"/>
      <path id="Caminho_438" data-name="Caminho 438" d="M749.4,393.656h-1.61a4.859,4.859,0,0,1,.059-.767,4.569,4.569,0,0,1,.22-.8h1.591q.1-.518.178-1.055a7.574,7.574,0,0,0,.08-1.114V389.6a3.557,3.557,0,0,1,.955-.3,5.511,5.511,0,0,1,.955-.1q.018.179.029.359c.006.12.01.245.01.378a9.218,9.218,0,0,1-.159,1.53l-.12.618h2.565a5.107,5.107,0,0,1-.059.8,4.729,4.729,0,0,1-.2.767H751.35l-.775,4.315c-.067.306-.128.622-.18.945a5.554,5.554,0,0,0-.078.886.969.969,0,0,0,.308.826,1.365,1.365,0,0,0,.826.227,3.482,3.482,0,0,0,.616-.049,5.1,5.1,0,0,0,.557-.131,3.561,3.561,0,0,1,.1.439,3.275,3.275,0,0,1,.039.518v.288a2.4,2.4,0,0,1-.02.308,5.672,5.672,0,0,1-1.571.218,7.05,7.05,0,0,1-1.163-.088,2.347,2.347,0,0,1-.906-.339,1.665,1.665,0,0,1-.586-.675,2.585,2.585,0,0,1-.208-1.126,4.931,4.931,0,0,1,.069-.8c.047-.284.1-.581.149-.886Z" transform="translate(-598.721 -387.629)" fill="#fff"/>
      <path id="Caminho_439" data-name="Caminho 439" d="M784.817,404.439a3.1,3.1,0,0,0-.494-.078c-.175-.014-.367-.02-.579-.02a3.47,3.47,0,0,0-1.781.457,4.5,4.5,0,0,0-1.351,1.224,5.681,5.681,0,0,0-.865,1.73,6.619,6.619,0,0,0-.3,1.979,2.736,2.736,0,0,0,.337,1.481,1.121,1.121,0,0,0,1.014.528,2.07,2.07,0,0,0,1.194-.4,4.092,4.092,0,0,0,1.053-1.1,7.685,7.685,0,0,0,.826-1.651,12.452,12.452,0,0,0,.547-2.018Zm1.136,4.356q-.22,1.194-.349,2.049a10.13,10.13,0,0,0-.129,1.491c0,.173,0,.31.01.408a3.461,3.461,0,0,0,.051.369,4.142,4.142,0,0,1-.479.059c-.171.014-.33.022-.477.022s-.278-.008-.437-.022a4.1,4.1,0,0,1-.457-.059c-.027-.145-.047-.294-.061-.447s-.02-.341-.02-.567a4.489,4.489,0,0,1,.051-.6c.031-.253.069-.479.108-.677a4.983,4.983,0,0,1-.577.885,5.083,5.083,0,0,1-.826.816,4.306,4.306,0,0,1-1.053.606,3.327,3.327,0,0,1-1.263.239,2.34,2.34,0,0,1-1.979-.865,3.766,3.766,0,0,1-.667-2.357,8.833,8.833,0,0,1,.437-2.755,7.342,7.342,0,0,1,1.292-2.387,6.452,6.452,0,0,1,2.128-1.679,6.538,6.538,0,0,1,2.965-.637,9.681,9.681,0,0,1,1.44.11,6.826,6.826,0,0,1,1.284.308Z" transform="translate(-622.523 -398.473)" fill="#fff"/>
      <path id="Caminho_440" data-name="Caminho 440" d="M836.029,387.156a3.1,3.1,0,0,0-.5-.078c-.173-.014-.365-.02-.575-.02a3.472,3.472,0,0,0-1.783.457,4.527,4.527,0,0,0-1.351,1.224,5.679,5.679,0,0,0-.865,1.73,6.687,6.687,0,0,0-.3,1.979,2.735,2.735,0,0,0,.337,1.481,1.124,1.124,0,0,0,1.016.528,2.065,2.065,0,0,0,1.192-.4,4.1,4.1,0,0,0,1.053-1.1,7.873,7.873,0,0,0,.835-1.651,11.718,11.718,0,0,0,.557-2.018Zm1.153,4.356c-.145.8-.259,1.479-.337,2.049a10.871,10.871,0,0,0-.12,1.491v.408a2.01,2.01,0,0,0,.039.369,4.094,4.094,0,0,1-.467.059c-.167.014-.322.022-.467.022s-.3-.008-.457-.022a3.409,3.409,0,0,1-.439-.059c-.026-.106-.049-.222-.069-.347a3.6,3.6,0,0,1-.031-.528,6.227,6.227,0,0,1,.051-.667,4.946,4.946,0,0,1,.149-.786,6.548,6.548,0,0,1-.6.9,4.872,4.872,0,0,1-.834.835,4.367,4.367,0,0,1-1.065.616,3.322,3.322,0,0,1-1.263.239,2.371,2.371,0,0,1-1.989-.865,3.731,3.731,0,0,1-.677-2.357,8.832,8.832,0,0,1,.439-2.755,7.265,7.265,0,0,1,1.292-2.387,6.39,6.39,0,0,1,2.138-1.679,6.545,6.545,0,0,1,2.954-.637c.145,0,.3.006.457.02s.292.028.4.039q.218-1.153.339-1.989a11.012,11.012,0,0,0,.118-1.471v-.4c0-.092-.008-.206-.02-.337a4.525,4.525,0,0,1,.527-.061c.2-.014.38-.02.528-.02.131,0,.281,0,.447.01a3.207,3.207,0,0,1,.447.049,5.077,5.077,0,0,1,.059.737,9.612,9.612,0,0,1-.09,1.173c-.059.477-.127.935-.208,1.373l-1.253,6.98Z" transform="translate(-663.69 -381.19)" fill="#fff"/>
      <path id="Caminho_441" data-name="Caminho 441" d="M884.049,411.8a2.566,2.566,0,0,0,1.6-.508,3.922,3.922,0,0,0,1.085-1.283,6.47,6.47,0,0,0,.618-1.681,8.019,8.019,0,0,0,.2-1.7,2.6,2.6,0,0,0-.506-1.73,1.785,1.785,0,0,0-1.441-.6,2.487,2.487,0,0,0-1.59.518,4.065,4.065,0,0,0-1.075,1.292,6.2,6.2,0,0,0-.606,1.681,8.167,8.167,0,0,0-.19,1.681,2.669,2.669,0,0,0,.488,1.73A1.729,1.729,0,0,0,884.049,411.8Zm-.2,1.571a3.575,3.575,0,0,1-2.783-1.026,4.133,4.133,0,0,1-.935-2.893,8.482,8.482,0,0,1,.337-2.3,6.965,6.965,0,0,1,1.045-2.189,6,6,0,0,1,1.769-1.632,4.765,4.765,0,0,1,2.516-.645,3.588,3.588,0,0,1,2.8,1.036,4.169,4.169,0,0,1,.936,2.9,8.434,8.434,0,0,1-.339,2.306,7.126,7.126,0,0,1-1.034,2.179,5.662,5.662,0,0,1-1.771,1.62A4.886,4.886,0,0,1,883.848,413.371Z" transform="translate(-705.106 -398.473)" fill="#fff"/>
      <path id="Caminho_442" data-name="Caminho 442" d="M956.107,387.156a3.1,3.1,0,0,0-.5-.078c-.173-.014-.363-.02-.575-.02a3.459,3.459,0,0,0-1.781.457,4.509,4.509,0,0,0-1.353,1.224,5.682,5.682,0,0,0-.865,1.73,6.622,6.622,0,0,0-.3,1.979,2.737,2.737,0,0,0,.337,1.481,1.121,1.121,0,0,0,1.014.528,2.07,2.07,0,0,0,1.194-.4,4.127,4.127,0,0,0,1.055-1.1,7.963,7.963,0,0,0,.833-1.651,11.529,11.529,0,0,0,.557-2.018Zm1.153,4.356c-.147.8-.257,1.479-.337,2.049a10.841,10.841,0,0,0-.12,1.491v.408a2.214,2.214,0,0,0,.039.369,4.085,4.085,0,0,1-.467.059c-.167.014-.322.022-.467.022s-.3-.008-.459-.022a3.425,3.425,0,0,1-.437-.059q-.038-.159-.071-.347a4.037,4.037,0,0,1-.027-.528,6.083,6.083,0,0,1,.049-.667,5.146,5.146,0,0,1,.149-.786,6.7,6.7,0,0,1-.6.9,4.955,4.955,0,0,1-.836.835,4.365,4.365,0,0,1-1.065.616,3.32,3.32,0,0,1-1.263.239,2.372,2.372,0,0,1-1.989-.865,3.731,3.731,0,0,1-.675-2.357,8.83,8.83,0,0,1,.435-2.755,7.3,7.3,0,0,1,1.294-2.387,6.389,6.389,0,0,1,2.138-1.679,6.544,6.544,0,0,1,2.953-.637c.145,0,.3.006.457.02s.29.028.4.039c.145-.769.259-1.432.337-1.989a10.427,10.427,0,0,0,.12-1.471v-.4a3.322,3.322,0,0,0-.02-.337,4.529,4.529,0,0,1,.528-.061c.206-.014.38-.02.526-.02s.282,0,.447.01a3.2,3.2,0,0,1,.449.049,5.069,5.069,0,0,1,.059.737,9.62,9.62,0,0,1-.09,1.173c-.059.477-.129.935-.208,1.373Z" transform="translate(-760.22 -381.19)" fill="#fff"/>
      <path id="Caminho_443" data-name="Caminho 443" d="M1003.22,407.4A11.434,11.434,0,0,0,1004.9,407a4.542,4.542,0,0,0,1.063-.5,1.666,1.666,0,0,0,.557-.567,1.378,1.378,0,0,0,.159-.657.961.961,0,0,0-.318-.745,1.322,1.322,0,0,0-.916-.288,2.443,2.443,0,0,0-1.173.288,3.634,3.634,0,0,0-.965.755,4.637,4.637,0,0,0-.726,1.075,6.237,6.237,0,0,0-.457,1.243Zm-1.253,1.671a3.127,3.127,0,0,0,.677,2.01,2.467,2.467,0,0,0,1.91.677,5.84,5.84,0,0,0,1.512-.19,12.627,12.627,0,0,0,1.292-.408,2.167,2.167,0,0,1,.257.716,4.3,4.3,0,0,1,.08.835,4.822,4.822,0,0,1-.726.259c-.284.08-.582.149-.9.208s-.625.106-.943.139a8.48,8.48,0,0,1-.875.051,5.6,5.6,0,0,1-1.979-.308,3.419,3.419,0,0,1-1.312-.857,3.266,3.266,0,0,1-.737-1.292,5.482,5.482,0,0,1-.228-1.62,7.333,7.333,0,0,1,.406-2.4,6.819,6.819,0,0,1,1.175-2.118,6.108,6.108,0,0,1,1.83-1.512,4.905,4.905,0,0,1,2.377-.577,3.131,3.131,0,0,1,2.079.645,2.143,2.143,0,0,1,.765,1.722,2.7,2.7,0,0,1-.427,1.522,3.635,3.635,0,0,1-1.185,1.1,7.427,7.427,0,0,1-1.779.757,16.964,16.964,0,0,1-2.238.477Z" transform="translate(-801.467 -398.473)" fill="#fff"/>
      <path id="Caminho_444" data-name="Caminho 444" d="M1065.612,382.688c.171-.026.361-.045.567-.059s.4-.02.586-.02.365.006.537.02.337.033.5.059l1.948,8.851,5.072-8.851a5.087,5.087,0,0,1,.518-.059c.2-.014.392-.02.577-.02s.371.006.557.02.351.033.5.059l-1.828,14.3c-.175.028-.343.047-.508.061s-.335.02-.506.02c-.188,0-.359-.008-.52-.02a3.833,3.833,0,0,1-.437-.061l1.473-10.879-4.575,7.915a6.46,6.46,0,0,1-.816.059,5.021,5.021,0,0,1-.775-.059l-1.791-7.955-2.326,10.918c-.147.028-.3.047-.457.061s-.326.02-.5.02-.32-.008-.477-.02a4.491,4.491,0,0,1-.457-.061Z" transform="translate(-851.685 -382.331)" fill="#fff"/>
      <path id="Caminho_445" data-name="Caminho 445" d="M1146.249,404.439a3.152,3.152,0,0,0-.5-.078c-.172-.014-.365-.02-.577-.02a3.465,3.465,0,0,0-1.781.457,4.511,4.511,0,0,0-1.353,1.224,5.764,5.764,0,0,0-.865,1.73,6.682,6.682,0,0,0-.3,1.979,2.718,2.718,0,0,0,.337,1.481,1.121,1.121,0,0,0,1.014.528,2.064,2.064,0,0,0,1.192-.4,4.1,4.1,0,0,0,1.055-1.1,7.672,7.672,0,0,0,.824-1.651,12.244,12.244,0,0,0,.549-2.018Zm1.134,4.356q-.22,1.194-.349,2.049a10.123,10.123,0,0,0-.13,1.491c0,.173,0,.31.01.408a3.414,3.414,0,0,0,.051.369,4.144,4.144,0,0,1-.479.059c-.173.014-.331.022-.477.022s-.278-.008-.437-.022a4.205,4.205,0,0,1-.459-.059q-.038-.218-.059-.447c-.014-.153-.02-.341-.02-.567a4.752,4.752,0,0,1,.049-.6c.033-.253.071-.479.11-.677a4.891,4.891,0,0,1-.578.885,4.985,4.985,0,0,1-.824.816,4.316,4.316,0,0,1-1.055.606,3.318,3.318,0,0,1-1.261.239,2.348,2.348,0,0,1-1.981-.865,3.778,3.778,0,0,1-.665-2.357,8.83,8.83,0,0,1,.437-2.755,7.265,7.265,0,0,1,1.292-2.387,6.431,6.431,0,0,1,2.128-1.679,6.525,6.525,0,0,1,2.964-.637,9.752,9.752,0,0,1,1.443.11,6.848,6.848,0,0,1,1.283.308l-.994,5.688Z" transform="translate(-913.069 -398.473)" fill="#fff"/>
      <path id="Caminho_446" data-name="Caminho 446" d="M1192.36,393.656h-1.61a4.881,4.881,0,0,1,.059-.767,4.581,4.581,0,0,1,.22-.8h1.59q.1-.518.178-1.055a7.574,7.574,0,0,0,.081-1.114V389.6a3.554,3.554,0,0,1,.955-.3,5.507,5.507,0,0,1,.955-.1q.018.179.029.359c.006.12.01.245.01.378a9.249,9.249,0,0,1-.159,1.53l-.12.618h2.567a5.1,5.1,0,0,1-.061.8,4.514,4.514,0,0,1-.2.767h-2.546l-.775,4.315c-.067.306-.127.622-.179.945a5.558,5.558,0,0,0-.08.886.969.969,0,0,0,.308.826,1.361,1.361,0,0,0,.826.227,3.48,3.48,0,0,0,.616-.049,5.364,5.364,0,0,0,.559-.131c.037.133.07.28.1.439a3.04,3.04,0,0,1,.039.518v.288a2.371,2.371,0,0,1-.02.308,5.674,5.674,0,0,1-1.571.218,7.069,7.069,0,0,1-1.163-.088,2.358,2.358,0,0,1-.906-.339,1.668,1.668,0,0,1-.587-.675,2.586,2.586,0,0,1-.209-1.126,4.948,4.948,0,0,1,.07-.8c.047-.284.1-.581.149-.886Z" transform="translate(-954.807 -387.629)" fill="#fff"/>
      <path id="Caminho_447" data-name="Caminho 447" d="M1224.989,411.8a2.567,2.567,0,0,0,1.6-.508,3.924,3.924,0,0,0,1.084-1.283,6.469,6.469,0,0,0,.618-1.681,8.012,8.012,0,0,0,.2-1.7,2.6,2.6,0,0,0-.508-1.73,1.786,1.786,0,0,0-1.442-.6,2.5,2.5,0,0,0-1.592.518,4.136,4.136,0,0,0-1.073,1.292,6.2,6.2,0,0,0-.606,1.681,8.282,8.282,0,0,0-.19,1.681,2.671,2.671,0,0,0,.488,1.73A1.727,1.727,0,0,0,1224.989,411.8Zm-.2,1.571a3.579,3.579,0,0,1-2.785-1.026,4.132,4.132,0,0,1-.936-2.893,8.478,8.478,0,0,1,.338-2.3,6.959,6.959,0,0,1,1.045-2.189,5.979,5.979,0,0,1,1.771-1.632,4.758,4.758,0,0,1,2.514-.645,3.593,3.593,0,0,1,2.806,1.036,4.177,4.177,0,0,1,.934,2.9,8.435,8.435,0,0,1-.339,2.306,7.076,7.076,0,0,1-1.034,2.179,5.7,5.7,0,0,1-1.769,1.62A4.891,4.891,0,0,1,1224.791,413.371Z" transform="translate(-979.18 -398.473)" fill="#fff"/>
      <path id="Caminho_448" data-name="Caminho 448" d="M1301.281,388.96c.159-.027.328-.047.506-.061s.349-.02.508-.02c.186,0,.361.008.528.02s.328.033.486.061q-.318,1.75-.626,3.469t-.608,3.471a8.641,8.641,0,0,1-1.869.5,13.244,13.244,0,0,1-2.108.178,6.289,6.289,0,0,1-2.306-.4,4.69,4.69,0,0,1-1.71-1.124,4.753,4.753,0,0,1-1.055-1.751,6.771,6.771,0,0,1-.357-2.257,12.417,12.417,0,0,1,.486-3.5,8.887,8.887,0,0,1,1.473-2.953,7.025,7.025,0,0,1,5.837-2.795,8.745,8.745,0,0,1,1.761.159,6.89,6.89,0,0,1,1.283.379,7.707,7.707,0,0,1-.229.836,5.029,5.029,0,0,1-.388.833,5.94,5.94,0,0,0-1.114-.318,7.391,7.391,0,0,0-1.292-.1,4.968,4.968,0,0,0-2.536.616,5.231,5.231,0,0,0-1.75,1.642,7.356,7.356,0,0,0-1.016,2.336,11.168,11.168,0,0,0-.328,2.7,4.005,4.005,0,0,0,.955,2.944,3.57,3.57,0,0,0,2.646.955,7.183,7.183,0,0,0,.985-.069,3.829,3.829,0,0,0,.845-.21Z" transform="translate(-1036.738 -381.681)" fill="#fff"/>
      <path id="Caminho_449" data-name="Caminho 449" d="M1350.98,413.783q.218-1.253.486-2.646t.5-2.695q.226-1.3.386-2.387a12.549,12.549,0,0,0,.161-1.72c0-.173,0-.308-.012-.408a3.059,3.059,0,0,0-.049-.367,3.481,3.481,0,0,1,.479-.051c.172-.006.33-.01.477-.01.131,0,.282,0,.447.01a2.9,2.9,0,0,1,.447.051,2.455,2.455,0,0,1,.061.347,5.275,5.275,0,0,1,.02.527,6.389,6.389,0,0,1-.061.894,5.666,5.666,0,0,1,.569-.675,4.336,4.336,0,0,1,.685-.579,3.253,3.253,0,0,1,.837-.408,3.286,3.286,0,0,1,1.014-.149c.1,0,.22.008.347.02a1.437,1.437,0,0,1,.308.061,5.141,5.141,0,0,1-.09.9,2.423,2.423,0,0,1-.308.865c-.053-.012-.135-.026-.247-.039a2.9,2.9,0,0,0-2.487.936,6.15,6.15,0,0,0-1.185,2.942l-.814,4.576a5.86,5.86,0,0,1-.816.061h-.5Z" transform="translate(-1083.612 -399.124)" fill="#fff"/>
      <path id="Caminho_450" data-name="Caminho 450" d="M1387.648,411.8a2.576,2.576,0,0,0,1.6-.508,3.936,3.936,0,0,0,1.083-1.283,6.391,6.391,0,0,0,.616-1.681,7.9,7.9,0,0,0,.2-1.7,2.593,2.593,0,0,0-.508-1.73,1.785,1.785,0,0,0-1.441-.6,2.492,2.492,0,0,0-1.591.518,4.115,4.115,0,0,0-1.075,1.292,6.2,6.2,0,0,0-.606,1.681,8.162,8.162,0,0,0-.19,1.681,2.67,2.67,0,0,0,.488,1.73A1.732,1.732,0,0,0,1387.648,411.8Zm-.2,1.571a3.579,3.579,0,0,1-2.785-1.026,4.132,4.132,0,0,1-.936-2.893,8.483,8.483,0,0,1,.339-2.3,6.96,6.96,0,0,1,1.043-2.189,6,6,0,0,1,1.769-1.632,4.769,4.769,0,0,1,2.516-.645,3.592,3.592,0,0,1,2.806,1.036,4.177,4.177,0,0,1,.933,2.9,8.434,8.434,0,0,1-.337,2.306,7.083,7.083,0,0,1-1.036,2.179,5.7,5.7,0,0,1-1.769,1.62A4.9,4.9,0,0,1,1387.45,413.371Z" transform="translate(-1109.939 -398.473)" fill="#fff"/>
      <path id="Caminho_451" data-name="Caminho 451" d="M1434.05,408.338a6.85,6.85,0,0,1-.635-.3,2.576,2.576,0,0,1-.618-.457,2.325,2.325,0,0,1-.467-.706,2.532,2.532,0,0,1-.188-1.024,2.9,2.9,0,0,1,.3-1.324,2.867,2.867,0,0,1,.835-.994,3.933,3.933,0,0,1,1.283-.626,5.843,5.843,0,0,1,1.661-.22,6.5,6.5,0,0,1,1.549.178,5.246,5.246,0,0,1,1.155.4,4.908,4.908,0,0,1-.577,1.492,6.278,6.278,0,0,0-.936-.327,4.606,4.606,0,0,0-1.271-.171,3.049,3.049,0,0,0-1.424.3,1.072,1.072,0,0,0-.567,1.035,1.127,1.127,0,0,0,.269.765,2.532,2.532,0,0,0,.965.586l.437.2c.251.118.514.245.786.377a3.438,3.438,0,0,1,.735.486,2.373,2.373,0,0,1,.537.7,2.181,2.181,0,0,1,.208,1,3.5,3.5,0,0,1-.359,1.64,3.118,3.118,0,0,1-.985,1.134,4.342,4.342,0,0,1-1.451.667,6.96,6.96,0,0,1-1.779.22,8.8,8.8,0,0,1-1.563-.139,5.729,5.729,0,0,1-1.261-.357,4.589,4.589,0,0,1,.149-.837,2.93,2.93,0,0,1,.327-.755,5.934,5.934,0,0,0,1.214.347,7.091,7.091,0,0,0,1.292.131,4.712,4.712,0,0,0,.933-.09,2.481,2.481,0,0,0,.757-.279,1.426,1.426,0,0,0,.506-.508,1.519,1.519,0,0,0,.188-.794,1.153,1.153,0,0,0-.357-.926,3.539,3.539,0,0,0-1.014-.567Z" transform="translate(-1147.69 -398.473)" fill="#fff"/>
      <path id="Caminho_452" data-name="Caminho 452" d="M1472.992,408.338a6.656,6.656,0,0,1-.637-.3,2.529,2.529,0,0,1-.616-.457,2.29,2.29,0,0,1-.467-.706,2.5,2.5,0,0,1-.19-1.024,2.807,2.807,0,0,1,1.134-2.318,3.931,3.931,0,0,1,1.283-.626,5.852,5.852,0,0,1,1.661-.22,6.536,6.536,0,0,1,1.551.178,5.262,5.262,0,0,1,1.153.4,4.9,4.9,0,0,1-.577,1.492,6.244,6.244,0,0,0-.933-.327,4.626,4.626,0,0,0-1.275-.171,3.047,3.047,0,0,0-1.422.3,1.075,1.075,0,0,0-.567,1.035,1.128,1.128,0,0,0,.269.765,2.533,2.533,0,0,0,.965.586l.438.2c.253.118.514.245.786.377a3.437,3.437,0,0,1,.735.486,2.374,2.374,0,0,1,.537.7,2.179,2.179,0,0,1,.208,1,3.493,3.493,0,0,1-.359,1.64,3.133,3.133,0,0,1-.982,1.134,4.378,4.378,0,0,1-1.451.667,6.975,6.975,0,0,1-1.781.22,8.754,8.754,0,0,1-1.561-.139,5.711,5.711,0,0,1-1.263-.357,4.568,4.568,0,0,1,.149-.837,2.935,2.935,0,0,1,.327-.755,5.934,5.934,0,0,0,1.214.347,7.111,7.111,0,0,0,1.292.131,4.733,4.733,0,0,0,.935-.09,2.47,2.47,0,0,0,.755-.279,1.447,1.447,0,0,0,.508-.508,1.535,1.535,0,0,0,.188-.794,1.154,1.154,0,0,0-.359-.926,3.511,3.511,0,0,0-1.014-.567Z" transform="translate(-1178.993 -398.473)" fill="#fff"/>
      <path id="Caminho_453" data-name="Caminho 453" d="M1516.948,411.8a2.567,2.567,0,0,0,1.6-.508,3.921,3.921,0,0,0,1.085-1.283,6.4,6.4,0,0,0,.616-1.681,7.911,7.911,0,0,0,.2-1.7,2.6,2.6,0,0,0-.508-1.73,1.785,1.785,0,0,0-1.441-.6,2.487,2.487,0,0,0-1.591.518,4.089,4.089,0,0,0-1.075,1.292,6.2,6.2,0,0,0-.606,1.681,8.155,8.155,0,0,0-.19,1.681,2.668,2.668,0,0,0,.488,1.73,1.726,1.726,0,0,0,1.422.6Zm-.2,1.571a3.574,3.574,0,0,1-2.783-1.026,4.133,4.133,0,0,1-.936-2.893,8.559,8.559,0,0,1,.337-2.3,7.01,7.01,0,0,1,1.045-2.189,6,6,0,0,1,1.769-1.632,4.764,4.764,0,0,1,2.516-.645,3.588,3.588,0,0,1,2.8,1.036,4.17,4.17,0,0,1,.935,2.9,8.429,8.429,0,0,1-.339,2.306,7.034,7.034,0,0,1-1.034,2.179,5.7,5.7,0,0,1-1.769,1.62A4.9,4.9,0,0,1,1516.748,413.371Z" transform="translate(-1213.881 -398.473)" fill="#fff"/>
      <g id="Grupo_291" data-name="Grupo 291" transform="translate(0 22.57)">
        <path id="Caminho_456" data-name="Caminho 456" d="M135.125,523.861a3.8,3.8,0,0,1,.4,1.545,4.9,4.9,0,0,1-.783.275c-.278.073-.565.133-.855.18s-.581.086-.865.11-.543.037-.773.037a4.826,4.826,0,0,1-3.667-1.347,5.165,5.165,0,0,1-1.283-3.713,11.09,11.09,0,0,1,.455-3.165,8.3,8.3,0,0,1,1.355-2.7,6.835,6.835,0,0,1,2.23-1.883,6.43,6.43,0,0,1,3.075-.71,8.558,8.558,0,0,1,1.645.137,6,6,0,0,1,1.157.337,6.955,6.955,0,0,1-.21.763,4.607,4.607,0,0,1-.355.765,5.82,5.82,0,0,0-1.037-.292,6.735,6.735,0,0,0-1.145-.09,4.6,4.6,0,0,0-2.33.565,4.776,4.776,0,0,0-1.61,1.5,6.77,6.77,0,0,0-.928,2.138,10.17,10.17,0,0,0-.3,2.475,3.741,3.741,0,0,0,.865,2.675,3.287,3.287,0,0,0,2.5.91,6.127,6.127,0,0,0,1.283-.128A6.218,6.218,0,0,0,135.125,523.861Zm8.623-6.023a2.6,2.6,0,0,0-.455-.073c-.157-.012-.333-.018-.528-.018a3.178,3.178,0,0,0-1.628.418,4.089,4.089,0,0,0-1.238,1.118,5.29,5.29,0,0,0-.792,1.585,6.136,6.136,0,0,0-.273,1.81,2.506,2.506,0,0,0,.31,1.355,1.029,1.029,0,0,0,.928.482,1.894,1.894,0,0,0,1.092-.365,3.762,3.762,0,0,0,.965-1.01,7.094,7.094,0,0,0,.755-1.51,11.286,11.286,0,0,0,.5-1.845Zm1.037,3.985q-.2,1.091-.318,1.873a9.1,9.1,0,0,0-.12,1.365c0,.159,0,.282.01.373a3.179,3.179,0,0,0,.045.337,4.381,4.381,0,0,1-.435.055c-.159.012-.3.018-.437.018s-.255-.006-.4-.018-.284-.031-.42-.055c-.024-.133-.041-.271-.053-.41s-.02-.312-.02-.518a4.27,4.27,0,0,1,.047-.545c.029-.231.063-.437.1-.62a4.529,4.529,0,0,1-.53.81,4.592,4.592,0,0,1-.753.745,3.959,3.959,0,0,1-.965.555,3.053,3.053,0,0,1-1.155.22,2.141,2.141,0,0,1-1.81-.792,3.437,3.437,0,0,1-.61-2.155,8.083,8.083,0,0,1,.4-2.52,6.671,6.671,0,0,1,1.183-2.185,5.9,5.9,0,0,1,1.947-1.538,6,6,0,0,1,2.71-.581,8.851,8.851,0,0,1,1.32.1,6.279,6.279,0,0,1,1.173.28l-.91,5.205Zm2.238,3.966c.133-.763.282-1.571.447-2.418s.314-1.673.455-2.467.257-1.522.353-2.183a11.348,11.348,0,0,0,.147-1.575c0-.157,0-.28-.01-.373a3.225,3.225,0,0,0-.045-.335,3.2,3.2,0,0,1,.437-.047c.157-.006.3-.008.435-.008s.259,0,.41.008a2.731,2.731,0,0,1,.41.047,2.33,2.33,0,0,1,.053.318,4.386,4.386,0,0,1,.02.482,6.229,6.229,0,0,1-.055.818,5.756,5.756,0,0,1,.518-.618,4.075,4.075,0,0,1,.628-.528,2.93,2.93,0,0,1,1.693-.51,3.163,3.163,0,0,1,.32.018,1.538,1.538,0,0,1,.28.055,4.752,4.752,0,0,1-.08.828,2.278,2.278,0,0,1-.282.792,1.931,1.931,0,0,0-.227-.037,2.666,2.666,0,0,0-.3-.018,2.491,2.491,0,0,0-1.975.873,5.661,5.661,0,0,0-1.083,2.693l-.745,4.185a5.164,5.164,0,0,1-.747.055h-.455l-.6-.055Zm8.316-9.588c.122-.679.216-1.265.282-1.755a12.833,12.833,0,0,0,.118-1.32v-.345c0-.086-.006-.194-.018-.328a3.925,3.925,0,0,1,.482-.055q.282-.018.482-.018c.122,0,.257.006.41.018a3.937,3.937,0,0,1,.428.055,1.537,1.537,0,0,1,.035.328v.345c0,.133-.01.294-.027.482s-.039.384-.063.59-.055.42-.092.637-.073.426-.108.62l-1.42,7.678a2.888,2.888,0,0,0-.055.49,1.1,1.1,0,0,0,.082.465.587.587,0,0,0,.21.255.643.643,0,0,0,.28.1,2.674,2.674,0,0,0,.3.018,2.273,2.273,0,0,0,.373-.035c.139-.026.257-.049.355-.075a3.506,3.506,0,0,1,.163,1.13.747.747,0,0,1-.01.135.872.872,0,0,0-.008.12,3.437,3.437,0,0,1-.665.135,6.439,6.439,0,0,1-.773.045,3.819,3.819,0,0,1-.865-.09,1.6,1.6,0,0,1-.673-.328,1.552,1.552,0,0,1-.437-.628,2.689,2.689,0,0,1-.155-.973,4.028,4.028,0,0,1,.073-.73c.049-.255.1-.5.147-.745l1.145-6.223Zm7.278,9.808a3.284,3.284,0,0,1-2.548-.937,3.8,3.8,0,0,1-.855-2.648,7.8,7.8,0,0,1,.31-2.1,6.368,6.368,0,0,1,.955-2,5.466,5.466,0,0,1,1.62-1.492,4.348,4.348,0,0,1,2.3-.59,3.283,3.283,0,0,1,2.565.945,3.83,3.83,0,0,1,.855,2.657,7.743,7.743,0,0,1-.31,2.11,6.519,6.519,0,0,1-.945,1.993,5.226,5.226,0,0,1-1.62,1.483,4.486,4.486,0,0,1-2.33.582Zm.182-1.438a2.344,2.344,0,0,0,1.465-.465,3.61,3.61,0,0,0,.992-1.173,5.9,5.9,0,0,0,.563-1.538A7.257,7.257,0,0,0,166,519.84a2.383,2.383,0,0,0-.465-1.585,1.634,1.634,0,0,0-1.318-.545,2.286,2.286,0,0,0-1.455.473,3.7,3.7,0,0,0-.983,1.183,5.636,5.636,0,0,0-.555,1.538,7.54,7.54,0,0,0-.175,1.538,2.44,2.44,0,0,0,.447,1.583A1.577,1.577,0,0,0,162.8,524.571Zm8.753-3.167a5.776,5.776,0,0,1-.582-.273,2.366,2.366,0,0,1-.565-.418,2.126,2.126,0,0,1-.428-.647,2.289,2.289,0,0,1-.173-.936,2.569,2.569,0,0,1,1.037-2.12,3.577,3.577,0,0,1,1.173-.573,5.4,5.4,0,0,1,1.52-.2,5.957,5.957,0,0,1,1.42.163,4.841,4.841,0,0,1,1.055.365,4.488,4.488,0,0,1-.528,1.363,6.051,6.051,0,0,0-.855-.3,4.309,4.309,0,0,0-1.165-.153,2.764,2.764,0,0,0-1.3.273.974.974,0,0,0-.52.945,1.034,1.034,0,0,0,.245.7,2.35,2.35,0,0,0,.883.537l.4.182c.229.108.469.224.718.345a3.051,3.051,0,0,1,.673.445,2.141,2.141,0,0,1,.492.637,2,2,0,0,1,.19.92,3.215,3.215,0,0,1-.328,1.5,2.907,2.907,0,0,1-.9,1.038,4.065,4.065,0,0,1-1.328.61,6.354,6.354,0,0,1-1.63.2,8.024,8.024,0,0,1-1.428-.128,5.3,5.3,0,0,1-1.155-.327,4.323,4.323,0,0,1,.135-.765,2.643,2.643,0,0,1,.3-.692,5.213,5.213,0,0,0,1.108.32,6.554,6.554,0,0,0,1.183.118,4.212,4.212,0,0,0,.855-.082,2.2,2.2,0,0,0,.692-.253,1.319,1.319,0,0,0,.465-.465,1.421,1.421,0,0,0,.173-.728,1.06,1.06,0,0,0-.328-.847,3.3,3.3,0,0,0-.928-.518l-.582-.237Zm14.684-8.7a4.735,4.735,0,0,1,.573-.047c.224-.006.422-.008.592-.008s.367,0,.555.008a3.907,3.907,0,0,1,.5.047l1.783,13.081a10.059,10.059,0,0,1-1.055.055,7.33,7.33,0,0,1-.892-.055l-.345-3.075h-4.4l-1.33,3.075a7.806,7.806,0,0,1-.983.055c-.169,0-.335,0-.5-.008a3.244,3.244,0,0,1-.445-.047Zm1.528,8.406-.745-6.313-2.765,6.313ZM193.7,516.2c.12-.678.214-1.265.28-1.755a12.877,12.877,0,0,0,.12-1.32v-.345a3.259,3.259,0,0,0-.02-.328,4,4,0,0,1,.482-.055q.282-.018.482-.018c.122,0,.259.006.41.018a3.875,3.875,0,0,1,.428.055,1.539,1.539,0,0,1,.037.328v.345c0,.133-.01.294-.027.482s-.039.384-.065.59-.055.42-.09.637-.073.426-.11.62l-1.42,7.678a3.065,3.065,0,0,0-.053.49,1.131,1.131,0,0,0,.08.465.6.6,0,0,0,.21.255.642.642,0,0,0,.282.1,2.614,2.614,0,0,0,.3.018,2.255,2.255,0,0,0,.373-.035c.139-.026.259-.049.355-.075a3.449,3.449,0,0,1,.165,1.13.97.97,0,0,1-.01.135.893.893,0,0,0-.01.12,3.389,3.389,0,0,1-.663.135,6.472,6.472,0,0,1-.775.045,3.806,3.806,0,0,1-.863-.09,1.608,1.608,0,0,1-.675-.327,1.531,1.531,0,0,1-.435-.628,2.648,2.648,0,0,1-.155-.973,3.862,3.862,0,0,1,.073-.729c.049-.255.1-.5.145-.745L193.7,516.2Zm5.786,8.17a3.686,3.686,0,0,0,.492.09,4.569,4.569,0,0,0,.545.037,3.529,3.529,0,0,0,1.555-.347,3.725,3.725,0,0,0,1.238-.955,4.617,4.617,0,0,0,.818-1.445,5.361,5.361,0,0,0,.3-1.82,2.627,2.627,0,0,0-.41-1.555,1.392,1.392,0,0,0-1.21-.575,2.188,2.188,0,0,0-.91.2,2.386,2.386,0,0,0-.81.638,4.274,4.274,0,0,0-.665,1.137,7.628,7.628,0,0,0-.453,1.72l-.492,2.875Zm-.345-8.188c.108-.667.2-1.247.273-1.738a9.158,9.158,0,0,0,.11-1.32v-.365c0-.084-.008-.186-.02-.308a3.912,3.912,0,0,1,.482-.055q.282-.018.482-.018c.122,0,.257,0,.41.008a2.875,2.875,0,0,1,.428.047c.012.12.022.233.027.335s.008.216.008.337a8.434,8.434,0,0,1-.09,1.09q-.091.674-.2,1.257l-.418,2.383a5.36,5.36,0,0,1,.518-.618,3.175,3.175,0,0,1,.645-.51,3.4,3.4,0,0,1,.82-.347,3.875,3.875,0,0,1,1.037-.126,2.441,2.441,0,0,1,1.983.881,3.813,3.813,0,0,1,.728,2.485,7.638,7.638,0,0,1-.39,2.448,5.776,5.776,0,0,1-1.185,2.038,5.634,5.634,0,0,1-1.983,1.4,6.93,6.93,0,0,1-2.793.52,7.672,7.672,0,0,1-1.383-.128,6.239,6.239,0,0,1-1.147-.31Zm10.589,5.9a2.85,2.85,0,0,0,.62,1.838,2.251,2.251,0,0,0,1.747.618,5.358,5.358,0,0,0,1.381-.173,12.168,12.168,0,0,0,1.185-.373,2.031,2.031,0,0,1,.235.655,4.035,4.035,0,0,1,.073.763,4.112,4.112,0,0,1-.663.237c-.261.073-.533.137-.82.192s-.573.1-.863.127-.559.045-.8.045a5.085,5.085,0,0,1-1.81-.282,3.145,3.145,0,0,1-1.2-.783,3,3,0,0,1-.673-1.182,4.982,4.982,0,0,1-.21-1.483,6.672,6.672,0,0,1,.373-2.193,6.231,6.231,0,0,1,1.073-1.938,5.587,5.587,0,0,1,1.675-1.383,4.474,4.474,0,0,1,2.175-.528,2.851,2.851,0,0,1,1.9.59,1.959,1.959,0,0,1,.7,1.575,2.459,2.459,0,0,1-.39,1.39,3.343,3.343,0,0,1-1.083,1.01,6.77,6.77,0,0,1-1.63.692,15.318,15.318,0,0,1-2.046.437Zm1.147-1.53a10.32,10.32,0,0,0,1.538-.373,4.158,4.158,0,0,0,.973-.455,1.512,1.512,0,0,0,.51-.518,1.268,1.268,0,0,0,.145-.6.874.874,0,0,0-.29-.683,1.2,1.2,0,0,0-.837-.265,2.224,2.224,0,0,0-1.073.265,3.3,3.3,0,0,0-.883.69,4.241,4.241,0,0,0-.665.983,5.636,5.636,0,0,0-.418,1.137Zm6,5.24c.133-.763.282-1.571.447-2.418s.316-1.673.455-2.467.257-1.522.355-2.183a11.6,11.6,0,0,0,.145-1.575c0-.157,0-.28-.01-.373a3.243,3.243,0,0,0-.045-.335,3.189,3.189,0,0,1,.437-.047c.157-.006.3-.008.435-.008s.259,0,.41.008a2.722,2.722,0,0,1,.41.047,2.319,2.319,0,0,1,.055.318q.018.174.018.482a5.907,5.907,0,0,1-.055.818,5.784,5.784,0,0,1,.52-.618,3.9,3.9,0,0,1,.628-.528,2.9,2.9,0,0,1,.763-.373,2.954,2.954,0,0,1,.928-.137,3.165,3.165,0,0,1,.32.018,1.529,1.529,0,0,1,.282.055,4.773,4.773,0,0,1-.082.828,2.279,2.279,0,0,1-.282.792,1.906,1.906,0,0,0-.228-.037,2.64,2.64,0,0,0-.3-.018,2.493,2.493,0,0,0-1.975.873,5.66,5.66,0,0,0-1.083,2.693l-.745,4.185a5.157,5.157,0,0,1-.745.055h-.455l-.6-.055Zm8.28-7.9h-1.475a4.485,4.485,0,0,1,.055-.7,4.227,4.227,0,0,1,.2-.737h1.455q.091-.474.165-.965a6.879,6.879,0,0,0,.072-1.018v-.292a3.22,3.22,0,0,1,.873-.273,5.088,5.088,0,0,1,.875-.09c.012.108.022.218.027.327s.008.224.008.345a8.3,8.3,0,0,1-.145,1.4l-.11.565H229.5a4.527,4.527,0,0,1-.055.737,4.093,4.093,0,0,1-.18.7h-2.33l-.71,3.948c-.061.279-.114.567-.163.865a4.991,4.991,0,0,0-.073.81.887.887,0,0,0,.282.755,1.234,1.234,0,0,0,.753.208,3.11,3.11,0,0,0,.565-.045,4.8,4.8,0,0,0,.51-.118,3.36,3.36,0,0,1,.09.4,2.748,2.748,0,0,1,.037.473v.265a2.366,2.366,0,0,1-.018.282,5.466,5.466,0,0,1-.62.135,4.915,4.915,0,0,1-.818.063,6.364,6.364,0,0,1-1.065-.08,2.148,2.148,0,0,1-.828-.31,1.513,1.513,0,0,1-.537-.618,2.357,2.357,0,0,1-.19-1.028,4.51,4.51,0,0,1,.063-.737c.043-.261.088-.531.137-.81l.8-4.458Zm8.278,8.115a3.284,3.284,0,0,1-2.548-.937,3.8,3.8,0,0,1-.855-2.648,7.8,7.8,0,0,1,.31-2.1,6.369,6.369,0,0,1,.955-2,5.465,5.465,0,0,1,1.62-1.493,4.347,4.347,0,0,1,2.3-.59,3.285,3.285,0,0,1,2.567.945,3.83,3.83,0,0,1,.855,2.657,7.742,7.742,0,0,1-.31,2.11,6.478,6.478,0,0,1-.947,1.993,5.2,5.2,0,0,1-1.618,1.483A4.486,4.486,0,0,1,233.435,526.008Zm.182-1.438a2.344,2.344,0,0,0,1.465-.465,3.582,3.582,0,0,0,.99-1.173,5.9,5.9,0,0,0,.565-1.538,7.257,7.257,0,0,0,.182-1.555,2.383,2.383,0,0,0-.465-1.585,1.636,1.636,0,0,0-1.318-.545,2.3,2.3,0,0,0-1.457.473,3.757,3.757,0,0,0-.983,1.182,5.7,5.7,0,0,0-.555,1.538,7.673,7.673,0,0,0-.173,1.538,2.439,2.439,0,0,0,.447,1.583A1.577,1.577,0,0,0,233.617,524.571Z" transform="translate(-127.3 -512.38)" fill="#fff"/>
        <path id="Caminho_457" data-name="Caminho 457" d="M726.262,512.688c.461-.073.9-.123,1.328-.153s.843-.047,1.255-.047a7.745,7.745,0,0,1,1.6.165,4.192,4.192,0,0,1,1.392.545,2.9,2.9,0,0,1,.975,1.01,3.118,3.118,0,0,1,.363,1.575,4.3,4.3,0,0,1-.31,1.69,4.715,4.715,0,0,1-.773,1.265,4.824,4.824,0,0,1-1.02.9,7.849,7.849,0,0,1-1.028.582l2.385,5.568a10.362,10.362,0,0,1-1.055.055,8.053,8.053,0,0,1-.983-.055l-2.53-6.1.182-.055a2.342,2.342,0,0,0,.39-.125,5.277,5.277,0,0,0,.637-.31,7.112,7.112,0,0,0,.737-.482,3.832,3.832,0,0,0,.7-.673,3.511,3.511,0,0,0,.518-.875,2.8,2.8,0,0,0,.2-1.083,1.849,1.849,0,0,0-.618-1.565,2.765,2.765,0,0,0-1.71-.473c-.194,0-.367.006-.52.018s-.324.031-.518.055l-2.055,11.663c-.147.014-.3.025-.465.037s-.324.018-.482.018-.3,0-.463-.008a3.243,3.243,0,0,1-.447-.047l2.312-13.1Zm9.861,9.39a2.849,2.849,0,0,0,.62,1.838,2.249,2.249,0,0,0,1.745.618,5.362,5.362,0,0,0,1.383-.173,11.944,11.944,0,0,0,1.183-.373,1.984,1.984,0,0,1,.237.655,4.032,4.032,0,0,1,.073.763,4.209,4.209,0,0,1-.665.237c-.261.073-.533.137-.818.192s-.573.1-.865.127a8,8,0,0,1-.8.045,5.078,5.078,0,0,1-1.81-.282,3.116,3.116,0,0,1-1.2-.782,3.006,3.006,0,0,1-.675-1.183,5.049,5.049,0,0,1-.208-1.483,6.67,6.67,0,0,1,.373-2.193,6.193,6.193,0,0,1,1.073-1.938,5.561,5.561,0,0,1,1.675-1.383,4.47,4.47,0,0,1,2.173-.528,2.854,2.854,0,0,1,1.9.59,1.959,1.959,0,0,1,.7,1.575,2.46,2.46,0,0,1-.39,1.391,3.331,3.331,0,0,1-1.085,1.01,6.757,6.757,0,0,1-1.628.692,15.3,15.3,0,0,1-2.047.437l-.945.145Zm1.147-1.53a10.275,10.275,0,0,0,1.536-.373,4.139,4.139,0,0,0,.975-.455,1.512,1.512,0,0,0,.51-.518,1.269,1.269,0,0,0,.145-.6.875.875,0,0,0-.292-.682,1.2,1.2,0,0,0-.836-.265,2.231,2.231,0,0,0-1.075.265,3.3,3.3,0,0,0-.883.69,4.172,4.172,0,0,0-.663.983,5.761,5.761,0,0,0-.42,1.138Zm9.406,4.33q.582-1.253,1.037-2.293t.828-1.91q.374-.874.673-1.6c.2-.486.386-.947.555-1.383a3.808,3.808,0,0,0,.165-.565,2.441,2.441,0,0,0,.055-.418.911.911,0,0,0-.01-.145.706.706,0,0,1-.01-.11,4.83,4.83,0,0,1,.765-.055h1.147a.608.608,0,0,1,.018.145v.145a2.815,2.815,0,0,1-.182.947q-.182.509-.4,1.02-.818,1.762-1.755,3.775t-2.1,4.448a11.071,11.071,0,0,1-.983,1.728,5.025,5.025,0,0,1-.937,1.02,2.606,2.606,0,0,1-.937.49,3.841,3.841,0,0,1-1.018.127,4.294,4.294,0,0,1-1.238-.18,3.838,3.838,0,0,1,.11-.765,1.808,1.808,0,0,1,.29-.637,2.979,2.979,0,0,0,.4.1,2.26,2.26,0,0,0,.438.045,2.146,2.146,0,0,0,.565-.08,1.508,1.508,0,0,0,.608-.392,4.591,4.591,0,0,0,.682-.91,12.917,12.917,0,0,0,.8-1.638,2.245,2.245,0,0,1-.31.02h-.6a1.389,1.389,0,0,1-.255-.02q-.312-2.327-.61-4.658t-.61-4.676c.171-.024.326-.043.465-.055s.294-.018.463-.018.333.006.492.018.314.031.473.055Zm7.751-2.8a2.849,2.849,0,0,0,.62,1.838,2.253,2.253,0,0,0,1.747.618,5.384,5.384,0,0,0,1.383-.173,12.284,12.284,0,0,0,1.183-.373,1.986,1.986,0,0,1,.235.655,4.037,4.037,0,0,1,.073.763,4.113,4.113,0,0,1-.663.237c-.261.073-.533.137-.82.192s-.573.1-.863.127-.559.045-.8.045a5.086,5.086,0,0,1-1.81-.282,3.147,3.147,0,0,1-1.2-.782,3,3,0,0,1-.673-1.183,5.046,5.046,0,0,1-.21-1.483,6.67,6.67,0,0,1,.373-2.193,6.2,6.2,0,0,1,1.075-1.938,5.554,5.554,0,0,1,1.673-1.383,4.472,4.472,0,0,1,2.175-.528,2.851,2.851,0,0,1,1.9.59,1.959,1.959,0,0,1,.7,1.575,2.459,2.459,0,0,1-.39,1.391,3.343,3.343,0,0,1-1.082,1.01,6.792,6.792,0,0,1-1.628.692,15.434,15.434,0,0,1-2.048.437l-.947.145Zm1.147-1.53a10.305,10.305,0,0,0,1.538-.373,4.152,4.152,0,0,0,.973-.455,1.512,1.512,0,0,0,.51-.518,1.269,1.269,0,0,0,.145-.6.874.874,0,0,0-.29-.682,1.2,1.2,0,0,0-.837-.265,2.223,2.223,0,0,0-1.073.265,3.3,3.3,0,0,0-.883.69,4.241,4.241,0,0,0-.665.983,5.64,5.64,0,0,0-.418,1.138ZM764,521.4a5.969,5.969,0,0,1-.581-.273,2.327,2.327,0,0,1-.565-.418,2.091,2.091,0,0,1-.428-.647,2.289,2.289,0,0,1-.173-.936,2.57,2.57,0,0,1,1.038-2.12,3.574,3.574,0,0,1,1.173-.573,5.388,5.388,0,0,1,1.52-.2,5.936,5.936,0,0,1,1.418.163,4.755,4.755,0,0,1,1.055.365,4.436,4.436,0,0,1-.528,1.363,5.956,5.956,0,0,0-.855-.3,4.284,4.284,0,0,0-1.163-.153,2.778,2.778,0,0,0-1.3.273.976.976,0,0,0-.518.945,1.033,1.033,0,0,0,.245.7,2.348,2.348,0,0,0,.883.537l.4.182c.232.108.471.224.72.345a3.105,3.105,0,0,1,.673.445,2.137,2.137,0,0,1,.49.637,2,2,0,0,1,.192.92,3.214,3.214,0,0,1-.328,1.5,2.944,2.944,0,0,1-.9,1.038,4.055,4.055,0,0,1-1.33.61,6.328,6.328,0,0,1-1.628.2,8.018,8.018,0,0,1-1.428-.128,5.293,5.293,0,0,1-1.155-.327,4.319,4.319,0,0,1,.135-.765,2.7,2.7,0,0,1,.3-.692,5.263,5.263,0,0,0,1.11.32,6.555,6.555,0,0,0,1.183.118,4.231,4.231,0,0,0,.855-.082,2.22,2.22,0,0,0,.692-.253,1.3,1.3,0,0,0,.463-.465,1.4,1.4,0,0,0,.173-.728,1.059,1.059,0,0,0-.326-.847,3.288,3.288,0,0,0-.93-.518L764,521.4Zm12.428-8.7c.159-.026.331-.043.518-.055s.369-.018.537-.018.333.006.492.018.308.029.455.055l1.783,8.1,4.64-8.1a3.893,3.893,0,0,1,.473-.055c.182-.012.357-.018.528-.018s.339.006.51.018a3.9,3.9,0,0,1,.455.055l-1.675,13.081c-.157.026-.312.043-.463.055s-.308.018-.465.018-.328-.006-.473-.018a3.239,3.239,0,0,1-.4-.055l1.345-9.953-4.185,7.243a5.679,5.679,0,0,1-.745.055,4.451,4.451,0,0,1-.71-.055l-1.638-7.278-2.128,9.989a3.958,3.958,0,0,1-.42.055c-.145.012-.3.018-.455.018s-.29-.006-.435-.018a3.882,3.882,0,0,1-.42-.055l2.875-13.081Zm18.524,5.131a2.633,2.633,0,0,0-.455-.073c-.157-.012-.333-.018-.528-.018a3.177,3.177,0,0,0-1.628.418,4.065,4.065,0,0,0-1.238,1.118,5.246,5.246,0,0,0-.792,1.585,6.073,6.073,0,0,0-.273,1.81,2.488,2.488,0,0,0,.31,1.355,1.027,1.027,0,0,0,.928.482,1.889,1.889,0,0,0,1.091-.365,3.7,3.7,0,0,0,.965-1.01,6.912,6.912,0,0,0,.755-1.51,11.29,11.29,0,0,0,.5-1.846Zm1.037,3.985c-.133.728-.241,1.351-.32,1.873a9.346,9.346,0,0,0-.118,1.365c0,.159,0,.282.01.373a2.756,2.756,0,0,0,.045.337,4.374,4.374,0,0,1-.437.055c-.157.012-.3.018-.437.018q-.18,0-.4-.018c-.145-.012-.284-.031-.418-.055-.023-.133-.043-.271-.055-.41s-.018-.312-.018-.518a4.573,4.573,0,0,1,.045-.545c.031-.231.065-.437.1-.62a4.733,4.733,0,0,1-1.283,1.555,3.884,3.884,0,0,1-.965.555,3.041,3.041,0,0,1-1.155.22,2.144,2.144,0,0,1-1.81-.792,3.45,3.45,0,0,1-.61-2.155,8.083,8.083,0,0,1,.4-2.52,6.673,6.673,0,0,1,1.183-2.185,5.9,5.9,0,0,1,1.948-1.538,6.018,6.018,0,0,1,2.712-.581,8.849,8.849,0,0,1,1.318.1,6.3,6.3,0,0,1,1.175.28ZM799.9,516.2c.122-.679.216-1.265.282-1.755a12.849,12.849,0,0,0,.118-1.32v-.345c0-.086-.006-.194-.018-.328a3.937,3.937,0,0,1,.482-.055q.282-.018.483-.018c.121,0,.257.006.41.018a3.9,3.9,0,0,1,.428.055,1.53,1.53,0,0,1,.035.328v.345a4.671,4.671,0,0,1-.028.482c-.018.188-.039.384-.063.59s-.055.42-.09.637-.075.426-.11.62l-1.42,7.678a3.115,3.115,0,0,0-.055.49,1.1,1.1,0,0,0,.082.465.6.6,0,0,0,.21.255.643.643,0,0,0,.282.1,2.613,2.613,0,0,0,.3.018,2.278,2.278,0,0,0,.372-.035c.139-.026.257-.049.355-.075a3.506,3.506,0,0,1,.163,1.13.99.99,0,0,1-.008.135.651.651,0,0,0-.01.12,3.44,3.44,0,0,1-.665.135,6.436,6.436,0,0,1-.773.045,3.823,3.823,0,0,1-.865-.09,1.6,1.6,0,0,1-.673-.328,1.552,1.552,0,0,1-.437-.628,2.69,2.69,0,0,1-.153-.973,3.869,3.869,0,0,1,.073-.73c.047-.255.1-.5.145-.745Zm10.553,1.638a2.612,2.612,0,0,0-.453-.073q-.238-.017-.53-.018a3.178,3.178,0,0,0-1.628.418,4.088,4.088,0,0,0-1.237,1.118,5.243,5.243,0,0,0-.79,1.585,6.074,6.074,0,0,0-.275,1.81,2.505,2.505,0,0,0,.31,1.355,1.029,1.029,0,0,0,.928.482,1.894,1.894,0,0,0,1.092-.365,3.761,3.761,0,0,0,.965-1.01,7.285,7.285,0,0,0,.763-1.51,10.556,10.556,0,0,0,.51-1.846l.345-1.947Zm1.055,3.985c-.131.728-.235,1.351-.308,1.873a10.083,10.083,0,0,0-.11,1.365v.373a1.835,1.835,0,0,0,.037.337c-.133.024-.276.043-.428.055s-.294.018-.428.018-.273-.006-.42-.018a3.667,3.667,0,0,1-.4-.055c-.023-.1-.045-.2-.063-.318a3.09,3.09,0,0,1-.027-.482,5.37,5.37,0,0,1,.045-.61,4.578,4.578,0,0,1,.137-.718,6.013,6.013,0,0,1-.547.818,4.619,4.619,0,0,1-.763.765,3.988,3.988,0,0,1-.975.563,3.042,3.042,0,0,1-1.155.22,2.173,2.173,0,0,1-1.82-.792,3.415,3.415,0,0,1-.618-2.156,8.083,8.083,0,0,1,.4-2.52,6.671,6.671,0,0,1,1.182-2.185,5.87,5.87,0,0,1,1.955-1.538,6.034,6.034,0,0,1,2.7-.581q.2,0,.418.018t.365.035c.133-.7.237-1.31.31-1.818a9.7,9.7,0,0,0,.108-1.347v-.365c0-.084-.006-.186-.018-.308a3.94,3.94,0,0,1,.482-.055q.282-.018.482-.018c.122,0,.257,0,.41.008a2.429,2.429,0,0,1,.408.047,4.44,4.44,0,0,1,.055.673,8.959,8.959,0,0,1-.082,1.073c-.053.437-.118.855-.19,1.255l-1.147,6.388Zm5.715,4.185a3.284,3.284,0,0,1-2.548-.937,3.788,3.788,0,0,1-.855-2.648,7.725,7.725,0,0,1,.31-2.1,6.324,6.324,0,0,1,.955-2,5.432,5.432,0,0,1,1.618-1.492,4.348,4.348,0,0,1,2.3-.59,3.283,3.283,0,0,1,2.565.945,3.821,3.821,0,0,1,.855,2.657,7.739,7.739,0,0,1-.308,2.11,6.527,6.527,0,0,1-.947,1.993,5.2,5.2,0,0,1-1.62,1.483A4.483,4.483,0,0,1,817.221,526.008Zm.182-1.438a2.342,2.342,0,0,0,1.463-.465,3.587,3.587,0,0,0,.992-1.173,5.9,5.9,0,0,0,.565-1.538,7.376,7.376,0,0,0,.18-1.555,2.384,2.384,0,0,0-.463-1.585,1.641,1.641,0,0,0-1.32-.545,2.287,2.287,0,0,0-1.455.473,3.759,3.759,0,0,0-.983,1.183,5.694,5.694,0,0,0-.555,1.538,7.526,7.526,0,0,0-.173,1.538,2.452,2.452,0,0,0,.445,1.583,1.584,1.584,0,0,0,1.3.547Zm7.513-4.185q.2-1.091.32-1.875a9.349,9.349,0,0,0,.118-1.365c0-.157,0-.28-.01-.372a3.227,3.227,0,0,0-.045-.335,3.883,3.883,0,0,1,.437-.055c.157-.012.3-.02.435-.02s.259.008.41.02a3.273,3.273,0,0,1,.41.055,2.3,2.3,0,0,1,.055.335q.018.191.018.5a4.614,4.614,0,0,1-.045.655c-.031.206-.065.408-.1.6a4.068,4.068,0,0,1,.51-.792,4.257,4.257,0,0,1,.763-.737,4.357,4.357,0,0,1,.975-.545,2.987,2.987,0,0,1,1.137-.218,2.368,2.368,0,0,1,1.7.581,2.393,2.393,0,0,1,.61,1.8,5.457,5.457,0,0,1-.037.61c-.023.224-.055.439-.09.645l-1.037,5.913a4.63,4.63,0,0,1-.473.055c-.171.012-.322.018-.455.018s-.282-.006-.447-.018a3.265,3.265,0,0,1-.428-.055l.982-5.6q.056-.291.082-.565c.018-.182.027-.339.027-.473a1.354,1.354,0,0,0-.337-1.037,1.276,1.276,0,0,0-.9-.31,1.8,1.8,0,0,0-.965.3,3.379,3.379,0,0,0-.89.883,6.629,6.629,0,0,0-.755,1.438,10.372,10.372,0,0,0-.537,1.965l-.6,3.4a4.626,4.626,0,0,1-.473.055c-.171.012-.322.018-.455.018s-.282-.006-.445-.018a3.194,3.194,0,0,1-.428-.055Zm16.158-2.548a2.633,2.633,0,0,0-.455-.073c-.159-.012-.333-.018-.527-.018a3.19,3.19,0,0,0-1.63.418,4.083,4.083,0,0,0-1.236,1.118,5.245,5.245,0,0,0-.792,1.585,6.072,6.072,0,0,0-.273,1.81,2.49,2.49,0,0,0,.31,1.355,1.029,1.029,0,0,0,.928.482,1.889,1.889,0,0,0,1.09-.365,3.7,3.7,0,0,0,.965-1.01,6.9,6.9,0,0,0,.755-1.51,11.259,11.259,0,0,0,.5-1.846Zm1.037,3.985c-.133.728-.241,1.351-.32,1.873a9.322,9.322,0,0,0-.118,1.365c0,.159,0,.282.01.373a2.729,2.729,0,0,0,.045.337,4.364,4.364,0,0,1-.437.055q-.235.017-.435.018c-.122,0-.255-.006-.4-.018s-.284-.031-.418-.055c-.023-.133-.043-.271-.055-.41s-.018-.312-.018-.518a4.578,4.578,0,0,1,.045-.545c.031-.231.065-.437.1-.62a4.737,4.737,0,0,1-1.283,1.555,3.889,3.889,0,0,1-.965.555,3.042,3.042,0,0,1-1.155.22,2.144,2.144,0,0,1-1.81-.792,3.45,3.45,0,0,1-.61-2.155,8.083,8.083,0,0,1,.4-2.52,6.671,6.671,0,0,1,1.183-2.185,5.9,5.9,0,0,1,1.947-1.538,6.018,6.018,0,0,1,2.712-.581,8.853,8.853,0,0,1,1.318.1,6.307,6.307,0,0,1,1.175.28Zm9.061-3.985a2.635,2.635,0,0,0-.455-.073c-.157-.012-.333-.018-.528-.018a3.177,3.177,0,0,0-1.628.418,4.066,4.066,0,0,0-1.238,1.118,5.245,5.245,0,0,0-.792,1.585,6.073,6.073,0,0,0-.273,1.81,2.506,2.506,0,0,0,.31,1.355,1.029,1.029,0,0,0,.928.482,1.9,1.9,0,0,0,1.092-.365,3.727,3.727,0,0,0,.963-1.01,7.2,7.2,0,0,0,.765-1.51,10.73,10.73,0,0,0,.51-1.846Zm1.055,3.985q-.2,1.091-.31,1.873a10.049,10.049,0,0,0-.108,1.365v.373a1.989,1.989,0,0,0,.035.337c-.133.024-.275.043-.428.055s-.294.018-.428.018-.273-.006-.418-.018a3.664,3.664,0,0,1-.4-.055,3.166,3.166,0,0,1-.065-.318,3.375,3.375,0,0,1-.027-.482,5.873,5.873,0,0,1,.045-.61,4.831,4.831,0,0,1,.137-.718,5.99,5.99,0,0,1-.545.818,4.705,4.705,0,0,1-.765.765,3.976,3.976,0,0,1-.973.563,3.05,3.05,0,0,1-1.155.22,2.168,2.168,0,0,1-1.82-.792,3.4,3.4,0,0,1-.62-2.156,8.087,8.087,0,0,1,.4-2.52,6.713,6.713,0,0,1,1.185-2.185,5.848,5.848,0,0,1,1.955-1.538,6.028,6.028,0,0,1,2.7-.581q.2,0,.418.018t.365.035c.133-.7.235-1.31.308-1.818a9.707,9.707,0,0,0,.11-1.347v-.365c0-.084-.006-.186-.018-.308a3.938,3.938,0,0,1,.483-.055c.186-.012.347-.018.48-.018s.259,0,.41.008a2.477,2.477,0,0,1,.41.047,4.69,4.69,0,0,1,.055.673,8.934,8.934,0,0,1-.082,1.073q-.082.656-.19,1.255l-1.147,6.388Zm5.713,4.185a3.284,3.284,0,0,1-2.548-.937,3.8,3.8,0,0,1-.855-2.648,7.8,7.8,0,0,1,.31-2.1,6.37,6.37,0,0,1,.955-2,5.465,5.465,0,0,1,1.62-1.492,4.348,4.348,0,0,1,2.3-.59,3.283,3.283,0,0,1,2.565.945,3.831,3.831,0,0,1,.855,2.657,7.744,7.744,0,0,1-.31,2.11,6.518,6.518,0,0,1-.945,1.993,5.223,5.223,0,0,1-1.62,1.483A4.486,4.486,0,0,1,857.942,526.008Zm.182-1.438a2.344,2.344,0,0,0,1.465-.465,3.581,3.581,0,0,0,.99-1.173,5.906,5.906,0,0,0,.565-1.538,7.265,7.265,0,0,0,.182-1.555,2.384,2.384,0,0,0-.465-1.585,1.636,1.636,0,0,0-1.318-.545,2.287,2.287,0,0,0-1.455.473,3.707,3.707,0,0,0-.982,1.183,5.707,5.707,0,0,0-.557,1.538,7.669,7.669,0,0,0-.172,1.538,2.441,2.441,0,0,0,.447,1.583A1.577,1.577,0,0,0,858.124,524.571Z" transform="translate(-606.934 -512.38)" fill="#fff"/>
      </g>
    </g>
    <rect id="Retângulo_499" data-name="Retângulo 499" width="2.106" height="41.068" transform="translate(869.859 8231.033) rotate(3)" fill="#fff"/>
  </g>
</svg>
