<svg id="hunter" xmlns="http://www.w3.org/2000/svg" width="31.73" height="31.73" viewBox="0 0 31.73 31.73">
  <path id="Caminho_99" data-name="Caminho 99" d="M42.6,32.578A10.02,10.02,0,1,1,32.578,42.6,10.019,10.019,0,0,1,42.6,32.578Zm0,18.984A8.965,8.965,0,1,0,33.633,42.6,8.965,8.965,0,0,0,42.6,51.563Zm0,0" transform="translate(-23.035 -30.431)" fill="#2a6f93"/>
  <path id="Caminho_100" data-name="Caminho 100" d="M.764,27.236,6.73,21.27a.543.543,0,0,1,.746,0l.372.372,2.1-2.1a12.148,12.148,0,1,1,2.238,2.238l-2.1,2.1.372.372a.528.528,0,0,1,0,.746L4.493,30.965A2.637,2.637,0,0,1,.764,27.236Zm29.873-15.07A11.074,11.074,0,1,0,19.562,23.241,11.074,11.074,0,0,0,30.637,12.166Zm-20.011,8.19-2.032,2.03.749.749,2.03-2.03Q10.983,20.747,10.625,20.357ZM1.509,30.218a1.582,1.582,0,0,0,2.238,0L9.34,24.626,7.1,22.389,1.509,27.982a1.585,1.585,0,0,0,0,2.238Zm0,0" transform="translate(0.001 0.001)" fill="#2a6f93"/>
  <path id="Caminho_101" data-name="Caminho 101" d="M64.713,124.445c.136-.152,3.283-3.6,7.335-3.844a4.193,4.193,0,0,1,.881,0c4.052.242,7.2,3.691,7.335,3.844a.527.527,0,0,1,0,.7c-.136.152-3.283,3.6-7.335,3.844a4.2,4.2,0,0,1-.881,0c-4.052-.242-7.2-3.691-7.335-3.844A.527.527,0,0,1,64.713,124.445Zm4.611.352a3.164,3.164,0,1,0,3.164-3.164A3.164,3.164,0,0,0,69.324,124.8Zm6.75-2.211a4.181,4.181,0,0,1,0,4.419,13.481,13.481,0,0,0,3.059-2.207A13.394,13.394,0,0,0,76.074,122.586ZM68.9,127.008a4.18,4.18,0,0,1,0-4.419,13.465,13.465,0,0,0-3.059,2.207A13.393,13.393,0,0,0,68.9,127.008Zm0,0" transform="translate(-52.925 -112.63)" fill="#2a6f93"/>
  <path id="Caminho_102" data-name="Caminho 102" d="M154.688,156.8a2.109,2.109,0,1,1,2.109-2.109A2.109,2.109,0,0,1,154.688,156.8Zm0-3.164a1.055,1.055,0,1,0,1.055,1.055A1.055,1.055,0,0,0,154.688,153.633Zm0,0" transform="translate(-135.125 -142.52)" fill="#2a6f93"/>
</svg>
