<svg id="customer-service" xmlns="http://www.w3.org/2000/svg" width="34.919" height="35" viewBox="0 0 34.919 35">
  <g id="Grupo_227" data-name="Grupo 227" transform="translate(0.001 5.645)">
    <g id="Grupo_226" data-name="Grupo 226">
      <path id="Caminho_373" data-name="Caminho 373" d="M29.626,199.032l-1.307-3.921a3.952,3.952,0,0,0-3.042-2.638l-3.773-.686v-.292A5.681,5.681,0,0,0,23.187,190h1.14a1.7,1.7,0,0,0,1.694-1.694v-6.774a7.339,7.339,0,0,0-14.677,0v3.952a2.262,2.262,0,0,0,1.8,2.211,5.656,5.656,0,0,0,2.716,3.8v.292l-3.773.686a3.951,3.951,0,0,0-3.042,2.638l-.226.678L6.9,193.866a.566.566,0,0,1,0-.8l2.23-2.229L4.94,186.653l-2.52,2.52a3.952,3.952,0,0,0,0,5.588l7.629,7.629a3.95,3.95,0,0,0,5.571.017l2.75-2.519-.857-.856Zm-4.735-10.726a.565.565,0,0,1-.565.565h-.475a5.606,5.606,0,0,0,.368-1.176,2.236,2.236,0,0,0,.671-.267Zm-.565-1.85v-1.944a1.119,1.119,0,0,1,0,1.944Zm-11.29,0a1.119,1.119,0,0,1,0-1.944Zm0-3.795v.645a2.239,2.239,0,0,0-.565.234v-2.007a6.21,6.21,0,0,1,12.419,0v2.007a2.219,2.219,0,0,0-.565-.234v-.645h-.565a6.211,6.211,0,0,1-4.42-1.831l-.661-.661-.661.661a6.211,6.211,0,0,1-4.42,1.831Zm1.129,3.952v-2.844a7.319,7.319,0,0,0,4.516-2.006,7.316,7.316,0,0,0,4.516,2.006v2.844a4.482,4.482,0,0,1-.611,2.258H18.682V190h2.977a4.509,4.509,0,0,1-7.493-3.387ZM20.375,192v.027l-1.694,1.694-1.694-1.694V192a5.641,5.641,0,0,0,3.387,0Zm-10.261,3.47a2.824,2.824,0,0,1,2.173-1.885l3.946-.717,2.448,2.448,2.448-2.448,3.945.717a2.823,2.823,0,0,1,2.173,1.885l.812,2.435H16.383l-2.2-2.2-2.443,2.21a.577.577,0,0,1-.8,0L9.71,196.682ZM4.94,188.249l2.589,2.589-.613.613-2.589-2.589Zm9.9,13.344a2.823,2.823,0,0,1-3.992,0l-7.629-7.629a2.823,2.823,0,0,1,0-3.992l.31-.31,2.589,2.589-.02.02a1.7,1.7,0,0,0,0,2.4l4.048,4.048a1.685,1.685,0,0,0,1.2.5,1.662,1.662,0,0,0,1.177-.476l.042-.038,2.6,2.6ZM16,200.532l-2.6-2.6.746-.674,2.591,2.591Z" transform="translate(-1.263 -174.193)" fill="#2a6f93"/>
    </g>
  </g>
  <g id="Grupo_229" data-name="Grupo 229" transform="translate(23.629)">
    <g id="Grupo_228" data-name="Grupo 228">
      <path id="Caminho_374" data-name="Caminho 374" d="M739.964,0h-7.9a1.7,1.7,0,0,0-1.694,1.694V6.21A1.7,1.7,0,0,0,732.061,7.9h1.508l-.584,3.4,5.448-3.4h1.532a1.7,1.7,0,0,0,1.693-1.694V1.694A1.7,1.7,0,0,0,739.964,0Zm.564,6.21a.565.565,0,0,1-.564.565h-1.856l-3.585,2.241.385-2.241h-2.847a.565.565,0,0,1-.565-.565V1.694a.565.565,0,0,1,.565-.565h7.9a.565.565,0,0,1,.564.565Z" transform="translate(-730.367 0)" fill="#2a6f93"/>
    </g>
  </g>
  <g id="Grupo_231" data-name="Grupo 231" transform="translate(25.887 2.258)">
    <g id="Grupo_230" data-name="Grupo 230" transform="translate(0)">
      <rect id="Retângulo_459" data-name="Retângulo 459" width="6.774" height="1.129" fill="#2a6f93"/>
    </g>
  </g>
  <g id="Grupo_233" data-name="Grupo 233" transform="translate(25.887 4.516)">
    <g id="Grupo_232" data-name="Grupo 232" transform="translate(0)">
      <rect id="Retângulo_460" data-name="Retângulo 460" width="4.516" height="1.129" fill="#2a6f93"/>
    </g>
  </g>
  <g id="Grupo_235" data-name="Grupo 235" transform="translate(31.532 4.516)">
    <g id="Grupo_234" data-name="Grupo 234">
      <rect id="Retângulo_461" data-name="Retângulo 461" width="1.129" height="1.129" fill="#2a6f93"/>
    </g>
  </g>
  <g id="Grupo_237" data-name="Grupo 237" transform="translate(0 1.694)">
    <g id="Grupo_236" data-name="Grupo 236">
      <path id="Caminho_375" data-name="Caminho 375" d="M18.665,52.258A15.8,15.8,0,0,0,3.283,64.477l-1.07-1.783-.968.581L3.23,66.581,6.536,64.6l-.581-.968-1.53.918a14.681,14.681,0,0,1,18.588-10.5l.334-1.078A15.8,15.8,0,0,0,18.665,52.258Z" transform="translate(-1.245 -52.258)" fill="#2a6f93"/>
    </g>
  </g>
  <g id="Grupo_239" data-name="Grupo 239" transform="translate(28.823 10.515)">
    <g id="Grupo_238" data-name="Grupo 238" transform="translate(0)">
      <path id="Caminho_376" data-name="Caminho 376" d="M896.465,326.455l-3.306-1.984-1.984,3.307.968.581.988-1.647a14.689,14.689,0,0,1-2.488,13.985l.877.711a15.808,15.808,0,0,0,2.705-14.98l1.659,1Z" transform="translate(-890.643 -324.47)" fill="#2a6f93"/>
    </g>
  </g>
</svg>
