<svg xmlns="http://www.w3.org/2000/svg" width="174.143" height="181.063" viewBox="0 0 174.143 181.063">
  <g id="graduate" transform="translate(0)">
    <path id="Caminho_235" data-name="Caminho 235" d="M253.812,0h-102.6a9.054,9.054,0,0,0-9.053,9.053V57.337h6.035V9.053a3.018,3.018,0,0,1,3.018-3.018H229.67V27.159a3.017,3.017,0,0,0,5.151,2.134l3.9-3.9,3.9,3.9a3.017,3.017,0,0,0,5.151-2.134V6.035h6.035a3.018,3.018,0,0,1,3.018,3.018V153.9a3.018,3.018,0,0,1-3.018,3.018H190.44v6.035h63.372a9.054,9.054,0,0,0,9.053-9.053V9.053A9.054,9.054,0,0,0,253.812,0ZM241.741,19.874l-.884-.884a3.019,3.019,0,0,0-4.267,0l-.884.884V6.035h6.035Zm0,0" transform="translate(-88.722 0)" fill="#fff"/>
    <path id="Caminho_236" data-name="Caminho 236" d="M190.156,128h66.39v6.035h-66.39Zm0,0" transform="translate(-118.615 -79.717)" fill="#fff"/>
    <path id="Caminho_237" data-name="Caminho 237" d="M382.156,128h12.071v6.035H382.156Zm0,0" transform="translate(-238.19 -79.717)" fill="#fff"/>
    <path id="Caminho_238" data-name="Caminho 238" d="M190.156,160h84.5v6.035h-84.5Zm0,0" transform="translate(-118.615 -99.646)" fill="#fff"/>
    <path id="Caminho_239" data-name="Caminho 239" d="M270.156,80H294.3v6.035H270.156Zm0,0" transform="translate(-168.438 -49.823)" fill="#fff"/>
    <path id="Caminho_240" data-name="Caminho 240" d="M286.156,48h12.071v6.035H286.156Zm0,0" transform="translate(-178.403 -29.894)" fill="#fff"/>
    <path id="Caminho_241" data-name="Caminho 241" d="M282.227,272.142a12.071,12.071,0,1,0-12.071-12.071A12.071,12.071,0,0,0,282.227,272.142Zm0-18.106a6.035,6.035,0,1,1-6.035,6.035A6.036,6.036,0,0,1,282.227,254.035Zm0,0" transform="translate(-168.438 -154.451)" fill="#fff"/>
    <path id="Caminho_242" data-name="Caminho 242" d="M255.207,281.293A3.018,3.018,0,0,0,259.9,283.8l7.378-4.924,7.378,4.918a3.018,3.018,0,0,0,4.693-2.5v-18.9a21.124,21.124,0,1,0-24.142,0Zm18.106-5.641-4.36-2.906a3.02,3.02,0,0,0-3.351,0l-4.36,2.906V265.314a20.918,20.918,0,0,0,12.071,0ZM252.189,245.08a15.089,15.089,0,1,1,15.089,15.089A15.089,15.089,0,0,1,252.189,245.08Zm0,0" transform="translate(-153.489 -139.46)" fill="#fff"/>
    <path id="Caminho_243" data-name="Caminho 243" d="M80.62,248.975l-17.632-4.8v-4.568a21.125,21.125,0,0,0,9.053-17.268V216.63c.769-.352,1.255-.6,1.348-.639a3.018,3.018,0,0,0,1.669-2.7V195.184l16.172-6.22a3.018,3.018,0,0,0,0-5.638L52,168.238a3.048,3.048,0,0,0-2.166,0L10.6,183.327a3.019,3.019,0,0,0-1.935,2.8V199.97L.5,208.139l4.267,4.267,3.9-3.9v4.786H14.7V208.5l3.9,3.9,4.267-4.267L14.7,199.97v-9.445l12.071,4.659V213.29a3.018,3.018,0,0,0,1.668,2.716c.094.046.581.287,1.35.639v5.7a20.709,20.709,0,0,0,9.053,17.277v4.559l-17.642,4.8A21.216,21.216,0,0,0,5.651,269.359V282.7a3.018,3.018,0,0,0,3.018,3.018h84.5a3.018,3.018,0,0,0,3.018-3.018V269.359A21.22,21.22,0,0,0,80.62,248.975Zm-35.738-2.49v-3.922a20.528,20.528,0,0,0,12.071,0v3.922a2.981,2.981,0,0,0,1.054,2.243l-7.089,5.906-7.089-5.9A2.984,2.984,0,0,0,44.882,246.485Zm6.035-72.212L81.74,186.131,50.917,197.988,20.095,186.131Zm-1.083,29.765a3.048,3.048,0,0,0,2.166,0l17.023-6.548v13.88a51.781,51.781,0,0,1-18.106,4.938,51.912,51.912,0,0,1-18.106-4.941v-13.88ZM35.828,222.343V219.1a47.058,47.058,0,0,0,15.089,3.239A47.058,47.058,0,0,0,66.006,219.1v3.239a15.088,15.088,0,0,1-22.656,13.033,14.251,14.251,0,0,1-3.1-2.381A14.873,14.873,0,0,1,35.828,222.343ZM90.147,279.68H81.094V267.609H75.059V279.68H26.775V267.609H20.74V279.68H11.687v-10.32A15.161,15.161,0,0,1,22.8,254.8l14.234-3.874,11.95,9.958a3.021,3.021,0,0,0,3.863,0l11.95-9.958L79.024,254.8a15.169,15.169,0,0,1,11.123,14.564Zm0,0" transform="translate(-0.5 -104.652)" fill="#fff"/>
  </g>
</svg>
