<svg xmlns="http://www.w3.org/2000/svg" width="50" height="50" viewBox="0 0 50 50">
  <g id="Grupo_455" data-name="Grupo 455" transform="translate(-718 -68)">
    <rect id="Retângulo_502" data-name="Retângulo 502" width="50" height="50" transform="translate(718 68)" fill="none"/>
    <g id="university-building" transform="translate(684.044 73.942)">
      <path id="Caminho_458" data-name="Caminho 458" d="M99.87,148.83a1.181,1.181,0,0,0,1.277-1.051V133.9a1.181,1.181,0,0,0-1.277-1.051h-3.8A1.181,1.181,0,0,0,94.79,133.9v13.883a1.182,1.182,0,0,0,1.277,1.051Z" transform="translate(-48.902 -118.282)" fill="#2a6f93"/>
      <path id="Caminho_459" data-name="Caminho 459" d="M209.648,148.844a1.18,1.18,0,0,0,1.276-1.051V133.912a1.18,1.18,0,0,0-1.276-1.051h-3.8a1.181,1.181,0,0,0-1.277,1.051v13.881a1.181,1.181,0,0,0,1.277,1.051Z" transform="translate(-149.208 -118.295)" fill="#2a6f93"/>
      <path id="Caminho_460" data-name="Caminho 460" d="M319.408,148.83a1.18,1.18,0,0,0,1.276-1.051V133.9a1.18,1.18,0,0,0-1.276-1.051h-3.8a1.182,1.182,0,0,0-1.278,1.051v13.883a1.182,1.182,0,0,0,1.278,1.051Z" transform="translate(-249.496 -118.282)" fill="#2a6f93"/>
      <path id="Caminho_461" data-name="Caminho 461" d="M73.022,9.115h27.9a.63.63,0,0,0,.31-1.178L87.368.1a.8.8,0,0,0-.791,0L72.713,7.937a.63.63,0,0,0,.308,1.178Z" transform="translate(-28.436 3)" fill="#2a6f93"/>
      <path id="Caminho_462" data-name="Caminho 462" d="M74.616,377.435a1.741,1.741,0,0,0,1.741,1.741h25.3a1.741,1.741,0,0,0,0-3.482h-25.3A1.741,1.741,0,0,0,74.616,377.435Z" transform="translate(-30.468 -343.617)" fill="#2a6f93"/>
    </g>
  </g>
</svg>
