<svg xmlns="http://www.w3.org/2000/svg" width="144.986" height="181.217" viewBox="0 0 144.986 181.217">
  <g id="book_1_" data-name="book (1)" transform="translate(0)">
    <path id="Caminho_216" data-name="Caminho 216" d="M63.1,44.408,67,40.5v4.79h6.041V40.5l3.905,3.905,4.271-4.271L73.042,31.96V22.507L85.124,27.17V45.293a3.022,3.022,0,0,0,1.67,2.7c.094.044.581.286,1.351.64v5.718a20.728,20.728,0,0,0,9.062,17.293v4.563l-17.659,4.8a21.236,21.236,0,0,0-15.567,20.4v16.371A3.021,3.021,0,0,0,67,120.807h84.575a3.021,3.021,0,0,0,3.021-3.021V101.415a21.24,21.24,0,0,0-15.578-20.4l-17.648-4.8V71.637a21.142,21.142,0,0,0,9.062-17.283V48.637c.77-.354,1.257-.6,1.35-.64a3.021,3.021,0,0,0,1.671-2.7V27.17l16.187-6.225a3.021,3.021,0,0,0,0-5.643L110.372.2A3.051,3.051,0,0,0,108.2.2L68.937,15.3A3.022,3.022,0,0,0,67,18.108V31.96l-8.177,8.177Zm53.289,36.354-7.1,5.911-7.1-5.907a2.992,2.992,0,0,0,1.055-2.248V74.592a20.523,20.523,0,0,0,12.082,0v3.928A2.978,2.978,0,0,0,116.384,80.762Zm32.171,20.653v13.351h-9.062V96.642h-6.041v18.123H85.124V96.642H79.083v18.123H70.021V101.415A15.175,15.175,0,0,1,81.146,86.84l14.247-3.876,11.961,9.969a3.024,3.024,0,0,0,3.867,0l11.961-9.969,14.238,3.873A15.183,15.183,0,0,1,148.555,101.415Zm-24.164-47.06A15.1,15.1,0,0,1,101.713,67.4a14.265,14.265,0,0,1-3.106-2.383,14.887,14.887,0,0,1-4.422-10.662V51.113a47.1,47.1,0,0,0,15.1,3.242,47.1,47.1,0,0,0,15.1-3.242Zm3.021-10.983a51.83,51.83,0,0,1-18.123,4.942,51.961,51.961,0,0,1-18.123-4.945V29.474L108.2,36.03a3.051,3.051,0,0,0,2.168,0l17.039-6.553ZM109.288,6.24,140.14,18.108,109.288,29.975,78.437,18.108Zm0,0" transform="translate(-36.796 0)" fill="#fff"/>
    <path id="Caminho_217" data-name="Caminho 217" d="M145.788,365.83a3.02,3.02,0,0,0-1.383-5.7H133.21a10.653,10.653,0,0,1-3.908-9.062,10.271,10.271,0,0,1,4.4-9.4,3.02,3.02,0,0,0-1.383-5.7H23.583a15.1,15.1,0,0,0,0,30.205h.078a14.944,14.944,0,0,0-3.1,9.062,15.121,15.121,0,0,0,15.1,15.1H144.4a3.02,3.02,0,0,0,2.908-2.293,3.056,3.056,0,0,0-1.51-3.41,12.218,12.218,0,0,1-.015-18.8Zm-22.307-17.787H44.727v6.041h78.754a17.627,17.627,0,0,0,1.954,6.041H38.686V342h86.749A17.606,17.606,0,0,0,123.481,348.043ZM32.645,360.125H29.624V342h3.021Zm12.082,6.041v18.123H41.706V366.166Zm-30.205-15.1A9.062,9.062,0,0,1,23.583,342v18.123A9.062,9.062,0,0,1,14.522,351.064ZM26.6,375.228a9.062,9.062,0,0,1,9.062-9.062v18.123A9.062,9.062,0,0,1,26.6,375.228Zm24.164,9.062V366.166h86.749a17.606,17.606,0,0,0-1.954,6.041H56.809v6.041h78.754a17.625,17.625,0,0,0,1.954,6.041Zm0,0" transform="translate(-5.46 -209.113)" fill="#fff"/>
    <path id="Caminho_218" data-name="Caminho 218" d="M.48,231.961H12.563V238H.48Zm0,0" transform="translate(-0.48 -144.38)" fill="#fff"/>
    <path id="Caminho_219" data-name="Caminho 219" d="M4.945,276.773l11.674-3.128,1.563,5.836L6.509,282.609Zm0,0" transform="translate(-3.26 -170.325)" fill="#fff"/>
    <path id="Caminho_220" data-name="Caminho 220" d="M344.957,279.471l1.562-5.835,11.674,3.127-1.562,5.836Zm0,0" transform="translate(-214.894 -170.321)" fill="#fff"/>
    <path id="Caminho_221" data-name="Caminho 221" d="M352.48,231.961h12.082V238H352.48Zm0,0" transform="translate(-219.577 -144.38)" fill="#fff"/>
    <path id="Caminho_222" data-name="Caminho 222" d="M345.031,185.575l11.674-3.13,1.565,5.836-11.674,3.13Zm0,0" transform="translate(-214.94 -113.56)" fill="#fff"/>
    <path id="Caminho_223" data-name="Caminho 223" d="M327.039,143.07l10.464-6.043,3.021,5.233L330.06,148.3Zm0,0" transform="translate(-203.741 -85.29)" fill="#fff"/>
    <path id="Caminho_224" data-name="Caminho 224" d="M299.973,107.083l8.542-8.544,4.271,4.271-8.542,8.544Zm0,0" transform="translate(-186.894 -61.334)" fill="#fff"/>
    <path id="Caminho_225" data-name="Caminho 225" d="M22.2,142.259l3.021-5.231,10.464,6.041L32.667,148.3Zm0,0" transform="translate(-14.001 -85.29)" fill="#fff"/>
    <path id="Caminho_226" data-name="Caminho 226" d="M4.984,188.418l1.563-5.836,11.675,3.13-1.565,5.836Zm0,0" transform="translate(-3.284 -113.645)" fill="#fff"/>
  </g>
</svg>
