<svg xmlns="http://www.w3.org/2000/svg" width="200" height="200" viewBox="0 0 200 200">
  <g id="Grupo_636" data-name="Grupo 636" transform="translate(-1229 -549)">
    <rect id="Retângulo_645" data-name="Retângulo 645" width="200" height="200" rx="10" transform="translate(1229 549)" fill="#f9f9f9"/>
    <path id="Caminho_743" data-name="Caminho 743" d="M-43.9,0V-20.617h7.066a8.627,8.627,0,0,1,5.324,1.4,4.937,4.937,0,0,1,1.827,4.177,4.452,4.452,0,0,1-.765,2.549,4.922,4.922,0,0,1-2.237,1.756A4.551,4.551,0,0,1-30.1-9.027a4.97,4.97,0,0,1,.913,3.009,5.489,5.489,0,0,1-1.862,4.46A8.1,8.1,0,0,1-36.385,0Zm3.583-9.3V-2.86h3.979A3.851,3.851,0,0,0-33.708-3.7a2.932,2.932,0,0,0,.949-2.322q0-3.214-3.285-3.285Zm0-2.634h3.512a4.061,4.061,0,0,0,2.613-.758,2.6,2.6,0,0,0,.942-2.145,2.631,2.631,0,0,0-.871-2.209,4.4,4.4,0,0,0-2.712-.68h-3.483ZM-16.787,0a5.31,5.31,0,0,1-.4-1.43A5.356,5.356,0,0,1-21.2.283a5.405,5.405,0,0,1-3.767-1.317A4.213,4.213,0,0,1-26.43-4.291a4.351,4.351,0,0,1,1.82-3.76,8.818,8.818,0,0,1,5.2-1.31h2.11v-1.005a2.684,2.684,0,0,0-.666-1.9,2.638,2.638,0,0,0-2.025-.715,3.031,3.031,0,0,0-1.926.588,1.819,1.819,0,0,0-.75,1.494H-26.1a3.819,3.819,0,0,1,.835-2.358A5.566,5.566,0,0,1-23-14.981a7.983,7.983,0,0,1,3.207-.623A6.429,6.429,0,0,1-15.5-14.252a4.822,4.822,0,0,1,1.643,3.8v6.91a7.831,7.831,0,0,0,.581,3.3V0Zm-3.781-2.478a3.914,3.914,0,0,0,1.919-.5A3.311,3.311,0,0,0-17.3-4.3V-7.193h-1.855a5.072,5.072,0,0,0-2.875.666,2.156,2.156,0,0,0-.963,1.883,2.011,2.011,0,0,0,.658,1.579A2.55,2.55,0,0,0-20.568-2.478ZM-7.059-15.321l.1,1.77A5.509,5.509,0,0,1-2.5-15.6q4.786,0,4.871,5.48V0H-1.069V-9.926a3.155,3.155,0,0,0-.63-2.159,2.651,2.651,0,0,0-2.06-.7,3.316,3.316,0,0,0-3.1,1.883V0H-10.3V-15.321Zm16.128,0,.1,1.77a5.509,5.509,0,0,1,4.46-2.053q4.786,0,4.871,5.48V0H15.059V-9.926a3.155,3.155,0,0,0-.63-2.159,2.651,2.651,0,0,0-2.06-.7,3.316,3.316,0,0,0-3.1,1.883V0H5.827V-15.321ZM28.752.283a7.119,7.119,0,0,1-5.3-2.06,7.474,7.474,0,0,1-2.032-5.487v-.425a9.194,9.194,0,0,1,.885-4.1A6.736,6.736,0,0,1,24.787-14.6,6.57,6.57,0,0,1,28.356-15.6a6.014,6.014,0,0,1,4.836,2A8.443,8.443,0,0,1,34.9-7.958V-6.57H24.886a4.6,4.6,0,0,0,1.267,3,3.8,3.8,0,0,0,2.8,1.1A4.659,4.659,0,0,0,32.8-4.375l1.855,1.77A6.2,6.2,0,0,1,32.2-.474,7.691,7.691,0,0,1,28.752.283Zm-.411-13.126a2.9,2.9,0,0,0-2.287.991,5.138,5.138,0,0,0-1.112,2.761H31.5v-.255a4.182,4.182,0,0,0-.92-2.613A2.876,2.876,0,0,0,28.342-12.843Zm17.247.666a8.515,8.515,0,0,0-1.4-.113A3.156,3.156,0,0,0,41-10.479V0H37.56V-15.321h3.285l.085,1.713a3.877,3.877,0,0,1,3.455-2,3.221,3.221,0,0,1,1.218.2ZM-43.217,35H-57.08V32.635l6.868-7.491a17.1,17.1,0,0,0,2.117-2.768,4.485,4.485,0,0,0,.63-2.23,3.389,3.389,0,0,0-.828-2.379,2.873,2.873,0,0,0-2.23-.906,3.312,3.312,0,0,0-2.591,1.02,4.009,4.009,0,0,0-.92,2.79h-3.441a6.744,6.744,0,0,1,.857-3.391,5.9,5.9,0,0,1,2.45-2.344A7.8,7.8,0,0,1-50.5,14.1a6.974,6.974,0,0,1,4.737,1.508,5.235,5.235,0,0,1,1.735,4.17,7.077,7.077,0,0,1-.871,3.236,18.4,18.4,0,0,1-2.853,3.844l-5.041,5.4h9.572Zm16.058-8.68q0,4.446-1.664,6.7a5.876,5.876,0,0,1-5.062,2.259,5.954,5.954,0,0,1-5.034-2.2q-1.692-2.2-1.735-6.521V22.992q0-4.446,1.664-6.669A5.931,5.931,0,0,1-33.914,14.1a5.964,5.964,0,0,1,5.048,2.167q1.664,2.167,1.706,6.485ZM-30.6,22.468a8.723,8.723,0,0,0-.793-4.255,2.706,2.706,0,0,0-2.521-1.352,2.7,2.7,0,0,0-2.478,1.281,8.063,8.063,0,0,0-.835,4v4.673a8.949,8.949,0,0,0,.807,4.3,2.711,2.711,0,0,0,2.535,1.416,2.663,2.663,0,0,0,2.45-1.31,8.42,8.42,0,0,0,.835-4.1Zm19.923,3.852q0,4.446-1.664,6.7A5.876,5.876,0,0,1-17.4,35.283a5.954,5.954,0,0,1-5.034-2.2q-1.692-2.2-1.735-6.521V22.992q0-4.446,1.664-6.669A5.931,5.931,0,0,1-17.431,14.1a5.964,5.964,0,0,1,5.048,2.167q1.664,2.167,1.706,6.485Zm-3.441-3.852a8.724,8.724,0,0,0-.793-4.255,2.706,2.706,0,0,0-2.521-1.352,2.7,2.7,0,0,0-2.478,1.281,8.063,8.063,0,0,0-.835,4v4.673a8.949,8.949,0,0,0,.807,4.3A2.711,2.711,0,0,0-17.4,32.536a2.663,2.663,0,0,0,2.45-1.31,8.42,8.42,0,0,0,.835-4.1ZM.014,21.831l4.333-7.448H8.482L2.251,24.606,8.624,35H4.446L.014,27.438-4.432,35H-8.6l6.386-10.394L-8.454,14.383h4.135ZM24.582,35H10.719V32.635l6.868-7.491A17.1,17.1,0,0,0,19.7,22.376a4.485,4.485,0,0,0,.63-2.23,3.389,3.389,0,0,0-.828-2.379,2.873,2.873,0,0,0-2.23-.906,3.312,3.312,0,0,0-2.591,1.02,4.009,4.009,0,0,0-.92,2.79H10.323a6.744,6.744,0,0,1,.857-3.391,5.9,5.9,0,0,1,2.45-2.344A7.8,7.8,0,0,1,17.3,14.1a6.974,6.974,0,0,1,4.737,1.508,5.235,5.235,0,0,1,1.735,4.17,7.077,7.077,0,0,1-.871,3.236,18.4,18.4,0,0,1-2.853,3.844l-5.041,5.4h9.572ZM40.64,26.32q0,4.446-1.664,6.7a5.876,5.876,0,0,1-5.062,2.259,5.954,5.954,0,0,1-5.034-2.2q-1.692-2.2-1.735-6.521V22.992q0-4.446,1.664-6.669A5.931,5.931,0,0,1,33.885,14.1a5.964,5.964,0,0,1,5.048,2.167q1.664,2.167,1.706,6.485ZM37.2,22.468a8.724,8.724,0,0,0-.793-4.255,2.706,2.706,0,0,0-2.521-1.352,2.7,2.7,0,0,0-2.478,1.281,8.063,8.063,0,0,0-.835,4v4.673a8.949,8.949,0,0,0,.807,4.3,2.711,2.711,0,0,0,2.535,1.416,2.663,2.663,0,0,0,2.45-1.31,8.42,8.42,0,0,0,.835-4.1ZM57.122,26.32q0,4.446-1.664,6.7A5.876,5.876,0,0,1,50.4,35.283a5.954,5.954,0,0,1-5.034-2.2q-1.692-2.2-1.735-6.521V22.992q0-4.446,1.664-6.669A5.931,5.931,0,0,1,50.368,14.1a5.964,5.964,0,0,1,5.048,2.167q1.664,2.167,1.706,6.485Zm-3.441-3.852a8.724,8.724,0,0,0-.793-4.255,3.031,3.031,0,0,0-5-.071,8.063,8.063,0,0,0-.835,4v4.673a8.949,8.949,0,0,0,.807,4.3A2.711,2.711,0,0,0,50.4,32.536a2.663,2.663,0,0,0,2.45-1.31,8.42,8.42,0,0,0,.835-4.1Z" transform="translate(1329 642)" fill="#707070"/>
  </g>
</svg>
