<svg xmlns="http://www.w3.org/2000/svg" width="45.39" height="45.014" viewBox="0 0 45.39 45.014">
  <g id="college_2_" data-name="college (2)" transform="translate(-24.272 -26.191)">
    <path id="Caminho_740" data-name="Caminho 740" d="M196.313,123.922l4.856,2.022a2.969,2.969,0,0,0,1.922,0l4.856-2.022-5.817-2.422Z" transform="translate(-155.192 -85.975)" fill="#f6ffb4"/>
    <path id="Caminho_741" data-name="Caminho 741" d="M172.732,65.636a9.028,9.028,0,1,0,9.028,9.028A9.028,9.028,0,0,0,172.732,65.636Zm7.915,7.893a.588.588,0,0,1-.362.542l-.948.395v2.126a.588.588,0,1,1-1.175,0V74.955l-.485.2V78a.588.588,0,0,1-.588.588h-.378c-.99,0-2.1,1.013-2.826,1.684-.566.519-.85.78-1.223.78s-.679-.277-1.23-.779c-.735-.671-1.846-1.685-2.871-1.685h-.318a.588.588,0,0,1-.588-.588V75.117l-2.512-1.046a.588.588,0,0,1,0-1.085l7.345-3.058a.588.588,0,0,1,.452,0l7.345,3.058A.588.588,0,0,1,180.647,73.529Z" transform="translate(-125.776 -35.582)" fill="#f6ffb4"/>
    <path id="Caminho_742" data-name="Caminho 742" d="M219.931,168.722a3.8,3.8,0,0,1-1.413-.247l-2.471-1.028v1.815a6.51,6.51,0,0,1,3.394,1.978c.144.131.31.283.435.387.124-.1.289-.255.431-.386.823-.755,2.047-1.877,3.411-1.984v-1.771l-2.375.989A3.8,3.8,0,0,1,219.931,168.722Z" transform="translate(-172.993 -127.421)" fill="#f6ffb4"/>
    <path id="Caminho_743" data-name="Caminho 743" d="M347.342,309.969h9.129l-1.717-5.5h-8.292Z" transform="translate(-290.635 -251.022)" fill="#f6ffb4"/>
    <path id="Caminho_744" data-name="Caminho 744" d="M71.338,322.227h6.813v-5.761a.588.588,0,0,1,.588-.588H99.483L98,311.144h-10a.588.588,0,0,1-.58-.495l-.989-6.182h-.945l-6.128,8.192a.588.588,0,0,1-.941,0L72.3,304.467H62.131l-2.6,7.636H71.288a.588.588,0,0,1,.587.621Z" transform="translate(-31.802 -251.022)" fill="#f6ffb4"/>
    <path id="Caminho_745" data-name="Caminho 745" d="M38.864,394.433H27.324l-3.052,8.949H38.358Z" transform="translate(0 -332.177)" fill="#f6ffb4"/>
    <path id="Caminho_746" data-name="Caminho 746" d="M261.687,432.99v5.173h22.138l-1.615-5.173Z" transform="translate(-214.163 -366.958)" fill="#f6ffb4"/>
    <path id="Caminho_747" data-name="Caminho 747" d="M149.753,29.842a12.394,12.394,0,0,0-17.569,0,13.052,13.052,0,0,0-1.139,17.2L140.968,60.3,150.9,47.033a13.075,13.075,0,0,0,2.675-8.693A13.265,13.265,0,0,0,149.753,29.842Zm-8.921,19.444a10.2,10.2,0,1,1,10.2-10.2,10.2,10.2,0,0,1-10.2,10.2Z" transform="translate(-93.876)" fill="#f6ffb4"/>
  </g>
</svg>
