<svg xmlns="http://www.w3.org/2000/svg" width="182.545" height="182.545" viewBox="0 0 182.545 182.545">
  <g id="university" transform="translate(0 0)">
    <g id="Grupo_45" data-name="Grupo 45">
      <g id="Grupo_44" data-name="Grupo 44">
        <path id="Caminho_197" data-name="Caminho 197" d="M187.733,277.677a3.1,3.1,0,0,0,3.1,3.1h12.387a3.1,3.1,0,0,0,3.1-3.1V259.1a3.1,3.1,0,0,0-3.1-3.1H190.83a3.1,3.1,0,0,0-3.1,3.1v18.58Zm6.193-15.483h6.193V274.58h-6.193Z" transform="translate(-120.933 -164.978)" fill="#fff"/>
        <path id="Caminho_198" data-name="Caminho 198" d="M190.831,178.374h12.387a3.1,3.1,0,0,0,3.1-3.1V156.7a3.1,3.1,0,0,0-3.1-3.1H190.831a3.1,3.1,0,0,0-3.1,3.1v18.58A3.1,3.1,0,0,0,190.831,178.374Zm3.1-18.58h6.193v12.387h-6.193Z" transform="translate(-120.933 -98.987)" fill="#fff"/>
        <path id="Caminho_199" data-name="Caminho 199" d="M124,58.394l43.381-26.913,43.381,26.913a2.9,2.9,0,0,0,1.539.443,2.97,2.97,0,0,0,2.57-1.5,3.155,3.155,0,0,0-1.024-4.249L170.38,26.117V6.193h14.975v6.193H176.37a3.1,3.1,0,0,0,0,6.193h11.98a3.048,3.048,0,0,0,2.995-3.1V3.1A3.048,3.048,0,0,0,188.35,0H167.385a3.048,3.048,0,0,0-2.995,3.1V26.117L120.919,53.087a3.155,3.155,0,0,0-1.024,4.249A2.938,2.938,0,0,0,124,58.394Z" transform="translate(-76.113)" fill="#fff"/>
        <path id="Caminho_200" data-name="Caminho 200" d="M66.684,280.774a3.1,3.1,0,0,0,3.1-3.1V259.1a3.1,3.1,0,0,0-3.1-3.1H54.3a3.1,3.1,0,0,0-3.1,3.1v6.193a3.1,3.1,0,1,0,6.193,0v-3.1h6.193v15.484A3.1,3.1,0,0,0,66.684,280.774Z" transform="translate(-32.62 -164.979)" fill="#fff"/>
        <path id="Caminho_201" data-name="Caminho 201" d="M142.727,272.1V182.3a3.1,3.1,0,1,0-6.193,0v89.8a3.1,3.1,0,1,0,6.193,0Z" transform="translate(-87.885 -117.426)" fill="#fff"/>
        <path id="Caminho_202" data-name="Caminho 202" d="M105.406,401.755H207.618a3.1,3.1,0,0,0,0-6.193H180.562V364.6h3.006a3.1,3.1,0,0,0,0-6.193H129.456a3.1,3.1,0,0,0,0,6.193h3.006v30.966H105.406a3.1,3.1,0,0,0,0,6.194Zm54.112-18.58a3.1,3.1,0,0,0,0-6.193V364.6H174.55v30.966H159.518Zm-21.044-18.58h15.031v12.387a3.1,3.1,0,0,0,0,6.193v12.387H138.475Z" transform="translate(-65.24 -231.597)" fill="#fff"/>
        <path id="Caminho_203" data-name="Caminho 203" d="M425.084,366.933H412.7a3.1,3.1,0,0,0-3.1,3.1v18.58a3.1,3.1,0,0,0,3.1,3.1h12.387a3.1,3.1,0,0,0,3.1-3.1V370.03A3.1,3.1,0,0,0,425.084,366.933Zm-3.1,18.58h-6.193V373.127h6.193Z" transform="translate(-264.216 -236.468)" fill="#fff"/>
        <path id="Caminho_204" data-name="Caminho 204" d="M425.084,264.533H412.7a3.1,3.1,0,0,0-3.1,3.1v18.58a3.1,3.1,0,0,0,3.1,3.1h12.387a3.1,3.1,0,0,0,3.1-3.1V267.63A3.1,3.1,0,0,0,425.084,264.533Zm-3.1,18.58h-6.193V270.727h6.193Z" transform="translate(-264.216 -170.477)" fill="#fff"/>
        <path id="Caminho_205" data-name="Caminho 205" d="M198.242,494.933H71.29a3.1,3.1,0,0,0,0,6.193H198.242a3.1,3.1,0,0,0,0-6.193Z" transform="translate(-43.493 -318.582)" fill="#fff"/>
        <path id="Caminho_206" data-name="Caminho 206" d="M432.791,187.733a3.1,3.1,0,0,0-3.1,3.1v3.1H395.63a3.1,3.1,0,0,0,0,6.193h34.064V302.31a3.1,3.1,0,0,0,6.193,0V190.829A3.1,3.1,0,0,0,432.791,187.733Z" transform="translate(-253.343 -122.862)" fill="#fff"/>
        <path id="Caminho_207" data-name="Caminho 207" d="M273.067,277.677a3.1,3.1,0,0,0,3.1,3.1H288.55a3.1,3.1,0,0,0,3.1-3.1V259.1a3.1,3.1,0,0,0-3.1-3.1H276.164a3.1,3.1,0,0,0-3.1,3.1v18.58Zm6.193-15.483h6.194V274.58H279.26V262.193Z" transform="translate(-175.903 -164.978)" fill="#fff"/>
        <path id="Caminho_208" data-name="Caminho 208" d="M30.967,347.457c0-.4-.176-40.257-15.484-40.257S0,347.054,0,347.457a15.51,15.51,0,0,0,12.387,15.171v15.8a3.1,3.1,0,0,0,6.193,0v-15.8A15.51,15.51,0,0,0,30.967,347.457Zm-15.483,9.29a9.3,9.3,0,0,1-9.29-9.29c0-15.428,4.144-34.064,9.29-34.064s9.29,18.636,9.29,34.064A9.3,9.3,0,0,1,15.484,356.747Z" transform="translate(0 -198.976)" fill="#fff"/>
        <path id="Caminho_209" data-name="Caminho 209" d="M364.594,266.664v-92.9a3.1,3.1,0,1,0-6.193,0v92.9a3.1,3.1,0,0,0,6.193,0Z" transform="translate(-230.698 -111.989)" fill="#fff"/>
        <path id="Caminho_210" data-name="Caminho 210" d="M276.164,178.374H288.55a3.1,3.1,0,0,0,3.1-3.1V156.7a3.1,3.1,0,0,0-3.1-3.1H276.164a3.1,3.1,0,0,0-3.1,3.1v18.58A3.1,3.1,0,0,0,276.164,178.374Zm3.1-18.58h6.194v12.387H279.26Z" transform="translate(-175.903 -98.987)" fill="#fff"/>
        <path id="Caminho_211" data-name="Caminho 211" d="M3.1,227.992a3.1,3.1,0,0,0,3.1-3.1V200.121H40.257a3.1,3.1,0,1,0,0-6.193H6.193v-3.1a3.1,3.1,0,0,0-6.193,0v34.064A3.1,3.1,0,0,0,3.1,227.992Z" transform="translate(0 -121.132)" fill="#fff"/>
      </g>
    </g>
  </g>
</svg>
