<svg xmlns="http://www.w3.org/2000/svg" width="50" height="50" viewBox="0 0 50 50">
  <g id="Grupo_457" data-name="Grupo 457" transform="translate(-830 -68)">
    <rect id="Retângulo_502" data-name="Retângulo 502" width="50" height="50" transform="translate(830 68)" fill="none"/>
    <g id="campus2" transform="translate(813.728 50.309)">
      <path id="Caminho_740" data-name="Caminho 740" d="M196.313,123.276l3.56,1.482a2.177,2.177,0,0,0,1.409,0l3.56-1.482-4.264-1.776Z" transform="translate(-159.689 -88.466)" fill="#2a6f93"/>
      <path id="Caminho_741" data-name="Caminho 741" d="M170.323,65.636a6.619,6.619,0,1,0,6.618,6.618A6.618,6.618,0,0,0,170.323,65.636Zm5.8,5.786a.431.431,0,0,1-.265.4l-.695.29v1.559a.431.431,0,1,1-.861,0v-1.2l-.356.147V74.7a.431.431,0,0,1-.431.431h-.277c-.726,0-1.54.743-2.072,1.235-.415.38-.623.572-.9.572s-.5-.2-.9-.571a3.831,3.831,0,0,0-2.1-1.235h-.233a.431.431,0,0,1-.431-.431V72.587l-1.842-.767a.431.431,0,0,1,0-.8l5.385-2.242a.431.431,0,0,1,.331,0l5.385,2.242A.431.431,0,0,1,176.125,71.422Z" transform="translate(-129.421 -36.613)" fill="#2a6f93"/>
      <path id="Caminho_742" data-name="Caminho 742" d="M218.894,168.382a2.786,2.786,0,0,1-1.036-.181l-1.812-.754v1.331a4.773,4.773,0,0,1,2.488,1.45c.106.1.227.207.319.284.091-.073.212-.187.316-.283a4.683,4.683,0,0,1,2.5-1.454v-1.3l-1.741.725A2.785,2.785,0,0,1,218.894,168.382Z" transform="translate(-178.006 -131.113)" fill="#2a6f93"/>
      <path id="Caminho_743" data-name="Caminho 743" d="M347.107,308.5H353.8l-1.259-4.032h-6.079Z" transform="translate(-299.057 -258.296)" fill="#2a6f93"/>
      <path id="Caminho_744" data-name="Caminho 744" d="M68.187,317.487h4.995v-4.223a.431.431,0,0,1,.431-.431H88.82l-1.087-3.471H80.4a.431.431,0,0,1-.425-.363l-.725-4.532h-.693l-4.492,6.006a.431.431,0,0,1-.69,0l-4.484-6.006H61.437l-1.906,5.6H68.15a.431.431,0,0,1,.43.455Z" transform="translate(-32.725 -258.296)" fill="#2a6f93"/>
      <path id="Caminho_745" data-name="Caminho 745" d="M34.97,394.433h-8.46l-2.237,6.561H34.6Z" transform="translate(0 -341.802)" fill="#2a6f93"/>
      <path id="Caminho_746" data-name="Caminho 746" d="M261.687,432.99v3.792h16.23l-1.184-3.792Z" transform="translate(-220.369 -377.591)" fill="#2a6f93"/>
      <path id="Caminho_747" data-name="Caminho 747" d="M144.039,28.868a9.086,9.086,0,0,0-12.88,0,9.569,9.569,0,0,0-.835,12.609L137.6,51.2l7.281-9.726a9.585,9.585,0,0,0,1.961-6.373,9.725,9.725,0,0,0-2.8-6.23ZM137.5,43.122a7.478,7.478,0,1,1,7.478-7.478A7.478,7.478,0,0,1,137.5,43.122Z" transform="translate(-96.597)" fill="#2a6f93"/>
    </g>
  </g>
</svg>
