<svg xmlns="http://www.w3.org/2000/svg" width="50" height="50" viewBox="0 0 50 50">
  <g id="Grupo_458" data-name="Grupo 458" transform="translate(-886 -68)">
    <rect id="Retângulo_502" data-name="Retângulo 502" width="50" height="50" transform="translate(886 68)" fill="none"/>
    <g id="college-graduation" transform="translate(894 42.352)">
      <g id="Layer_5_59_" transform="translate(0 36.648)">
        <g id="Grupo_286" data-name="Grupo 286" transform="translate(0 0)">
          <path id="Caminho_407" data-name="Caminho 407" d="M62.924,208.7a4.514,4.514,0,0,1-4.453,0l-10.079-6.182s-.91-.558-.91.706V209.4c0,3.252,5.917,6.757,13.215,6.757s13.215-3.506,13.215-6.757V202.88c0-1.014-.647-.519-.647-.519Z" transform="translate(-43.354 -187.844)" fill="#2a6f93"/>
          <path id="Caminho_408" data-name="Caminho 408" d="M34.107,46.41a.932.932,0,0,0,0-1.727L18.752,37a2.961,2.961,0,0,0-2.816,0L.581,44.682a.932.932,0,0,0,0,1.727l15.355,9.417a2.961,2.961,0,0,0,2.816,0" transform="translate(0 -36.648)" fill="#2a6f93"/>
          <path id="Caminho_409" data-name="Caminho 409" d="M358.355,196.44v-10.4s.007-.493-.285-.33a8.5,8.5,0,0,0-1.012.627.873.873,0,0,0-.181.659v9.444a.277.277,0,0,1-.17.23,1.8,1.8,0,1,0,1.812,0A.268.268,0,0,1,358.355,196.44Z" transform="translate(-324.883 -172.719)" fill="#2a6f93"/>
        </g>
      </g>
    </g>
  </g>
</svg>
