<svg id="Grupo_321" data-name="Grupo 321" xmlns="http://www.w3.org/2000/svg" width="19.525" height="18.792" viewBox="0 0 19.525 18.792">
  <path id="Caminho_417" data-name="Caminho 417" d="M19.2,25.263,16.239,22.3V18.886a1.119,1.119,0,0,0-2.238,0v1.18l-2.2-2.2a2.944,2.944,0,0,0-4.07,0l-7.4,7.4a1.119,1.119,0,1,0,1.583,1.583l7.4-7.4a.661.661,0,0,1,.906,0l7.4,7.4A1.119,1.119,0,1,0,19.2,25.263Z" transform="translate(-0.001 -17.047)" fill="#707070"/>
  <path id="Caminho_418" data-name="Caminho 418" d="M76.073,127.909a.549.549,0,0,0-.777,0l-6.508,6.506a.551.551,0,0,0-.161.389v4.745a2.016,2.016,0,0,0,2.016,2.016h3.222v-4.99H77.5v4.99h3.222a2.016,2.016,0,0,0,2.016-2.016V134.8a.549.549,0,0,0-.161-.389Z" transform="translate(-65.922 -122.774)" fill="#707070"/>
</svg>
