<svg xmlns="http://www.w3.org/2000/svg" width="88" height="88" viewBox="0 0 88 88">
  <g id="student" transform="translate(0)">
    <path id="Caminho_156" data-name="Caminho 156" d="M290.488,137.244A1.244,1.244,0,1,1,289.244,136,1.244,1.244,0,0,1,290.488,137.244Zm0,0" transform="translate(-234.924 -110.936)" fill="#fff"/>
    <path id="Caminho_157" data-name="Caminho 157" d="M354.488,137.244A1.244,1.244,0,1,1,353.244,136,1.244,1.244,0,0,1,354.488,137.244Zm0,0" transform="translate(-287.129 -110.936)" fill="#fff"/>
    <path id="Caminho_158" data-name="Caminho 158" d="M310.811,42.887a6.456,6.456,0,0,1,7.666,2.762,1.245,1.245,0,0,0,2.131-1.288,8.957,8.957,0,0,0-10.629-3.826,1.247,1.247,0,0,0,.832,2.352Zm0,0" transform="translate(-250.881 -33.805)" fill="#fff"/>
    <path id="Caminho_159" data-name="Caminho 159" d="M86.533,464H1.467a1.261,1.261,0,1,0,0,2.488H86.533a1.261,1.261,0,1,0,0-2.488Zm0,0" transform="translate(0 -378.488)" fill="#fff"/>
    <path id="Caminho_160" data-name="Caminho 160" d="M130.661,225.244A1.244,1.244,0,0,0,129.417,224H113.244a1.244,1.244,0,0,0,0,2.488h16.173A1.244,1.244,0,0,0,130.661,225.244Zm0,0" transform="translate(-90.428 -182.718)" fill="#fff"/>
    <path id="Caminho_161" data-name="Caminho 161" d="M156.976,256h-3.732a1.244,1.244,0,0,0,0,2.488h3.732a1.244,1.244,0,0,0,0-2.488Zm0,0" transform="translate(-123.749 -208.821)" fill="#fff"/>
    <path id="Caminho_162" data-name="Caminho 162" d="M86.533,74.128a1.483,1.483,0,0,0,0-2.965H79.2v-5.93h7.333a1.483,1.483,0,0,0,0-2.965H66a4.424,4.424,0,0,0-4.4,4.448v2.965a4.437,4.437,0,0,0,.27,1.483h-3.2a4.424,4.424,0,0,0-4.4,4.448v2.965a4.437,4.437,0,0,0,.27,1.483h-4.67V78.576a4.424,4.424,0,0,0-4.4-4.448H39.6V68.2H51.333a5.9,5.9,0,0,0,5.867-5.93V52.982A11.633,11.633,0,0,0,71.239,45.3,13.346,13.346,0,0,1,79.933,57.82a1.467,1.467,0,1,0,2.933,0A16.292,16.292,0,0,0,70.582,42h-.057c-.463-.114-.934-.2-1.412-.277a16.343,16.343,0,0,0,5.541-6.475c4.051-.716,8.947-2.87,8.947-11.527a23.468,23.468,0,1,0-46.933,0c0,4.469,1.31,7.195,3.131,8.9H10.267A5.9,5.9,0,0,0,4.4,38.547V62.268a5.9,5.9,0,0,0,5.867,5.93H22v5.93H16.133a4.424,4.424,0,0,0-4.4,4.448v1.483H1.467a1.483,1.483,0,0,0,0,2.965H86.533a1.483,1.483,0,0,0,0-2.965H80.667v-5.93Zm-22-4.448V66.715A1.475,1.475,0,0,1,66,65.233H76.267v5.93H66A1.475,1.475,0,0,1,64.533,69.681Zm-4.4-19.273a8.609,8.609,0,0,1-2.933-.513V44.477h9.533a12.408,12.408,0,0,1,1.613.11h.039A8.806,8.806,0,0,1,60.133,50.407Zm0-47.442A20.668,20.668,0,0,1,80.667,23.721c0,5.189-1.805,7.278-4.852,8.215a16.438,16.438,0,0,0,.452-3.767v-8.9A1.475,1.475,0,0,0,74.8,17.791H57.2a1.483,1.483,0,0,0,0,2.965H73.333v7.413a13.25,13.25,0,0,1-4.927,10.476A12.946,12.946,0,0,1,57.2,41.14V38.547a5.9,5.9,0,0,0-5.867-5.93H47.707a13.326,13.326,0,0,1-.774-4.448V20.756h2.933a1.483,1.483,0,0,0,0-2.965h-4.4A1.475,1.475,0,0,0,44,19.273v8.9a16.36,16.36,0,0,0,.453,3.767C41.407,31,39.6,28.91,39.6,23.721A20.668,20.668,0,0,1,60.133,2.965Zm-35.2,59.3a4.424,4.424,0,0,1,4.4-4.448h2.933a1.483,1.483,0,0,0,0-2.965H29.333A7.382,7.382,0,0,0,22,62.268v2.965H10.267a2.95,2.95,0,0,1-2.933-2.965V38.547a2.95,2.95,0,0,1,2.933-2.965H51.333a2.95,2.95,0,0,1,2.933,2.965V62.268a2.95,2.95,0,0,1-2.933,2.965H39.6V62.268a1.467,1.467,0,1,0-2.933,0V74.128H24.933ZM14.667,78.576a1.475,1.475,0,0,1,1.467-1.483H45.467a1.475,1.475,0,0,1,1.467,1.483v1.483H14.667Zm44,1.483A1.475,1.475,0,0,1,57.2,78.576V75.611a1.475,1.475,0,0,1,1.467-1.483H66v5.93Zm19.067,0h-8.8v-5.93h8.8Zm0,0" fill="#fff"/>
  </g>
</svg>
