<svg id="system" xmlns="http://www.w3.org/2000/svg" width="83.786" height="83.786" viewBox="0 0 83.786 83.786">
  <g id="Grupo_185" data-name="Grupo 185" transform="translate(0 0)">
    <g id="Grupo_184" data-name="Grupo 184">
      <path id="Caminho_363" data-name="Caminho 363" d="M82.39,204.686h-1.4V161.4a1.4,1.4,0,0,0-1.4-1.4H4.189a1.4,1.4,0,0,0-1.4,1.4v43.289H1.4a1.4,1.4,0,0,0-1.4,1.4v2.793a6.991,6.991,0,0,0,6.982,6.982H76.8a6.991,6.991,0,0,0,6.982-6.982v-2.793A1.4,1.4,0,0,0,82.39,204.686Zm-76.8-41.893H78.2v41.893H53.065a1.414,1.414,0,0,0-.989.411l-2.382,2.382h-15.6L31.71,205.1a1.414,1.414,0,0,0-.989-.411H5.586Zm75.407,46.082a4.189,4.189,0,0,1-4.189,4.189H6.982a4.189,4.189,0,0,1-4.189-4.189v-1.4H30.143l2.384,2.384a1.4,1.4,0,0,0,.987.409H50.272a1.4,1.4,0,0,0,.987-.409l2.384-2.384H80.993Z" transform="translate(0 -132.071)" fill="#fff"/>
      <path id="Caminho_364" data-name="Caminho 364" d="M63.848,212.327l16.834-15.432,16.757,9.76,12.382-12.385V184H40v32.181l14-10.892Zm-21.055-1.857V186.793h64.236v6.32L96.987,203.158l-16.676-9.709-16.68,15.29-9.7-6.929Z" transform="translate(-33.018 -151.882)" fill="#fff"/>
      <path id="Caminho_365" data-name="Caminho 365" d="M105.4,26.532a1.4,1.4,0,0,0,1.4-1.4V22.129l4.853-.81a1.4,1.4,0,0,0,1.13-1.065,15.072,15.072,0,0,1,1.917-4.639,1.4,1.4,0,0,0-.047-1.556l-2.858-4,2.278-2.278,4,2.859a1.4,1.4,0,0,0,1.556.047,15.07,15.07,0,0,1,4.633-1.917,1.4,1.4,0,0,0,1.065-1.13l.816-4.853h3.22l.81,4.853a1.4,1.4,0,0,0,1.065,1.13,15.072,15.072,0,0,1,4.639,1.917,1.4,1.4,0,0,0,1.556-.047l4-2.859,2.278,2.278-2.859,4a1.4,1.4,0,0,0-.047,1.556,15.068,15.068,0,0,1,1.917,4.633,1.4,1.4,0,0,0,1.13,1.065l4.853.81v3.012a1.4,1.4,0,1,0,2.793,0V20.947a1.4,1.4,0,0,0-1.166-1.377l-5.118-.857a17.963,17.963,0,0,0-1.556-3.77l3.018-4.219a1.4,1.4,0,0,0-.149-1.8L142.556,4.97a1.4,1.4,0,0,0-1.8-.148l-4.219,3.022a17.97,17.97,0,0,0-3.77-1.56l-.856-5.122A1.4,1.4,0,0,0,130.532,0h-5.586a1.4,1.4,0,0,0-1.377,1.166l-.857,5.118a17.963,17.963,0,0,0-3.77,1.556l-4.214-3.014a1.4,1.4,0,0,0-1.8.148l-3.953,3.953a1.4,1.4,0,0,0-.148,1.8l3.018,4.214a17.969,17.969,0,0,0-1.56,3.77l-5.122.856A1.4,1.4,0,0,0,104,20.947v4.189A1.4,1.4,0,0,0,105.4,26.532Z" transform="translate(-85.846 0)" fill="#fff"/>
      <path id="Caminho_366" data-name="Caminho 366" d="M195.55,83.171a1.4,1.4,0,1,0,2.793,0,11.171,11.171,0,0,0-22.343,0,1.4,1.4,0,1,0,2.793,0,8.379,8.379,0,1,1,16.757,0Z" transform="translate(-145.278 -59.432)" fill="#fff"/>
      <path id="Caminho_367" data-name="Caminho 367" d="M208,109.586a1.4,1.4,0,1,0,2.793,0,2.793,2.793,0,1,1,5.586,0,1.4,1.4,0,1,0,2.793,0,5.586,5.586,0,0,0-11.171,0Z" transform="translate(-171.693 -85.846)" fill="#fff"/>
      <path id="Caminho_368" data-name="Caminho 368" d="M109.822,294.343V272h-2.793v20.947h-2.793V277.586h-2.793v15.361H98.65V281.775H95.857v11.171H93.065V278.982H90.272v13.964H87.479V276.189H84.686v16.757H81.893V273.4H79.1v19.55H76.307V278.982H73.514v13.964H70.722v-8.379H67.929v8.379H65.136v-5.586H62.343v5.586H59.55v-8.379H56.757v8.379H53.964v-9.775H51.171v9.775H48.379v-5.586H45.586v5.586H42.793v-1.4H40v4.189h69.822Z" transform="translate(-33.018 -224.521)" fill="#fff"/>
    </g>
  </g>
</svg>
