<svg xmlns="http://www.w3.org/2000/svg" width="81.815" height="81.815" viewBox="0 0 81.815 81.815">
  <g id="book" transform="translate(0)">
    <path id="Caminho_153" data-name="Caminho 153" d="M40.908,0H23.181a1.364,1.364,0,0,0-1.364,1.364v9.545H1.364A1.364,1.364,0,0,0,0,12.272V80.452a1.364,1.364,0,0,0,1.364,1.364H40.908a1.364,1.364,0,0,0,1.364-1.364V1.364A1.364,1.364,0,0,0,40.908,0ZM39.544,70.907h-15V68.179h15ZM2.727,20.454h19.09V61.362H2.727ZM39.544,15h-15V10.909h15ZM2.727,64.089h19.09v4.091H2.727Zm21.817,1.364V17.727h15V65.452Zm15-62.725V8.182h-15V2.727ZM21.817,13.636v4.091H2.727V13.636ZM2.727,70.907h19.09v8.182H2.727Zm21.817,8.182V73.634h15v5.454Zm0,0" transform="translate(0 0)" fill="#fff"/>
    <path id="Caminho_154" data-name="Caminho 154" d="M287.5,127.746,271.135,65.021a1.362,1.362,0,0,0-1.671-.973L249.01,69.5a1.363,1.363,0,0,0-.968,1.661l16.363,62.725a1.36,1.36,0,0,0,1.671.971L286.53,129.4A1.363,1.363,0,0,0,287.5,127.746Zm-34.3-47.63,17.819-4.751.641,2.454-17.818,4.758Zm19.149.35,7.909,30.337-17.813,4.753-7.909-30.339Zm8.6,32.976,1.4,5.351-17.819,4.751-1.391-5.349ZM268.842,67.035l1.485,5.693-17.819,4.749-1.483-5.69ZM266.7,131.874l-1.485-5.693,17.819-4.752,1.483,5.69Zm0,0" transform="translate(-205.727 -53.092)" fill="#fff"/>
    <path id="Caminho_155" data-name="Caminho 155" d="M44.272,144H33.364A1.364,1.364,0,0,0,32,145.364v10.909a1.364,1.364,0,0,0,1.364,1.364H44.272a1.364,1.364,0,0,0,1.364-1.364V145.364A1.364,1.364,0,0,0,44.272,144Zm-1.364,10.909H34.727v-8.182h8.182Zm0,0" transform="translate(-26.546 -119.455)" fill="#fff"/>
  </g>
</svg>
