<svg id="Grupo_147" data-name="Grupo 147" xmlns="http://www.w3.org/2000/svg" width="87.245" height="87.246" viewBox="0 0 87.245 87.246">
  <rect id="Retângulo_436" data-name="Retângulo 436" width="87.245" height="87.246" rx="10" transform="translate(0 0)" fill="#2a6f93"/>
  <g id="Grupo_146" data-name="Grupo 146" transform="translate(7.365 9.017)">
    <g id="Grupo_143" data-name="Grupo 143">
      <path id="Caminho_335" data-name="Caminho 335" d="M122.887,325.871H95.1a22.39,22.39,0,0,1-22.364-22.364V279.023A22.39,22.39,0,0,1,95.1,256.659h27.786a22.389,22.389,0,0,1,22.363,22.364v24.485A22.389,22.389,0,0,1,122.887,325.871ZM95.1,261.629a17.413,17.413,0,0,0-17.393,17.393v24.485A17.413,17.413,0,0,0,95.1,320.9h27.786a17.414,17.414,0,0,0,17.393-17.394V279.023a17.414,17.414,0,0,0-17.393-17.393Z" transform="translate(-72.737 -256.659)" fill="#fff"/>
    </g>
    <g id="Grupo_144" data-name="Grupo 144" transform="translate(16.35 14.699)">
      <path id="Caminho_336" data-name="Caminho 336" d="M118.24,319.484a19.907,19.907,0,1,1,19.907-19.907A19.928,19.928,0,0,1,118.24,319.484Zm0-34.844a14.938,14.938,0,1,0,14.937,14.937A14.954,14.954,0,0,0,118.24,284.64Z" transform="translate(-98.333 -279.67)" fill="#fff"/>
    </g>
    <g id="Grupo_145" data-name="Grupo 145" transform="translate(51.728 11.181)">
      <path id="Caminho_337" data-name="Caminho 337" d="M161.978,278.293a4.131,4.131,0,1,1-4.13-4.131A4.129,4.129,0,0,1,161.978,278.293Z" transform="translate(-153.717 -274.162)" fill="#fff"/>
    </g>
  </g>
</svg>
