<svg xmlns="http://www.w3.org/2000/svg" width="87.245" height="87.246" viewBox="0 0 87.245 87.246"><rect width="87.245" height="87.246" rx="10" transform="translate(0)" fill="#e23a47"/><g transform="translate(8.943 8.943)"><path d="M25.676,51.5h2.766V66.473H31.06V51.5h2.818V49.047h-8.2Z" transform="translate(-7.345 -14.031)" fill="#fff"/><path d="M54.757,53.33a3.185,3.185,0,0,0-2.432,1.408V49.046H49.973V66.472h2.352V65.214a3.207,3.207,0,0,0,2.432,1.437,1.862,1.862,0,0,0,1.88-1.459,10.337,10.337,0,0,0,.238-2.617v-5.17a9.973,9.973,0,0,0-.238-2.609A1.861,1.861,0,0,0,54.757,53.33Zm-.236,9.43c0,1.174-.344,1.752-1.024,1.752a1.678,1.678,0,0,1-1.173-.579V56.02a1.689,1.689,0,0,1,1.173-.573c.679,0,1.024.6,1.024,1.772Z" transform="translate(-14.296 -14.031)" fill="#fff"/><path d="M42.056,65.191c-.522.737-1.015,1.1-1.488,1.1-.314,0-.493-.185-.55-.55A7.266,7.266,0,0,1,40,64.827v-9.56H37.643V65.534a6.619,6.619,0,0,0,.208,1.931,1.446,1.446,0,0,0,1.516.967,3.769,3.769,0,0,0,2.689-1.595v1.416H44.41V55.268H42.056Z" transform="translate(-10.769 -15.811)" fill="#fff"/><path d="M46.2,34.8c.766,0,1.134-.608,1.134-1.821V27.455c0-1.214-.368-1.819-1.134-1.819s-1.135.605-1.135,1.819v5.519C45.063,34.189,45.431,34.8,46.2,34.8Z" transform="translate(-12.891 -7.334)" fill="#fff"/><path d="M34.893,0A34.893,34.893,0,1,0,69.787,34.893,34.893,34.893,0,0,0,34.893,0Zm3.881,16.32h2.371v9.661a5.6,5.6,0,0,0,.029.925c.052.368.239.557.558.557.475,0,.975-.368,1.5-1.113V16.32h2.377V29.442H43.233V28.011a3.817,3.817,0,0,1-2.716,1.611,1.46,1.46,0,0,1-1.532-.975,6.631,6.631,0,0,1-.211-1.951V16.32ZM29.794,20.6a5.1,5.1,0,0,1,.744-3.091,3.526,3.526,0,0,1,5.542,0,5.152,5.152,0,0,1,.737,3.091v4.595a5.135,5.135,0,0,1-.737,3.086,3.531,3.531,0,0,1-5.542,0,5.083,5.083,0,0,1-.744-3.086Zm-6.358-8.765,1.872,6.914,1.8-6.914h2.667L26.6,22.311v7.131H23.965V22.311a43.367,43.367,0,0,0-1.613-5.571c-.555-1.634-1.134-3.273-1.69-4.906h2.774ZM53.678,53.588a4.919,4.919,0,0,1-4.208,3.825,130.77,130.77,0,0,1-14.578.539,130.766,130.766,0,0,1-14.578-.539,4.916,4.916,0,0,1-4.207-3.825,41.649,41.649,0,0,1-.679-9.2,41.7,41.7,0,0,1,.687-9.2,4.915,4.915,0,0,1,4.206-3.825A130.784,130.784,0,0,1,34.9,30.819a130.771,130.771,0,0,1,14.578.539,4.921,4.921,0,0,1,4.209,3.825,41.779,41.779,0,0,1,.673,9.2A41.65,41.65,0,0,1,53.678,53.588Z" fill="#fff"/><path d="M65.75,55.046a3.342,3.342,0,0,0-2.818,1.331,5.063,5.063,0,0,0-.727,3.059v4.548a5.012,5.012,0,0,0,.756,3.053,3.366,3.366,0,0,0,2.847,1.33,3.253,3.253,0,0,0,2.844-1.408,3.351,3.351,0,0,0,.55-1.41c.022-.236.05-.757.05-1.516v-.342h-2.4a15.413,15.413,0,0,1-.051,1.593,1.011,1.011,0,0,1-1.052.943c-.808,0-1.2-.6-1.2-1.8v-2.3h4.706V59.435a5.1,5.1,0,0,0-.728-3.059A3.266,3.266,0,0,0,65.75,55.046Zm1.151,5.12H64.547v-1.2q0-1.8,1.181-1.8c.778,0,1.172.6,1.172,1.8Z" transform="translate(-17.795 -15.747)" fill="#fff"/></g></svg>