<svg xmlns="http://www.w3.org/2000/svg" width="87.246" height="87.246" viewBox="0 0 87.246 87.246"><g transform="translate(0 0)"><rect width="87.246" height="87.246" rx="10" fill="#4db545"/></g><g transform="translate(10.217 10.217)"><path d="M643.973,325.349a33.259,33.259,0,0,1-16.661-4.485L614.3,325.349l2.675-13.784a33.017,33.017,0,0,1-6.4-19.623,33.406,33.406,0,1,1,33.406,33.406ZM627.912,315.4l1.006.63a28.479,28.479,0,1,0-7.339-6.609l.7.893-1.462,7.531Z" transform="translate(-610.567 -258.538)" fill="#fff"/><path d="M635.892,288.636s1.959-3.426,3.557-3.622,3.656-.2,4.21.848,3.035,7.115,3.035,7.115a2.388,2.388,0,0,1-.229,2.056,20.332,20.332,0,0,1-2.12,2.48,1.813,1.813,0,0,0,0,2.153,39.3,39.3,0,0,0,4.7,5.765c2.613,2.616,7.634,4.482,7.634,4.482a1.531,1.531,0,0,0,1.175-.36c.457-.457,2.936-3.556,2.936-3.556a1.743,1.743,0,0,1,2.122-.423c1.32.6,7.047,3.458,7.047,3.458a1.241,1.241,0,0,1,.669,1.256c0,1.012-.41,3.487-1.246,4.323s-3.285,3.417-6.961,3.417-12.434-2.993-17.1-7.657-8.811-9.4-9.789-13.706S634.685,290.41,635.892,288.636Z" transform="translate(-619.351 -268.065)" fill="#fff"/></g></svg>