<svg xmlns="http://www.w3.org/2000/svg" width="36.847" height="36.847" viewBox="0 0 36.847 36.847">
  <g id="education" transform="translate(-0.001 0.001)">
    <path id="Caminho_412" data-name="Caminho 412" d="M57.387,7.7a1.08,1.08,0,0,0-.664-1L41.106.083a1.071,1.071,0,0,0-.831,0L24.658,6.7a1.079,1.079,0,0,0,0,1.992l15.617,6.477a1.077,1.077,0,0,0,.831,0L54.8,9.5v6.582l-2.045,4.09a1.08,1.08,0,0,0,1.931.966l1.193-2.387,1.193,2.387A1.08,1.08,0,0,0,59,20.171l-2.045-4.09V8.505A1.045,1.045,0,0,0,57.387,7.7Z" transform="translate(-22.266)" fill="#f6ffb4"/>
    <path id="Caminho_413" data-name="Caminho 413" d="M140.5,194.363V189.5l-8.541,3.528a3.235,3.235,0,0,1-2.5,0L121,189.5v4.858a1.08,1.08,0,0,0,.553.942,20.621,20.621,0,0,0,9.162,2.3,21.107,21.107,0,0,0,9.234-2.3A1.08,1.08,0,0,0,140.5,194.363Z" transform="translate(-112.292 -175.868)" fill="#f6ffb4"/>
    <ellipse id="Elipse_3" data-name="Elipse 3" cx="2.159" cy="5.397" rx="2.159" ry="5.397" transform="translate(32.529 23.892)" fill="#f6ffb4"/>
    <path id="Caminho_414" data-name="Caminho 414" d="M226,370.28a1.079,1.079,0,0,0,.219.652l1.177,1.554a1.08,1.08,0,0,0,1.527,0l1.177-1.554a1.079,1.079,0,0,0,.219-.652v-8.273H226v8.273Z" transform="translate(-209.735 -335.956)" fill="#f6ffb4"/>
    <path id="Caminho_415" data-name="Caminho 415" d="M316,338.433v7.226l8.618,1.424a13.314,13.314,0,0,1,0-10.075Z" transform="translate(-293.259 -312.757)" fill="#f6ffb4"/>
    <path id="Caminho_416" data-name="Caminho 416" d="M3.23,342.942h.01c.138,0-1.17.216,10.865-1.784v-7.226L3.354,332.165C1.017,332.045,0,335.2,0,337.546,0,340.618,1.389,342.934,3.23,342.942Z" transform="translate(0 -308.256)" fill="#f6ffb4"/>
  </g>
</svg>
