<svg xmlns="http://www.w3.org/2000/svg" width="27.148" height="30.31" viewBox="0 0 27.148 30.31">
  <g id="university-building" transform="translate(-43.956 -3)">
    <path id="Caminho_458" data-name="Caminho 458" d="M99.519,147.726a1.1,1.1,0,0,0,1.189-.978V133.824a1.1,1.1,0,0,0-1.189-.978h-3.54a1.1,1.1,0,0,0-1.189.978v12.924a1.1,1.1,0,0,0,1.189.978Z" transform="translate(-49.035 -119.08)" fill="#f6ffb4"/>
    <path id="Caminho_459" data-name="Caminho 459" d="M209.3,147.74a1.1,1.1,0,0,0,1.188-.978V133.839a1.1,1.1,0,0,0-1.188-.978h-3.54a1.1,1.1,0,0,0-1.189.978v12.923a1.1,1.1,0,0,0,1.189.978Z" transform="translate(-149.995 -119.094)" fill="#f6ffb4"/>
    <path id="Caminho_460" data-name="Caminho 460" d="M319.057,147.726a1.1,1.1,0,0,0,1.188-.978V133.824a1.1,1.1,0,0,0-1.188-.978h-3.54a1.1,1.1,0,0,0-1.19.978v12.924a1.1,1.1,0,0,0,1.19.978Z" transform="translate(-250.938 -119.08)" fill="#f6ffb4"/>
    <path id="Caminho_461" data-name="Caminho 461" d="M72.978,8.486H98.953a.587.587,0,0,0,.289-1.1L86.334.1A.746.746,0,0,0,85.6.1L72.691,7.389a.586.586,0,0,0,.287,1.1Z" transform="translate(-28.436 3)" fill="#f6ffb4"/>
    <path id="Caminho_462" data-name="Caminho 462" d="M74.616,377.315a1.62,1.62,0,0,0,1.621,1.621H99.789a1.621,1.621,0,0,0,0-3.241H76.237A1.62,1.62,0,0,0,74.616,377.315Z" transform="translate(-30.481 -345.626)" fill="#f6ffb4"/>
  </g>
</svg>
