<svg id="black-back-closed-envelope-shape" xmlns="http://www.w3.org/2000/svg" width="28.349" height="22.274" viewBox="0 0 28.349 22.274">
  <g id="Grupo_34" data-name="Grupo 34">
    <path id="Caminho_104" data-name="Caminho 104" d="M41.891,332.185a2.423,2.423,0,0,0,1.659-.626l-8.032-8.032-.556.4q-.9.664-1.463,1.036a9.02,9.02,0,0,1-1.495.759,4.557,4.557,0,0,1-1.74.387h-.031a4.555,4.555,0,0,1-1.74-.387A8.991,8.991,0,0,1,27,324.963q-.562-.371-1.463-1.036c-.168-.123-.353-.258-.554-.4l-8.033,8.034a2.423,2.423,0,0,0,1.659.626Z" transform="translate(-16.074 -309.911)" fill="#2a6f93"/>
    <path id="Caminho_105" data-name="Caminho 105" d="M1.6,199.931A8.386,8.386,0,0,1,0,198.555v12.22L7.079,203.7Q4.955,202.213,1.6,199.931Z" transform="translate(0 -191.373)" fill="#2a6f93"/>
    <path id="Caminho_106" data-name="Caminho 106" d="M418.8,199.931q-3.232,2.188-5.494,3.767l7.076,7.077v-12.22A8.729,8.729,0,0,1,418.8,199.931Z" transform="translate(-392.037 -191.373)" fill="#2a6f93"/>
    <path id="Caminho_107" data-name="Caminho 107" d="M25.823,59.013H2.537a2.259,2.259,0,0,0-1.874.822,3.192,3.192,0,0,0-.656,2.057,3.7,3.7,0,0,0,.87,2.16,7.848,7.848,0,0,0,1.851,1.827q.538.38,3.243,2.254c.974.675,1.82,1.263,2.548,1.77.62.432,1.155.806,1.6,1.117l.236.168.436.314q.514.372.854.6t.823.514a4.8,4.8,0,0,0,.91.427,2.517,2.517,0,0,0,.791.142H14.2a2.518,2.518,0,0,0,.791-.142,4.789,4.789,0,0,0,.91-.427q.482-.285.823-.514t.854-.6l.436-.314.237-.169,1.6-1.113,5.8-4.029a7.524,7.524,0,0,0,1.93-1.946,4.185,4.185,0,0,0,.775-2.389,2.552,2.552,0,0,0-2.531-2.531Z" transform="translate(-0.006 -59.013)" fill="#2a6f93"/>
  </g>
</svg>
